<?xml version="1.0" standalone="no"?>
<!DOCTYPE svg PUBLIC "-//W3C//DTD SVG 1.1//EN" "http://www.w3.org/Graphics/SVG/1.1/DTD/svg11.dtd" >
<svg xmlns="http://www.w3.org/2000/svg">
<metadata>
Created by FontPrep 20130207 at Tue Jun  3 12:25:31 2014
 By StageMac
(c) 1990, 1991, 1992, 1994, 1997, 1998, 2000, 2002, 2004 Adobe Systems Incorporated. All rights reserved. Protected by U.S. Patents D371,799; D497,175; D497,630.
</metadata>
<defs>
<font id="d50e19e52400e7ead72aae3dd972b622" horiz-adv-x='1024' >
  <font-face 
    font-family="MinionPro-Bold"
    font-weight="700"
    font-stretch="normal"
    units-per-em="2048"
    panose-1="2 4 7 3 6 2 1 2 2 3"
    ascent="1489"
    descent="-559"
    x-height="905"
    cap-height="1331"
    bbox="-654 -737.007 3449 2097"
    underline-thickness="102"
    underline-position="-102"
    unicode-range="U+0020-FB06"
  />
<missing-glyph horiz-adv-x="1024" 
d="M102 1239v-1044l349 522zM164 102h696l-348 523zM922 195v1044l-349 -522zM860 1331h-696l348 -522zM1024 0h-1024v1434h1024v-1434z" />
    <glyph glyph-name="T_h" unicode="Th" horiz-adv-x="2263" 
d="M242 1331h845q117 0 159 9t42 32v27q207 37 262 57v-657q132 131 270 131t213 -87t74 -253v-373q-1 -96 17 -119t100 -32v-66h-481v66q72 10 88 32t16 107v362q0 211 -149 211q-86 0 -148 -59v-514q0 -84 16 -107t79 -32v-66h-490v66q94 10 114 32q19 23 19 121v1004
q-121 18 -399 18h-80v-973q0 -128 30 -158t152 -40v-70h-633v70q119 10 148 41t29 157v973h-78q-127 0 -175 -14t-75 -51q-43 -53 -78 -187h-74l25 393h45q23 -33 47 -42t70 -9z" />
    <glyph glyph-name="Tcaron_h" unicode="&#x164;h" horiz-adv-x="2263" 
d="M944 1700l31 -53q-100 -78 -270 -252h-62q-133 143 -272 252l35 53q135 -55 268 -121q137 68 270 121zM242 1331h845q117 0 159 9t42 32v27q207 37 262 57v-657q132 131 270 131t213 -87t74 -253v-373q-1 -96 17 -119t100 -32v-66h-481v66q72 10 88 32t16 107v362
q0 211 -149 211q-86 0 -148 -59v-514q0 -84 16 -107t79 -32v-66h-490v66q94 10 114 32q19 23 19 121v1004q-121 18 -399 18h-80v-973q0 -128 30 -158t152 -40v-70h-633v70q119 10 148 41t29 157v973h-78q-127 0 -175 -14t-75 -51q-43 -53 -78 -187h-74l25 393h45
q23 -33 47 -42t70 -9z" />
    <glyph glyph-name="Tcommaaccent_h" unicode="&#x162;h" horiz-adv-x="2263" 
d="M551 -152q1 89 115 89q56 -1 107 -55q52 -54 52 -136q0 -184 -250 -244l-20 54q131 63 131 139t-104 100q-31 10 -31 53zM242 1331h845q117 0 159 9t42 32v27q207 37 262 57v-657q132 131 270 131t213 -87t74 -253v-373q-1 -96 17 -119t100 -32v-66h-481v66q72 10 88 32
t16 107v362q0 211 -149 211q-86 0 -148 -59v-514q0 -84 16 -107t79 -32v-66h-490v66q94 10 114 32q19 23 19 121v1004q-121 18 -399 18h-80v-973q0 -128 30 -158t152 -40v-70h-633v70q119 10 148 41t29 157v973h-78q-127 0 -175 -14t-75 -51q-43 -53 -78 -187h-74l25 393h45
q23 -33 47 -42t70 -9z" />
    <glyph glyph-name="f_b" unicode="fb" horiz-adv-x="1746" 
d="M1042 223q0 -51 11 -71q12 -33 48 -65t81 -34q88 -1 154 99t67 284q0 184 -79 272t-189 89q-54 -1 -93 -17v-557zM1262 930q178 0 301 -129t123 -303q0 -223 -156 -373t-385 -150q-168 0 -365 74v1176q-39 49 -101 81t-112 31q-70 0 -92 -77q-23 -63 -22 -283v-72h192
q6 -18 -1 -53t-26 -47h-165v-576q1 -100 23 -126t124 -35v-68h-537v68q82 10 105 36t22 125v576h-137l-8 24l59 76h86v45q0 76 27 144q47 137 172 232t260 114q109 -6 182 -51q115 20 199 51l12 -15v-571l74 35q88 41 146 41z" />
    <glyph glyph-name="f_f_b" unicode="ffb" horiz-adv-x="2334" 
d="M1630 223q0 -49 11 -75t47 -58q36 -31 81 -33q88 -1 155 101t67 281t-79 267t-190 89q-55 -1 -92 -19v-553zM614 1300q-165 0 -163 -331v-64h327v41q0 119 58 217q-86 137 -222 137zM1849 930q178 0 301 -129t123 -303q1 -223 -155 -373t-385 -150q-168 0 -365 74v1168
q-94 127 -203 126q-68 0 -100 -86q-25 -61 -25 -280v-72h193q10 -14 3 -50t-30 -48h-166v-592q0 -94 23 -116t115 -31v-68h-500v68q68 10 84 32t16 117v590h-327v-594q0 -90 18 -113t88 -32v-68h-496v68q88 10 109 31q20 22 20 114v594h-137l-10 24l61 74h86v35q0 68 48 170
t168 180q129 94 288 107q170 -6 252 -92q135 123 297 135q104 -2 180 -51q121 27 195 51l12 -15v-573q153 78 219 78z" />
    <glyph glyph-name="f_f_h" unicode="ffh" horiz-adv-x="2349" 
d="M612 1298q-159 0 -159 -329v-64h327v45q0 129 58 217q-82 131 -226 131zM2310 0h-481v68q74 8 89 28t15 103v370q0 211 -147 211q-90 0 -154 -63v-518q0 -81 14 -101t80 -30v-68h-458v68q70 10 86 30t16 109v1014q-39 53 -92 88t-107 34q-74 0 -106 -98q-23 -68 -23 -268
v-72h191q10 -14 3 -50t-28 -48h-166v-604q0 -85 22 -105t110 -30v-68h-494v68q68 10 84 30t16 107v602h-327v-600q0 -86 18 -108t88 -31v-68h-491v68q82 10 102 32t20 107v600h-131l-10 24l60 74h81v35q0 63 43 160q61 113 175 190q133 98 292 107q156 -2 252 -90
q135 123 291 131q106 -2 178 -45q123 20 199 47l12 -13v-628q136 131 274 131t213 -88t74 -256v-385q-1 -85 17 -105t100 -28v-68z" />
    <glyph glyph-name="f_f_j" unicode="ffj" horiz-adv-x="1759" 
d="M774 905v41q0 60 20 120t37 91q-25 51 -90 103q-66 51 -147 51q-92 0 -123 -119q-20 -76 -20 -223v-64h323zM1036 905h209q250 0 375 25v-670q0 -190 -56 -324t-148 -254q-92 -118 -136 -151q-45 -33 -74 -33q-30 0 -58 34t-28 83t47 53q139 6 158 41q33 68 33 527v426
q0 100 -14 122t-87 21h-221v-590q0 -92 20 -114t113 -35v-66h-495v66q66 10 83 32t17 117v590h-323v-594q0 -88 18 -112t90 -33v-66h-500v66q86 10 108 34t21 113v592h-137l-12 24l63 76h86v35q0 76 39 156q55 117 176 204q137 94 281 107q186 -6 270 -111q170 139 330 148
q147 -2 238 -92q51 -51 26 -111q-16 -43 -65 -74q-55 -39 -88 -4q-6 6 -33 40t-49 60q-23 25 -65 49t-85 23q-80 0 -108 -123q-18 -76 -19 -231v-76z" />
    <glyph glyph-name="f_f_k" unicode="ffk" horiz-adv-x="2277" 
d="M778 905v45q0 125 58 215q-94 135 -224 135q-104 0 -141 -137q-18 -68 -18 -194v-64h325zM1626 440v-229q0 -90 22 -112t113 -31v-68h-499v68q74 10 91 32t17 111v1008q-41 53 -95 87t-106 33q-74 0 -106 -96q-23 -68 -23 -266v-72h197q6 -20 -2 -56t-27 -44h-168v-604
q0 -83 20 -103t101 -30v-68h-489v68q72 10 89 30t17 103v604h-325v-596q0 -86 17 -109t89 -32v-68h-498v68q88 10 109 31q20 22 20 108v598h-137l-12 24l63 76h86v29q0 86 52 181t161 171q133 100 299 111q168 -2 248 -90q133 117 293 133q117 -2 174 -49q135 27 199 49
l10 -10v-930q72 16 125 75q74 86 121 173q55 73 -62 88v63l443 19v-64q-160 -27 -239 -97t-163 -177q45 -74 147 -209t151 -189q50 -54 85 -79q35 -24 88 -35v-68l-358 -4q-100 121 -281 405q-23 35 -36 35q-12 4 -21 4z" />
    <glyph glyph-name="f_f_t" unicode="fft" horiz-adv-x="1892" 
d="M780 905v45q0 117 54 213q-32 51 -94 95t-143 44t-124 -116q-23 -68 -22 -217v-64h329zM1622 -25q-252 0 -252 258v576h-328v-608q0 -83 23 -103t115 -30v-68h-500v68q70 10 85 30t15 105v606h-327v-608q0 -80 18 -102t90 -31v-68h-502v68q92 10 112 29q19 19 19 104v608
h-139l-12 25l63 71h88v35q0 78 48 171t163 175q137 102 301 111q152 -2 248 -90q141 125 285 133q131 -6 195 -72q39 -39 16 -86q-16 -43 -60 -73t-71 -3q-43 45 -101 83t-103 38q-44 0 -61 -59t-10 -291l2 -72h328v121l234 168l28 -14v-275h205q18 -16 13 -50t-29 -46h-189
v-502q0 -104 35 -146t83 -42t103 24l23 -67l-172 -78q-47 -23 -82 -23z" />
    <glyph glyph-name="f_h" unicode="fh" horiz-adv-x="1759" 
d="M1343 567q0 209 -161 209q-78 0 -140 -61v-510q0 -84 16 -107t79 -30v-68h-471v68q80 10 97 32t17 111v1010q-35 49 -95 82t-123 33t-85 -74q-25 -66 -24 -289v-68h190q12 -16 5 -53t-30 -47h-165v-590q0 -92 17 -115t97 -32v-68h-504v68q88 10 108 31q19 22 19 116v590
h-129l-8 24l60 76h77v39q0 72 27 148q55 143 176 236t258 112q109 -6 178 -47q125 20 203 47l10 -13v-628q130 131 272 131t216 -87t74 -251v-377q0 -94 17 -116t99 -31v-68h-481v68q72 8 88 30t16 107v362z" />
    <glyph glyph-name="f_j" unicode="fj" horiz-adv-x="1177" 
d="M453 905h209q250 0 374 25v-672q0 -190 -57 -324t-147 -252t-136 -151q-45 -33 -74 -33q-30 0 -60 35t-30 84t48 49q135 0 156 40t28 149q10 301 10 383v424q0 96 -15 120t-89 25h-217v-602q-1 -84 21 -107t106 -32v-66h-514v66q88 12 106 32t18 107v602h-133l-10 24
l64 74h79v45q0 210 224 384q128 100 291 106q158 -6 233 -92q48 -58 24 -106t-67 -75q-57 -33 -86 7q-2 2 -32 42q-86 117 -193 117q-82 0 -113 -127q-18 -74 -18 -237v-64z" />
    <glyph glyph-name="f_k" unicode="fk" horiz-adv-x="1691" 
d="M1036 440v-225q0 -94 20 -116t109 -31v-68h-493v68q76 10 92 32t16 115v1010q-35 49 -95 81t-114 31q-72 0 -96 -82q-23 -74 -22 -284v-66h190q10 -16 3 -54t-28 -46h-165v-580q0 -98 18 -123t98 -34v-68h-510v68q92 10 112 33q19 24 19 124v580h-137l-8 22l59 78h86v39
q0 80 27 148q47 135 177 232t255 116q119 -6 178 -49q147 33 197 49l12 -13v-927q78 16 140 90t114 162q25 32 14 54t-79 30v63l440 19v-64q-166 -29 -248 -102q-68 -66 -153 -172q43 -68 144 -205q102 -137 152 -193t85 -81q35 -24 88 -33v-68l-359 -4q-127 164 -278 405
q-27 35 -39 37t-21 2z" />
    <glyph glyph-name="f_t" unicode="ft" horiz-adv-x="1304" 
d="M1032 -25q-252 0 -252 258v574h-327v-600q0 -89 19 -109t108 -30v-68h-521v68q92 10 112 31q19 22 19 108v600h-139l-10 24l63 74h86v37q0 74 29 154q41 129 174 233q109 92 250 111q131 -6 193 -68q39 -39 16 -86q-14 -41 -60 -73t-75 -5q-41 43 -97 77t-102 34
q-46 1 -63 -63q-18 -64 -4 -287l2 -64h327v129l234 160l28 -14v-275h205q17 -16 13 -51t-29 -47h-189v-500q0 -106 36 -147t80 -41t108 24l20 -67l-172 -78q-55 -23 -82 -23z" />
    <glyph glyph-name="longs_b" unicode="&#x17f;b" horiz-adv-x="1728" 
d="M1034 223q0 -43 13 -67q10 -31 45 -62t79 -33q85 -1 149 97t64 279t-76 271q-77 89 -186 89q-27 -1 -88 -15v-559zM1245 930q180 0 301 -127t121 -307q0 -224 -154 -372t-380 -149q-164 0 -361 74v1184q-96 111 -182 111t-113 -101q-27 -92 -26 -350v-670q0 -100 20 -124
t113 -33v-66h-521v66q88 10 107 32q18 23 18 125v584h-131l-12 24l61 74h82v43q0 68 25 139q49 139 173 237t259 116q106 -2 182 -51q102 20 195 51l12 -17v-569l72 35q82 41 139 41z" />
    <glyph glyph-name="longs_h" unicode="&#x17f;h" horiz-adv-x="1748" 
d="M1708 0h-479v66q72 10 88 32t16 105v372q0 205 -153 205q-84 0 -146 -61v-514q0 -84 16 -108t80 -31v-66h-468v66q76 10 93 30t17 113v1024q-94 109 -194 108q-74 0 -101 -90t-26 -374v-664q0 -92 18 -115t100 -32v-66h-506v66q86 12 106 34q19 23 19 113v594h-137l-8 22
l59 76h86v43q0 70 25 137q47 139 172 237t260 118q100 -2 174 -47q129 20 207 47l8 -13v-626q130 129 270 129t215 -87t74 -253v-381q-1 -91 17 -111t98 -32v-66z" />
    <glyph glyph-name="longs_i" unicode="&#x17f;i" horiz-adv-x="1189" 
d="M1161 0h-502v66q82 10 98 32q15 23 15 131v410q0 96 -16 121t-99 39v57q217 27 377 74v-701q0 -109 18 -131t109 -32v-66zM190 905v33q0 220 216 385q143 111 303 117q152 -6 233 -94q45 -49 25 -109q-23 -47 -66 -74q-53 -37 -86 0q-4 4 -22 32q-29 45 -82 91
q-53 45 -134 45t-106 -123q-18 -74 -18 -360v-647q0 -82 19 -104t93 -31v-66h-502v66q90 10 109 30q18 20 18 105v606h-137l-10 24l61 74h86z" />
    <glyph glyph-name="longs_k" unicode="&#x17f;k" horiz-adv-x="1669" 
d="M1030 440v-227q0 -94 22 -116t115 -31v-66h-501v66q74 10 91 30t17 109v1026q-41 49 -95 81t-99 31q-76 0 -102 -94t-25 -356v-678q0 -94 18 -117t102 -32v-66h-514v66q92 10 112 32q19 23 19 117v592h-137l-8 24l59 74h86v43q0 70 23 137q51 143 179 241t249 114
q113 -2 176 -47q131 23 201 47l12 -13v-927q114 26 236 245q26 37 16 60t-76 31v63l439 19v-64q-95 -16 -151 -39t-112 -77t-137 -158q41 -66 136 -195t166 -213t167 -106v-66l-358 -2q-82 102 -271 403q-27 35 -39 37t-16 2z" />
    <glyph glyph-name="longs_l" unicode="&#x17f;l" horiz-adv-x="1189" 
d="M1161 0h-502v66q76 10 95 34q18 25 18 119v1012q-78 111 -180 110q-72 0 -107 -81q-35 -88 -34 -381v-658q0 -98 17 -122t95 -33v-66h-502v66q90 10 109 33q18 24 18 122v586h-135l-10 22l59 76h86v43q0 63 25 142q45 137 176 233q129 100 266 117q102 -2 181 -47
q125 25 186 47l12 -13v-1208q0 -96 20 -120t107 -33v-66z" />
    <glyph glyph-name="longs_longs" unicode="&#x17f;&#x17f;" horiz-adv-x="1189" 
d="M1034 225q0 -98 20 -121t105 -38v-66h-500v66q78 10 96 33q17 24 17 126v578h-135l-10 24l59 78h86v35q0 106 64 217q-102 141 -226 141q-96 0 -135 -139q-23 -92 -22 -358v-600q0 -85 16 -105t90 -30v-66h-491v66q86 10 104 30t18 105v602h-135l-8 24l62 78h81v19
q0 66 52 169t177 198q126 95 286 102q160 -6 243 -86q129 111 271 133q115 -6 164 -56t24 -96q-14 -37 -61 -67q-37 -31 -70 -2q-102 106 -172 106q-55 0 -68 -78q-6 -33 -6 -90l4 -330v-602z" />
    <glyph glyph-name="longs_longs_i" unicode="&#x17f;&#x17f;i" horiz-adv-x="1781" 
d="M1755 0h-493v66q70 8 87 34t17 119v420q0 98 -16 121t-99 39v57q231 29 377 74v-703q0 -100 20 -126t107 -35v-66zM190 905v19q0 70 47 166t166 190q143 106 310 113q152 -4 245 -99q68 62 164 104t185 42q141 -2 233 -99q47 -49 27 -98q-21 -49 -71 -85t-83 1
q-4 4 -24 33q-31 45 -88 92t-137 47q-81 0 -107 -129q-16 -63 -17 -346v-639q0 -92 18 -117t97 -34v-66h-489v66q76 10 94 34t18 117v588h-139l-8 24l61 76h86v35q0 131 53 217q-98 135 -223 135q-102 0 -135 -133q-20 -84 -20 -350v-602q0 -84 17 -108t89 -33v-66h-496v66
q86 14 107 35q20 22 20 106v598h-139l-10 22l63 78h86z" />
    <glyph glyph-name="longs_longs_l" unicode="&#x17f;&#x17f;l" horiz-adv-x="1781" 
d="M1757 0h-504v68q76 10 95 34q18 25 18 125v1000q-84 109 -186 108q-80 0 -110 -78t-30 -387v-649q0 -96 18 -121t95 -32v-68h-498v68q84 10 104 34q19 25 19 119v584h-139l-8 22l61 78h86v37q0 121 60 219q-86 133 -226 133q-96 0 -137 -135q-23 -84 -22 -352v-596
q0 -88 17 -112t89 -31v-68h-491v68q84 10 103 32t19 111v594h-139l-8 22l61 78h86v15q0 76 43 161q51 111 177 201q135 100 301 111q154 -2 247 -93q150 131 291 140q106 -2 176 -47q133 27 191 47l12 -13v-1200q0 -100 20 -125t109 -34v-68z" />
    <glyph glyph-name="f_f" unicode="ff" horiz-adv-x="1259" 
d="M774 944q0 109 47 205q-33 59 -95 111t-136 51q-88 0 -117 -111q-23 -78 -22 -231v-64h323v39zM188 905v35q0 84 49 181t167 183t262 101q174 -4 268 -102q131 123 276 141q121 0 185 -74t-49 -160q-43 -31 -74 4q-4 4 -24 22t-43 42q-24 25 -57 37q-34 12 -48 12
q-53 0 -68 -63q-12 -63 0 -283l4 -76h238q10 -16 3 -52t-28 -48h-213v-590q0 -90 26 -114t130 -35v-66h-516v66q63 10 81 34q17 25 17 115v590h-323v-590q0 -88 19 -114t89 -35v-66h-502v66q86 10 109 34t22 115v590h-139l-10 24l61 76h88z" />
    <glyph glyph-name="f_f_i" unicode="ffi" horiz-adv-x="1775" 
d="M772 905v41q0 70 20 128t37 85q-27 53 -92 105q-66 51 -145 51q-90 0 -123 -119q-18 -70 -18 -227v-64h321zM1743 0h-483v66q61 10 78 34t18 105v457q0 98 -16 122t-91 23h-215v-592q0 -90 20 -114t89 -35v-66h-471v66q66 10 83 34t17 115v592h-321v-596q0 -88 18 -112
t88 -33v-66h-494v66q82 10 104 34t21 113v594h-133l-12 24l63 74h82v35q0 84 37 160q57 119 186 210t267 101q195 -6 274 -108q162 133 334 145q154 -2 246 -98q53 -55 24 -111q-18 -43 -69 -76t-84 0q-4 4 -33 41t-52 63q-24 27 -68 51t-87 23q-84 0 -112 -124
q-16 -68 -17 -236v-76h205q254 0 379 25v-725q0 -82 19 -105t106 -34v-66z" />
    <glyph glyph-name="f_f_l" unicode="ffl" horiz-adv-x="1775" 
d="M772 944q0 102 62 230q-78 137 -228 137q-102 0 -137 -135q-18 -70 -18 -215v-56h321v39zM1747 0h-479v66q57 8 72 30t16 109v1040q-55 106 -168 107q-66 0 -110 -66t-44 -239v-142h215q6 -18 -1 -53t-27 -45h-187v-592q0 -92 20 -115t97 -34v-66h-479v66q66 10 83 34
t17 115v592h-321v-594q0 -90 17 -114t89 -33v-66h-489v66q82 12 101 36t19 113v592h-131l-10 24l62 74h79v39q0 80 50 176t179 188t277 99q168 -2 262 -92q152 121 290 125t237 -51q27 8 112 45l23 -11v-1218q0 -87 20 -107t109 -32v-66z" />
    <glyph glyph-name="longs_t" unicode="&#x17f;t" horiz-adv-x="1290" 
d="M1024 -25q-252 0 -252 258v574h-129l-12 24l59 74h82v129l234 160l28 -14v-275h201q16 -14 13 -50t-27 -48h-187v-502q0 -106 36 -147t78 -41t105 24l19 -67l-162 -76q-47 -23 -86 -23zM190 905v39q0 55 29 146q41 127 178 235q109 94 256 115q123 -6 185 -68
q38 -39 18 -86t-68 -78q-35 -27 -67 2q-102 113 -180 113q-53 0 -70 -66q-18 -57 -18 -368v-674q1 -90 23 -115t114 -34v-66h-527v66q88 10 108 33q19 24 19 116v592h-139l-10 24l63 74h86z" />
    <glyph glyph-name="f_i" unicode="fi" horiz-adv-x="1189" 
d="M1159 0h-483v68q66 8 82 32t16 115v447q0 96 -16 120t-90 23h-215v-594q1 -84 23 -109t95 -34v-68h-505v68q82 8 104 32t20 111v594h-137l-10 26l61 74h86v45q0 213 209 371q141 113 303 119q158 -6 238 -97q45 -57 18 -112q-16 -41 -63 -68q-55 -35 -86 6l-18 27
q-55 77 -105 107q-49 30 -102 30q-86 0 -113 -121q-18 -82 -18 -243v-64h202q256 0 381 25v-715q0 -90 20 -115t103 -32v-68z" />
    <glyph glyph-name="f_l" unicode="fl" horiz-adv-x="1189" 
d="M1036 215q0 -90 20 -113t107 -34v-68h-479v68q59 8 75 32q15 25 15 115v1030q-27 41 -73 72t-93 31q-74 0 -112 -70q-45 -74 -45 -236v-137h213q6 -20 -1 -55t-28 -45h-184v-594q0 -88 17 -111t95 -32v-68h-504v68q88 12 109 33q20 22 20 110v594h-139l-8 29l61 71h86v35
q0 102 48 203q61 119 165 190q137 98 279 107q115 0 213 -49q74 22 125 41l18 -11v-1206z" />
    <glyph glyph-name=".notdef" horiz-adv-x="1024" 
d="M102 1239v-1044l349 522zM164 102h696l-348 523zM922 195v1044l-349 -522zM860 1331h-696l348 -522zM1024 0h-1024v1434h1024v-1434z" />
    <glyph glyph-name=".null" horiz-adv-x="0" 
 />
    <glyph glyph-name="nonmarkingreturn" horiz-adv-x="681" 
 />
    <glyph glyph-name="space" unicode=" " horiz-adv-x="444" 
 />
    <glyph glyph-name="exclam" unicode="!" horiz-adv-x="583" 
d="M293 297q67 0 111 -46t44 -116t-43 -115q-44 -45 -112 -45t-112 45t-44 115t44 116t112 46zM121 1274q0 88 168 88t168 -88q0 -20 -33 -214t-88 -611q-4 -17 -47 -19t-47 19q-49 373 -103 675q-18 117 -18 150z" />
    <glyph glyph-name="quotedbl" unicode="&#x22;" horiz-adv-x="778" 
d="M545 866q-94 509 -96 514l229 70l18 -14q-8 -141 -75 -533zM170 866q-94 509 -96 514l227 70l21 -14q-6 -98 -76 -533z" />
    <glyph glyph-name="numbersign" unicode="#" horiz-adv-x="1024" 
d="M639 793h-197l-59 -248h197zM958 961l-22 -168h-195l-61 -248h172l-27 -168h-184l-84 -346h-100l82 346h-197l-82 -346h-102l82 346h-197l23 168h215l57 248h-182l20 168h203l72 296h104l-74 -296h199l70 296h100l-70 -296h178z" />
    <glyph glyph-name="dollar" unicode="$" horiz-adv-x="1024" 
d="M731 307q0 117 -141 185l-27 14v-397q76 12 122 62t46 136zM315 1001q0 -122 164 -188v365q-78 -12 -121 -62t-43 -115zM563 -145h-84v163q-199 2 -338 86q-20 59 -55 291l66 13q109 -283 327 -304v431l-63 26q-301 121 -301 338q0 141 96 239t268 119v154h84v-147
q98 0 170 -20t94 -23q35 -182 47 -275l-65 -10q-20 61 -43 104t-76 85t-127 53v-398l78 -28q305 -113 305 -346q-2 -160 -104 -260t-279 -121v-170z" />
    <glyph glyph-name="percent" unicode="%" horiz-adv-x="1564" 
d="M1284 338q0 104 -26 192t-92 88q-64 0 -91 -89q-57 -188 1 -388q28 -92 92 -92t90 92q26 93 26 197zM1168 -25q-156 0 -238 112t-82 247q0 134 82 246t237 112q154 0 236 -112t82 -246q0 -135 -81 -247t-236 -112zM403 1227q-63 0 -91 -91q-58 -189 1 -385q29 -93 93 -94
q61 -1 88 93t26 194q0 283 -117 283zM84 943q0 133 82 245t236 112q153 0 236 -112t83 -246q0 -135 -82 -247q-82 -111 -236 -111q-155 0 -237 112t-82 247zM1231 1278l-838 -1354l-76 53l836 1354z" />
    <glyph glyph-name="ampersand" unicode="&#x26;" horiz-adv-x="1464" 
d="M616 158q62 0 132 35t108 83q-143 147 -428 396q-86 -92 -86 -228t80 -212q80 -74 194 -74zM598 1280q-66 0 -105 -54q-40 -54 -40 -128t43 -134t151 -145q102 86 103 254q0 83 -43 145t-109 62zM1499 872v-69q-94 -8 -140 -36q-47 -28 -89 -81t-187 -260
q203 -197 355 -430l-13 -25q-137 0 -232 25t-113 43q-18 17 -74 77q-55 60 -95 99q-186 -244 -388 -244q-203 0 -319 118t-116 263q0 62 16 110t62 96t85 77q38 29 124 90q-137 131 -137 281t110 251q110 103 262 103t249 -84t97 -213q0 -96 -86 -170q-55 -47 -163 -121
q131 -109 317 -287q55 79 95 163q41 84 19 112t-126 43l2 69h485z" />
    <glyph glyph-name="quotesingle" unicode="'" horiz-adv-x="407" 
d="M301 1450l21 -14q-12 -121 -76 -533l-76 -37q-96 502 -100 514z" />
    <glyph glyph-name="parenleft" unicode="(" horiz-adv-x="720" 
d="M156 555v2q0 590 434 905l53 -55q-139 -139 -216 -363t-77 -488t81 -496t212 -355l-53 -57q-434 311 -434 907z" />
    <glyph glyph-name="parenright" unicode=")" horiz-adv-x="720" 
d="M563 555q0 -592 -432 -907l-53 53q137 133 214 361t77 490t-82 499q-82 236 -209 360l53 51q432 -315 432 -907z" />
    <glyph glyph-name="asterisk" unicode="*" horiz-adv-x="829" 
d="M762 989l-268 -57l69 -283l-55 -22l-148 262l-251 -152l-35 54l205 196l-213 215l36 51l252 -159l123 268l60 -14l-50 -287l273 -12z" />
    <glyph glyph-name="plus" unicode="+" horiz-adv-x="1181" 
d="M1085 453h-417v-453h-152v453h-420v133h420v407h152v-407h417v-133z" />
    <glyph glyph-name="comma" unicode="," horiz-adv-x="520" 
d="M207 330q84 0 161 -75q76 -75 76 -197t-101 -208q-101 -88 -247 -122l-24 71q184 76 184 199q0 53 -40 95t-110 57q-10 2 -19 22t-9 59t38 69t91 30z" />
    <glyph glyph-name="hyphen" unicode="-" horiz-adv-x="700" 
d="M618 543l-30 -146h-504l31 146h503z" />
    <glyph glyph-name="period" unicode="." horiz-adv-x="520" 
d="M260 -25q-66 0 -108 44q-43 44 -43 112t43 112q42 44 108 44t109 -44t43 -113t-43 -112t-109 -43z" />
    <glyph glyph-name="slash" unicode="/" horiz-adv-x="669" 
d="M623 1362l-445 -1454h-143l444 1454h144z" />
    <glyph glyph-name="zero" unicode="0" horiz-adv-x="1024" 
d="M508 1217q-170 0 -170 -572q0 -242 43 -414t135 -172q170 0 170 584q0 246 -42 410t-136 164zM516 1300q123 0 214 -60t140 -160q97 -199 97 -442t-97 -441q-49 -101 -142 -161t-216 -60t-215 60t-142 160q-98 197 -98 444q0 246 101 442q51 98 143 158t215 60z" />
    <glyph glyph-name="one" unicode="1" horiz-adv-x="1024" 
d="M838 0h-629v70q119 8 149 41t31 145v743q0 83 -14 103t-78 26l-104 7v59q172 27 466 106v-1044q0 -110 30 -144t149 -42v-70z" />
    <glyph glyph-name="two" unicode="2" horiz-adv-x="1024" 
d="M68 0v53q258 254 329 338q223 264 224 479q1 111 -55 178t-158 66q-150 0 -275 -180l-59 47l131 193q127 126 296 126t277 -99t107 -265q0 -118 -66 -226t-219 -255l-246 -234h332q94 -1 127 19t88 118l68 -22q-23 -89 -80 -336h-821z" />
    <glyph glyph-name="three" unicode="3" horiz-adv-x="1024" 
d="M930 456q0 -118 -71 -216t-170 -152q-204 -113 -340 -113t-220 68q-49 37 -49 84t61 90q37 33 76 4q143 -131 264 -131q82 0 132 70q51 70 51 206t-75 202t-171 65q-57 0 -111 -15l-14 70q295 96 295 266q0 94 -50 140t-126 47q-129 0 -244 -154l-53 49l102 138
q115 127 289 126h2q156 0 245 -76t89 -200q0 -78 -66 -137q-30 -29 -149 -105v-4q145 -28 224 -116t79 -206z" />
    <glyph glyph-name="four" unicode="4" horiz-adv-x="1024" 
d="M551 473v537h-4q-193 -266 -363 -537h367zM995 356h-184v-127q0 -93 27 -121t139 -38v-70h-610v70q125 10 155 40t29 128v118h-520v84q371 524 633 848h147v-815h184v-117z" />
    <glyph glyph-name="five" unicode="5" horiz-adv-x="1024" 
d="M520 807q188 0 300 -102t112 -242q0 -203 -207 -348q-188 -135 -385 -140q-135 0 -211 66q-51 41 -51 74q0 66 65 114q33 23 74 -12q137 -125 264 -125q92 0 141 73q48 73 48 201t-82 212q-82 82 -204 82t-241 -39l93 655h651l12 -21l-65 -200h-523l-55 -314
q182 66 264 66z" />
    <glyph glyph-name="six" unicode="6" horiz-adv-x="1024" 
d="M479 678q-63 0 -127 -23q-12 -53 -12 -166q0 -195 67 -313t152 -117q156 0 156 291q0 144 -66 236t-170 92zM590 823q176 0 284 -104t109 -290q0 -185 -132 -319t-332 -134t-331 142t-131 380q1 156 51 288t134 222q158 170 360 239q125 41 305 66l15 -78
q-117 -25 -220 -74q-265 -135 -335 -426l102 47q86 41 121 41z" />
    <glyph glyph-name="seven" unicode="7" horiz-adv-x="1024" 
d="M365 1055q-103 0 -137 -22t-76 -113h-72q40 232 55 356h840l18 -25q-53 -113 -230 -480t-357 -771l-211 -25l-17 27q309 459 623 1053h-436z" />
    <glyph glyph-name="eight" unicode="8" horiz-adv-x="1024" 
d="M311 346q-1 -139 67 -214t153 -75q85 -1 137 61t52 166q-1 104 -81 168q-47 38 -87 62t-134 74q-47 -35 -77 -100t-30 -142zM692 962q0 132 -58 194t-128 63t-112 -55t-42 -139t65 -143t199 -124q76 72 76 204zM529 1300q174 0 278 -90t104 -227q0 -86 -67 -152
q-72 -63 -150 -112q129 -70 201 -151t72 -203q1 -181 -143 -285t-330 -104t-307 94q-122 94 -121 252q0 98 86 180q47 43 188 125q-223 123 -223 317q0 150 119 253t293 103z" />
    <glyph glyph-name="nine" unicode="9" horiz-adv-x="1024" 
d="M686 793q0 241 -86 358q-50 68 -126 68q-77 0 -116 -82t-39 -207t68 -220t176 -96q51 0 113 27q10 70 10 152zM518 1300q213 0 330 -147t117 -393q1 -246 -139 -440q-191 -266 -538 -328q-110 -20 -179 -23l-13 74q221 39 374 183t194 335l-101 -53q-70 -35 -119 -35
q-180 0 -288 110t-107 269q0 159 116 296q56 68 148 110t205 42z" />
    <glyph glyph-name="colon" unicode=":" horiz-adv-x="520" 
d="M262 -25q-66 0 -107 44q-42 44 -42 111t43 111q44 44 108 44t107 -44t43 -112t-43 -111t-109 -43zM113 704q1 68 43 111t106 43t108 -44q42 -44 42 -111t-43 -111t-107 -43q-64 0 -106 44q-43 43 -43 111z" />
    <glyph glyph-name="semicolon" unicode=";" horiz-adv-x="520" 
d="M209 332q84 0 161 -75q76 -75 76 -197t-101 -208q-101 -87 -247 -124l-20 71q180 76 180 199q0 55 -39 96t-110 56q-10 2 -20 22q-9 20 -9 59t38 70t91 31zM113 704q1 68 43 111t106 43t108 -44q42 -44 42 -111t-43 -111t-107 -43q-64 0 -106 44q-43 43 -43 111z" />
    <glyph glyph-name="less" unicode="&#x3c;" horiz-adv-x="1122" 
d="M1018 0l-909 449v139l909 448v-143l-760 -373v-4l760 -373v-143z" />
    <glyph glyph-name="equal" unicode="=" horiz-adv-x="1181" 
d="M1087 266h-991v133h991v-133zM1087 641h-991v133h991v-133z" />
    <glyph glyph-name="greater" unicode="&#x3e;" horiz-adv-x="1122" 
d="M1018 449l-907 -449v143l757 373v4l-757 373v143l907 -448v-139z" />
    <glyph glyph-name="question" unicode="?" horiz-adv-x="817" 
d="M387 -25q-68 0 -112 45t-44 115t45 116t112 46t112 -46t45 -116t-45 -115t-113 -45zM162 688q0 127 198 250q16 10 83 51t85 57q18 17 38 34t20 38q0 76 -95 76t-222 -109q-42 -37 -54 -36q-39 0 -80 44t-41 93t47 90q47 42 116 64t114 22h2q135 0 252 -110t116 -251
q0 -68 -27 -122t-130 -120t-138 -105q-34 -39 -34 -79t57 -112l-47 -49q-98 38 -179 112t-81 162z" />
    <glyph glyph-name="at" unicode="@" horiz-adv-x="1568" 
d="M859 768q-60 0 -105 -49t-73 -136t-33 -183t40 -97q30 0 94 58t121 159q39 111 62 223q-46 25 -106 25zM1370 665q0 199 -136 313t-341 114q-271 0 -447 -186t-174 -470q0 -203 123 -364q131 -174 443 -174q162 0 292 69l27 -63q-180 -109 -397 -109q-274 0 -462 166
q-187 166 -185 467q2 340 233 547t545 207q270 0 432 -153t162 -367q1 -214 -145 -365q-146 -150 -365 -150q-78 0 -97 34t-6 114l17 94l-4 2q-57 -82 -159 -162t-175 -79q-45 0 -76 47t-29 135q4 211 162 375q62 63 162 108t171 45t118 -13t92 -13q-43 -160 -75 -330
t-34 -200q0 -60 37 -56q106 2 199 110q92 109 92 307z" />
    <glyph glyph-name="A" unicode="A" horiz-adv-x="1445" 
d="M799 545l-152 444h-6q-33 -88 -92 -252t-70 -192h320zM1407 0h-586v72q88 14 107 40q18 26 -14 118t-76 206h-394q-51 -145 -73 -219q-27 -73 -5 -103t130 -42v-72h-459v72q102 12 140 47t89 164l420 1052l105 27q362 -990 403 -1096t78 -144t135 -50v-72z" />
    <glyph glyph-name="B" unicode="B" horiz-adv-x="1304" 
d="M518 662v-383q0 -113 34 -154t124 -39t163 75t72 212q0 289 -352 289h-41zM518 743h47q147 1 216 61t69 189t-65 191t-143 63q-78 0 -101 -22q-22 -22 -23 -92v-390zM682 1331q459 1 459 -291q0 -144 -93 -218q-94 -72 -227 -99v-8q393 -47 393 -320q0 -203 -190 -307
q-156 -88 -432 -88h-520v72q120 10 148 42t28 160v783q0 129 -27 161t-137 42v71h598z" />
    <glyph glyph-name="C" unicode="C" horiz-adv-x="1384" 
d="M86 649q0 317 223 515t588 198q123 0 373 -55q31 -186 47 -334l-76 -15q-88 313 -383 314q-213 0 -337 -171t-124 -431t135 -432t347 -172q241 0 401 315l72 -31q-53 -203 -115 -327q-231 -53 -405 -53t-326 58q-152 60 -241 159q-179 199 -179 462z" />
    <glyph glyph-name="D" unicode="D" horiz-adv-x="1558" 
d="M522 1106v-819q0 -115 35 -157t139 -42q209 0 336 159t127 441t-153 432q-125 127 -334 127q-100 1 -125 -25t-25 -116zM84 1331h614q402 0 586 -174t184 -438q0 -354 -256 -549q-225 -170 -620 -170h-526v72q122 10 152 42t30 160v783q0 129 -27 161t-137 42v71z" />
    <glyph glyph-name="E" unicode="E" horiz-adv-x="1189" 
d="M1047 1331q0 -42 20 -307l-76 -10q-33 127 -82 177t-204 50h-99q-57 0 -70 -11t-14 -61v-434h137q133 0 170 25t58 129h74v-412h-74q-19 109 -57 133t-171 23h-137v-357q0 -78 10 -116t39 -51q47 -21 199 -21t212 66t114 200l73 -14q-27 -170 -71 -340h-1045v72
q133 10 164 41t31 159v787q0 131 -27 161t-139 40v71h965z" />
    <glyph glyph-name="F" unicode="F" horiz-adv-x="1134" 
d="M707 1241h-103q-55 0 -67 -11t-13 -61v-452h168q135 1 172 25t54 124h73v-407h-73q-16 104 -54 130t-172 25h-168v-323q0 -143 30 -176t165 -43v-72h-637v72q116 10 142 44t26 175v756q0 137 -27 170t-141 43v71h969q8 -155 22 -313l-72 -12q-33 125 -85 180t-209 55z
" />
    <glyph glyph-name="G" unicode="G" horiz-adv-x="1488" 
d="M1440 637v-72q-78 -16 -96 -41t-19 -125v-163q0 -129 12 -193q-315 -74 -467 -74q-356 1 -568 187t-212 495q0 170 66 307q125 259 436 358q146 46 298 46t410 -57q12 -131 33 -338l-78 -17q-35 166 -139 246t-256 80q-194 0 -326 -161t-132 -417t116 -443
q58 -91 154 -146t196 -55t136 24q47 29 47 115v194q0 61 -4 87t-29 48t-66 29q-41 6 -127 14v72h615z" />
    <glyph glyph-name="H" unicode="H" horiz-adv-x="1603" 
d="M1528 1331v-71q-121 -10 -147 -40t-25 -161v-789q0 -128 26 -158t146 -40v-72h-625v72q123 10 151 41t27 159v381h-559v-381q0 -130 27 -160t141 -40v-72h-610v72q116 10 142 41t26 159v787q0 129 -28 160t-148 41v71h614v-71q-112 -10 -138 -41t-26 -160v-301h559v301
q0 129 -26 160q-27 31 -144 41v71h617z" />
    <glyph glyph-name="I" unicode="I" horiz-adv-x="774" 
d="M692 0h-616v72q116 10 144 42t28 158v785q0 129 -28 161t-144 42v71h616v-71q-118 -10 -144 -41t-26 -162v-785q0 -126 27 -158t143 -42v-72z" />
    <glyph glyph-name="J" unicode="J" horiz-adv-x="749" 
d="M690 1331v-71q-108 -10 -134 -41t-26 -160v-678q0 -209 -40 -345t-168 -241q-113 -96 -250 -127l-31 74q164 70 192 250q23 137 23 397v670q0 129 -29 160t-147 41v71h610z" />
    <glyph glyph-name="K" unicode="K" horiz-adv-x="1439" 
d="M1432 0h-412q-188 260 -404 573q-53 76 -100 70v-369q0 -132 28 -162t148 -40v-72h-612v72q112 10 140 42t28 160v783q0 129 -28 161t-144 42v71h602v-71q-110 -10 -136 -41t-26 -162v-348q70 20 156 108q170 172 286 332q39 47 29 73t-80 33l-37 5v71h533v-71
q-102 -10 -173 -39q-72 -29 -138 -91q-143 -134 -312 -317q197 -293 430 -590q62 -77 110 -109t112 -42v-72z" />
    <glyph glyph-name="L" unicode="L" horiz-adv-x="1128" 
d="M49 0v72q135 10 167 41t32 159v785q0 129 -29 161t-147 42v71h624v-71q-118 -10 -146 -42t-28 -161v-801q0 -74 9 -104t40 -46q47 -18 175 -18t192 70q62 70 111 211l73 -23q-45 -244 -75 -346h-998z" />
    <glyph glyph-name="M" unicode="M" horiz-adv-x="1818" 
d="M1761 0h-606v72q115 12 139 45t25 174l-4 788h-10l-453 -1065h-57l-418 1045h-8l-25 -535q-14 -225 -4 -311t46 -109t142 -32v-72h-493v72q84 8 121 34t47 84q23 115 43 388l33 405q12 174 -16 219t-159 58v71h424l394 -897l401 897h414v-71q-121 -12 -147 -43t-21 -160
l18 -766q4 -141 30 -174t144 -45v-72z" />
    <glyph glyph-name="N" unicode="N" horiz-adv-x="1515" 
d="M1483 1331v-69q-84 -4 -120 -32t-44 -95q-18 -190 -19 -342v-813h-98l-852 1019h-6v-458q0 -170 16 -334q8 -72 48 -102t149 -33v-72h-502v72q86 6 125 34t45 95q20 168 21 340v426q0 106 -6 146t-35 76t-67 51t-105 22v69h379l784 -899h6v361q0 180 -16 337
q-8 68 -50 97t-153 35v69h500z" />
    <glyph glyph-name="O" unicode="O" horiz-adv-x="1568" 
d="M778 1274q-170 0 -273 -156t-103 -423t112 -453q113 -186 303 -187q154 -1 253 147t99 435t-110 462q-111 175 -281 175zM807 1360q285 0 481 -192t197 -502q0 -310 -203 -504t-505 -193q-303 0 -497 198t-194 488q0 289 194 497t527 208z" />
    <glyph glyph-name="P" unicode="P" horiz-adv-x="1226" 
d="M518 1167v-532q97 -40 179 -7q172 62 169 316q0 160 -73 234q-74 74 -181 73q-50 -1 -72 -19t-22 -65zM86 1331h565q244 0 359 -80q152 -102 152 -298t-121 -301q-151 -132 -384 -132l-139 35v-283q0 -128 31 -160t162 -42v-70h-635v70q116 10 144 42t28 160v785
q0 129 -27 161t-135 42v71z" />
    <glyph glyph-name="Q" unicode="Q" horiz-adv-x="1552" 
d="M772 1276q-174 0 -273 -163t-99 -410t87 -422q88 -175 246 -220l168 54q12 -8 53 -39q84 35 150 175t65 370q0 303 -111 479q-112 176 -286 176zM86 653q0 186 79 344t246 261t394 104q285 0 481 -192t197 -488q0 -248 -130 -427t-323 -239q285 -201 473 -297l-16 -55
q-150 -25 -301 17q-168 41 -484 292q-104 5 -228 61t-206 144q-182 199 -182 475z" />
    <glyph glyph-name="R" unicode="R" horiz-adv-x="1349" 
d="M516 655h53q139 0 201 54q98 83 98 239t-71 229q-72 73 -157 73t-104 -19q-19 -18 -20 -78v-498zM555 573h-39v-299q0 -128 29 -160t145 -42v-72h-618v72q116 10 146 44t30 158v787q0 123 -28 156t-140 43v71h575q252 0 367 -76q137 -92 137 -272q0 -231 -256 -334
q72 -143 172 -300t152 -214q64 -65 125 -88l-13 -65l-61 2q-184 8 -268 52t-152 146q-14 25 -168 303q-47 88 -135 88z" />
    <glyph glyph-name="S" unicode="S" horiz-adv-x="1034" 
d="M549 1278q-86 0 -142 -57q-57 -57 -57 -143t56 -142q56 -57 198 -129q178 -86 270 -183t93 -239q-1 -178 -139 -297t-359 -119q-174 0 -330 74q-31 74 -61 346l72 25q39 -118 119 -230q99 -133 251 -133q82 -1 137 59t55 152t-58 156q-60 64 -210 141q-150 78 -241 171
q-90 93 -90 231q0 173 128 287t341 114q125 0 284 -53q4 -43 18 -145t21 -150l-71 -17q-88 281 -285 281z" />
    <glyph glyph-name="T" unicode="T" horiz-adv-x="1312" 
d="M248 1331h823q72 0 117 51h51q5 -157 23 -397l-74 -4q-37 160 -87 210t-212 50h-92v-969q-1 -130 31 -160t169 -40v-72h-667v72q131 10 162 41t30 159v969h-69q-119 0 -165 -13t-71 -42q-43 -43 -86 -207h-76q24 382 25 403h51q23 -33 47 -42t70 -9z" />
    <glyph glyph-name="U" unicode="U" horiz-adv-x="1492" 
d="M1481 1331v-71q-156 -8 -172 -121q-18 -115 -19 -285v-223q0 -354 -145 -508t-377 -154t-367 105q-170 137 -170 483v483q0 141 -27 175q-28 34 -145 45v71h617v-71q-114 -10 -142 -44t-28 -176v-446q0 -234 84 -360t248 -125q350 0 350 526v219q0 162 -21 285
q-10 57 -54 86t-144 35v71h512z" />
    <glyph glyph-name="V" unicode="V" horiz-adv-x="1456" 
d="M1438 1331v-74q-102 -10 -148 -50t-104 -183q-166 -393 -414 -1047h-102q-174 467 -416 1082q-47 119 -87 153t-136 45v74h610v-74q-107 -16 -127 -42t1 -78t302 -785h6q195 514 256 715q39 104 20 140t-141 50v74h480z" />
    <glyph glyph-name="W" unicode="W" horiz-adv-x="2004" 
d="M27 1331h604v-71q-111 -12 -133 -43t6 -109q115 -403 207 -705h4q184 545 295 916h98q172 -469 344 -924h6q113 367 191 692q27 92 0 127t-146 46v71h482v-71q-105 -16 -145 -54t-83 -166q-168 -496 -338 -1063h-106l-336 910h-4l-307 -910h-107q-29 93 -145 479
t-168 552t-90 202t-129 50v71z" />
    <glyph glyph-name="X" unicode="X" horiz-adv-x="1419" 
d="M1434 0h-658v72q94 16 109 44q14 28 -19 74q-12 20 -219 369q-164 -248 -211 -337q-46 -90 -28 -112t122 -38v-72h-514v72q160 18 244 112q188 238 334 455q-248 405 -291 477t-96 103t-156 41v71h617v-71q-78 -16 -94 -39t10 -58q63 -119 184 -309q100 129 184 287
q33 55 16 78t-114 41v71h494v-71q-100 -12 -154 -40t-122 -107q-67 -79 -251 -333q178 -287 340 -538q63 -98 113 -129t160 -41v-72z" />
    <glyph glyph-name="Y" unicode="Y" horiz-adv-x="1341" 
d="M1323 1331v-71q-94 -10 -140 -44t-106 -129q-131 -209 -229 -401q-37 -66 -37 -141v-262q0 -139 30 -171t169 -42v-70h-666v70q133 10 163 43t30 170v227q0 53 -27 113q-70 139 -254 464q-55 97 -96 129t-127 44v71h583v-71q-94 -12 -110 -37t16 -84t70 -133
q39 -74 88 -166t76 -144q186 367 213 434q31 62 9 90t-130 40v71h475z" />
    <glyph glyph-name="Z" unicode="Z" horiz-adv-x="1267" 
d="M348 1331h832l16 -31q-731 -1139 -766 -1196q102 -12 254 -12q291 0 362 66t130 237l67 -16q-45 -283 -74 -379h-1087l-23 35q252 381 781 1204h-258q-146 0 -200 -15t-81 -57q-53 -80 -80 -194l-67 2l22 407h53q23 -33 45 -42t74 -9z" />
    <glyph glyph-name="bracketleft" unicode="[" horiz-adv-x="718" 
d="M618 -332h-378v1774h378v-74q-154 -14 -184 -43t-31 -149v-1246q0 -122 30 -148t185 -40v-74z" />
    <glyph glyph-name="backslash" unicode="\" horiz-adv-x="679" 
d="M623 -92h-144l-422 1454h144z" />
    <glyph glyph-name="bracketright" unicode="]" horiz-adv-x="718" 
d="M479 -332h-379v74q154 14 185 42t30 148v1246q-1 120 -31 148t-184 42v74h379v-1774z" />
    <glyph glyph-name="asciicircum" unicode="^" horiz-adv-x="1144" 
d="M1036 436h-157l-310 686l-311 -686h-149l397 840h133z" />
    <glyph glyph-name="underscore" unicode="_" horiz-adv-x="1024" 
d="M1024 -256h-1024v102h1024v-102z" />
    <glyph glyph-name="grave" unicode="`" 
d="M428 1001l-264 320l8 29q22 14 100 29t109 12q66 -203 111 -363z" />
    <glyph glyph-name="a" unicode="a" horiz-adv-x="954" 
d="M334 293q0 -84 40 -124t83 -40t86 33v327q-73 -44 -113 -63q-96 -49 -96 -133zM338 -25q-123 0 -200 80q-77 81 -77 171t37 132q38 42 92 64q75 30 196 74t157 73v62q0 94 -34 147t-83 53q-49 1 -78 -37t-55 -141q-18 -70 -86 -69q-43 0 -86 32t-43 72q0 41 72 96
q162 111 339 146q121 0 191 -54t94 -118q23 -64 23 -158v-338q0 -121 65 -121q33 0 70 17l20 -66l-223 -117q-78 0 -120 37t-56 82q-180 -119 -215 -119z" />
    <glyph glyph-name="b" unicode="b" horiz-adv-x="1093" 
d="M401 221q-1 -41 11 -69t47 -61q35 -32 78 -34q88 -1 149 97t62 280q0 182 -76 272t-185 91q-43 -1 -86 -15v-561zM608 930q182 0 303 -128t121 -304q0 -223 -154 -373t-378 -150q-164 0 -361 74v1110q0 90 -20 114t-105 30v63q215 25 387 74v-586l76 35q88 41 131 41z
" />
    <glyph glyph-name="c" unicode="c" horiz-adv-x="864" 
d="M59 412q0 113 56 216q55 103 151 175q174 127 346 127h2q115 0 177 -51q41 -27 36 -74q1 -43 -29 -78t-54 -35t-50 23q-121 106 -199 106q-79 -1 -129 -73t-50 -196q-1 -222 110 -312q94 -78 172 -78q121 0 219 84l39 -49q-72 -101 -166 -161t-186 -61q-201 0 -323 130
t-122 307z" />
    <glyph glyph-name="d" unicode="d" horiz-adv-x="1120" 
d="M350 479q0 -170 78 -259t152 -89t125 33v573q-49 106 -150 107q-51 0 -119 -64q-38 -36 -62 -114t-24 -187zM477 -25q-94 1 -186 47t-162 152t-70 250q0 211 162 358t400 148q8 0 84 -10v247q0 83 -22 103t-116 33v63q238 27 400 74v-1182q0 -86 15 -106t81 -29l45 -4
v-66q-301 -51 -403 -80v119l-125 -80q-59 -37 -103 -37z" />
    <glyph glyph-name="e" unicode="e" horiz-adv-x="894" 
d="M527 596q65 0 74 8t9 33q2 83 -33 147t-94 64t-105 -70t-56 -188q140 6 205 6zM61 430q1 203 149 351t316 149h2q138 0 236 -100t98 -230q-4 -66 -59 -74q-102 -16 -490 -32q6 -158 83 -244t199 -86t224 88l35 -49q-82 -125 -183 -176t-186 -52q-199 0 -311 126t-113 329
z" />
    <glyph glyph-name="f" unicode="f" horiz-adv-x="677" 
d="M188 905v45q0 57 27 137q41 129 164 233t254 120q109 -6 168 -62q39 -39 16 -90q-12 -35 -61 -74q-41 -29 -70 0q-100 100 -172 101q-49 0 -63 -51t-5 -287l5 -72h235q6 -18 -1 -53t-28 -45h-206v-586q1 -96 27 -121t140 -34v-66h-557v66q88 10 108 33q19 24 19 122v586
h-133l-10 24l61 74h82z" />
    <glyph glyph-name="g" unicode="g" horiz-adv-x="1007" 
d="M480 -43q-120 0 -161 -47q-42 -47 -43 -98q0 -80 74 -140t190 -59q116 0 182 54t66 138q0 102 -114 136q-74 16 -194 16zM481 854q-49 0 -85 -60t-36 -171t36 -183t106 -71q123 0 123 233q0 108 -36 180t-108 72zM985 -90q0 -162 -169 -286q-170 -124 -366 -124t-295 76
t-100 172q0 61 64 113q20 18 153 102q-98 37 -153 113q-33 53 -29 110q117 49 209 136q-94 32 -147 104t-54 168q0 160 121 248t275 88h2q111 0 219 -53q88 2 297 22l8 -14q-10 -33 -36 -71t-52 -54l-117 10q53 -72 53 -158q0 -152 -114 -236t-275 -83q-25 0 -102 10
q-29 -33 -29 -61t33 -52q33 -25 100 -22l189 4q112 0 204 -45q111 -55 111 -217z" />
    <glyph glyph-name="h" unicode="h" horiz-adv-x="1126" 
d="M1087 0h-481v66q72 10 88 32t17 109v360q0 211 -148 211q-88 0 -147 -57v-514q0 -86 15 -110t79 -31v-66h-485v66q90 10 109 32t20 117v954q0 89 -16 107t-99 29v61q174 23 377 74v-641q131 131 269 131t212 -86t74 -254v-375q0 -94 17 -116t99 -33v-66z" />
    <glyph glyph-name="i" unicode="i" horiz-adv-x="604" 
d="M584 0h-527v66q90 10 111 35q20 26 20 132v406q0 98 -18 122t-94 36v59q195 23 375 74v-697q0 -106 20 -132t113 -35v-66zM160 1204q0 58 43 100t103 42t102 -41t43 -101t-43 -103q-44 -42 -103 -42t-102 43t-43 102z" />
    <glyph glyph-name="j" unicode="j" horiz-adv-x="589" 
d="M453 264q-1 -193 -57 -327q-56 -135 -147 -253t-136 -151t-73 -33t-56 34t-29 84q0 50 49 50q131 6 154 41q32 66 32 531v385q0 106 -19 131t-105 39v61q143 16 387 74v-666zM160 1204q0 58 43 100t103 42t102 -41t43 -101t-43 -103q-44 -42 -103 -42t-102 43t-43 102z
" />
    <glyph glyph-name="k" unicode="k" horiz-adv-x="1050" 
d="M410 440v-221q0 -96 22 -119t113 -34v-66h-527v66q94 12 115 33q20 22 21 120v948q0 86 -20 108t-103 32v59q188 20 379 74v-940q57 12 114 76t125 180q18 33 5 53t-68 29v61l442 19v-62q-182 -33 -250 -100t-151 -174q39 -62 142 -206t153 -202t84 -78q35 -20 90 -30
v-66l-361 -2q-61 74 -264 401q-29 37 -41 39t-20 2z" />
    <glyph glyph-name="l" unicode="l" horiz-adv-x="569" 
d="M553 0h-533v66q92 14 113 37q20 24 21 122v936q0 93 -18 113t-105 31v61q197 25 385 74v-1215q0 -102 20 -126t117 -33v-66z" />
    <glyph glyph-name="m" unicode="m" horiz-adv-x="1726" 
d="M1686 0h-482v66q70 10 87 32t18 117v352q0 203 -144 203q-76 0 -157 -70q4 -45 4 -82v-413q0 -86 17 -108t89 -31v-66h-473v66q74 10 89 29t16 110v373q0 193 -142 192q-74 0 -157 -65v-500q0 -86 16 -108t76 -31v-66h-482v66q90 10 110 31q19 22 19 118v430
q0 90 -16 116t-88 36v59q174 27 360 78v-158q86 63 129 88q103 66 183 66t140 -44t89 -116q29 20 78 54t70 48q84 57 159 58q133 0 205 -86t72 -244v-395q0 -87 17 -107t98 -32v-66z" />
    <glyph glyph-name="n" unicode="n" horiz-adv-x="1159" 
d="M1124 0h-477v66q66 10 81 34t15 131v349q0 193 -141 192q-70 0 -151 -63v-496q0 -94 15 -116t81 -31v-66h-494v66q96 14 116 35q19 22 19 122v426q0 90 -16 112t-92 38v57q178 23 371 78v-150q18 12 60 43q138 102 226 103q125 0 197 -87t72 -241v-387q0 -94 18 -116
t100 -33v-66z" />
    <glyph glyph-name="o" unicode="o" horiz-adv-x="1075" 
d="M520 850q-68 0 -117 -89t-49 -269t58 -309q58 -128 151 -128q72 0 116 74t44 283q-1 210 -53 324t-150 114zM61 432q0 230 150 364q151 134 349 134t327 -135t129 -326q0 -233 -140 -363t-351 -131t-337 137t-127 320z" />
    <glyph glyph-name="p" unicode="p" horiz-adv-x="1120" 
d="M788 438q0 166 -68 251q-69 85 -150 85t-136 -49v-567q31 -31 80 -56t86 -24q84 0 136 97t52 263zM688 930q172 0 271 -118t100 -277q1 -215 -143 -363t-355 -197q-66 0 -127 25v-260q0 -90 26 -113t142 -33v-65h-569v65q96 8 118 32t21 112v919q0 82 -20 105t-99 33v61
q127 20 381 94v-149l141 90q66 39 113 39z" />
    <glyph glyph-name="q" unicode="q" horiz-adv-x="1097" 
d="M552 846q-76 0 -140 -95t-64 -267t87 -277q87 -104 186 -105q40 1 73 17v643q-66 84 -142 84zM1094 -471h-562v65q111 12 137 34t25 114v303l-164 -70q-227 -1 -349 133t-122 304q0 216 170 368t404 150q86 -6 135 -24t84 -17q35 0 100 24l11 -8q-6 -123 -7 -217v-948
q0 -90 20 -113t118 -33v-65z" />
    <glyph glyph-name="r" unicode="r" horiz-adv-x="827" 
d="M451 715h4q129 215 231 215q59 0 98 -37t39 -90q-1 -53 -29 -94t-69 -57t-66 7q-51 43 -94 43q-68 0 -114 -106v-383q1 -94 25 -117t142 -30v-66h-561v66q86 10 109 32t22 115v449q0 76 -18 96t-92 39v57q211 29 373 78v-217z" />
    <glyph glyph-name="s" unicode="s" horiz-adv-x="784" 
d="M414 850q-41 0 -73 -32t-32 -79q1 -90 147 -154t214 -130t67 -176q0 -141 -111 -223q-112 -81 -255 -81q-76 0 -149 22t-109 48q-10 27 -21 116q-10 89 -10 158l59 7q39 -111 110 -191t157 -80q50 0 80 32t30 80t-33 88t-103 74t-101 52t-80 56q-99 77 -99 201t94 207
t228 84q135 1 219 -36q33 -78 49 -234l-61 -18q-92 209 -217 209z" />
    <glyph glyph-name="t" unicode="t" horiz-adv-x="694" 
d="M424 -25q-252 0 -252 258v574h-129l-10 24l57 74h82v150l234 159l28 -14v-295h201q18 -16 15 -51t-27 -47h-189v-506q0 -178 115 -178q49 0 104 24l21 -71l-168 -78q-55 -23 -82 -23z" />
    <glyph glyph-name="u" unicode="u" horiz-adv-x="1136" 
d="M432 313q0 -180 154 -180q74 0 131 57v498q0 72 -11 91t-55 30l-63 14v60q230 8 391 37v-666q0 -80 15 -104t71 -31l45 -4v-66q-147 -21 -375 -74l-18 15v123q-66 -53 -103 -76q-90 -61 -176 -62q-128 0 -198 78t-70 213v424q0 68 -12 88t-54 31l-47 14v60q216 11 381 37
q-6 -86 -6 -310v-297z" />
    <glyph glyph-name="v" unicode="v" horiz-adv-x="952" 
d="M989 905v-65q-77 -14 -107 -40t-63 -100q-92 -207 -299 -723h-80q-262 651 -293 723t-61 100q-30 26 -102 40v65h505v-65q-69 -14 -83 -34t4 -73q143 -387 159 -428q82 207 150 422q20 49 2 75t-100 38v65h368z" />
    <glyph glyph-name="w" unicode="w" horiz-adv-x="1398" 
d="M6 905h506v-65q-88 -14 -106 -34t1 -83q19 -64 61 -202t56 -187h4q6 14 213 561h80q49 -127 234 -565h4q89 278 109 364t0 109t-113 37v65h377v-65q-72 -12 -98 -35t-68 -129t-252 -699h-78q-31 76 -114 272t-126 300l-227 -572h-78q-45 139 -130 391t-113 334t-54 106
t-88 32v65z" />
    <glyph glyph-name="x" unicode="x" horiz-adv-x="987" 
d="M1012 0h-510v66q57 8 67 30t-18 66l-102 178q-25 -34 -64 -100t-43 -74q-26 -43 -14 -65t73 -35v-66h-387v66q84 16 127 42t89 78t171 222l-180 297q-45 75 -77 99t-111 36v65h483v-65q-51 -12 -62 -30t11 -50l96 -160q39 57 101 160q22 35 10 51t-72 29v65h375v-65
q-84 -14 -118 -30t-78 -62q-44 -44 -173 -216l199 -317q49 -78 93 -109t114 -40v-66z" />
    <glyph glyph-name="y" unicode="y" horiz-adv-x="952" 
d="M989 905v-65q-75 -12 -103 -38t-59 -92t-211 -497q-180 -432 -249 -659q-19 -56 -71 -56t-101 40t-49 87t57 82q115 61 156 133t52 107t-10 90q-172 477 -258 676q-29 69 -57 93t-100 34v65h506v-65q-68 -14 -81 -30t1 -67l153 -452q68 168 154 436q16 51 -4 75t-94 38
v65h368z" />
    <glyph glyph-name="z" unicode="z" horiz-adv-x="911" 
d="M403 817q-102 0 -151 -30t-94 -115l-35 -68l-62 27q47 168 82 317h45q23 -45 125 -43h502l19 -28q-68 -115 -451 -787h131q111 0 172 33t119 131l35 57l59 -28q-94 -274 -96 -283h-727l-27 33q170 270 461 784h-107z" />
    <glyph glyph-name="braceleft" unicode="{" horiz-adv-x="731" 
d="M481 313q0 -53 -13 -185t-12 -206t38 -124q37 -52 143 -62v-80q-348 0 -348 287q0 55 8 230t1 211q-8 36 -24 66q-33 60 -157 68l-2 74q130 8 157 62t27 112l-10 395q0 293 348 293v-80q-180 -16 -180 -196l24 -381q0 -203 -186 -238v-8q186 -37 186 -238z" />
    <glyph glyph-name="bar" unicode="|" horiz-adv-x="552" 
d="M362 -512h-172v2048h172v-2048z" />
    <glyph glyph-name="braceright" unicode="}" horiz-adv-x="731" 
d="M96 -344v76q106 12 146 65q39 53 39 121t-14 191q-13 123 -13 196q0 209 186 246v8q-186 37 -186 238q0 73 13 201t14 186q0 172 -185 194v76q250 0 319 -135q30 -59 29 -150l-12 -383q0 -138 80 -172q40 -18 106 -22v-74q-129 -8 -161 -72q-25 -48 -25 -120l12 -389
q0 -281 -348 -281z" />
    <glyph glyph-name="asciitilde" unicode="~" horiz-adv-x="1181" 
d="M811 381q-94 0 -256 86q-98 57 -170 57q-109 0 -188 -151l-91 71q106 209 287 209q100 -1 224 -71t206 -70q100 0 166 147l94 -59q-86 -219 -272 -219z" />
    <glyph glyph-name="uni00A0" unicode="&#xa0;" horiz-adv-x="444" 
 />
    <glyph glyph-name="exclamdown" unicode="&#xa1;" horiz-adv-x="583" 
d="M293 -451q-168 0 -168 91q-1 37 33 219t90 604q2 18 45 18t47 -18q52 -415 86 -601t35 -222q0 -91 -168 -91zM291 938q67 0 111 -45t44 -115t-45 -116t-111 -46t-111 46q-44 46 -44 116t44 115t112 45z" />
    <glyph glyph-name="cent" unicode="&#xa2;" horiz-adv-x="1024" 
d="M551 383v633q-82 -8 -150 -84q-67 -76 -67 -219t62 -225q63 -80 155 -105zM633 10h-82v191q-209 8 -333 129t-124 282q0 236 205 379q115 80 252 101v168h82v-160q14 2 35 2q125 0 196 -47q31 -23 31 -62t-29 -71t-47 -33q-18 0 -41 22q-78 86 -145 99v-641
q151 2 260 102l37 -53q-125 -182 -297 -211v-197z" />
    <glyph glyph-name="sterling" unicode="&#xa3;" horiz-adv-x="1024" 
d="M827 592h-313q2 -10 2 -31q0 -92 -68 -173t-161 -132q129 4 229 -37q211 -90 286 -90t75 48q-1 48 -13 77t4 53q45 57 76 57q58 1 60 -83q0 -133 -177 -263q-104 -74 -209 -73q-68 0 -147 41q-29 14 -80 41t-69 36q-82 45 -138 46q-47 -1 -68 -81q-9 -34 -35 -34t-41 24
q-28 44 27 123q22 33 55 74q34 41 46 57q80 102 80 230q0 51 -6 90h-193v94h178q-16 120 -16 190t47 164t160 174t225 86q127 0 201 -77q36 -43 12 -85t-57 -65q-35 -16 -68 6q-20 20 -34 28q-15 9 -30 20t-23 15t-41 24q-32 18 -77 18q-86 0 -86 -131q0 -76 30 -205
t36 -162h321v-94z" />
    <glyph glyph-name="currency" unicode="&#xa4;" horiz-adv-x="1024" 
d="M731 664q-1 120 -65 198t-164 78t-166 -79t-66 -199t65 -195q65 -76 167 -76t166 76q63 76 63 197zM500 256q-135 0 -226 76l-137 -154l-100 101l145 137q-88 94 -88 249t88 250l-145 138l100 100l139 -154q88 76 224 76h2q133 0 223 -76l137 154l103 -100l-146 -138
q88 -97 88 -251t-88 -248l146 -137l-103 -101l-139 152q-88 -74 -223 -74z" />
    <glyph glyph-name="yen" unicode="&#xa5;" horiz-adv-x="1024" 
d="M1001 1276v-70q-71 -8 -101 -32t-85 -117q-55 -92 -184 -363h256v-86h-271v-133h273v-86h-273v-110q0 -137 29 -169t156 -40v-70h-621v70q123 8 150 40t26 171v108h-274v86h274v133h-274v86h250q-57 152 -148 359q-40 91 -72 117t-100 36v70h506v-70l-49 -10
q-37 -6 -45 -20t4 -46q117 -330 137 -385q117 248 145 322q28 75 22 99q-7 24 -52 32l-53 8v70h374z" />
    <glyph glyph-name="brokenbar" unicode="&#xa6;" horiz-adv-x="552" 
d="M362 -358h-172v716h172v-716zM362 666h-172v716h172v-716z" />
    <glyph glyph-name="section" unicode="&#xa7;" horiz-adv-x="987" 
d="M205 850q1 -154 195 -333t237 -244t49 -154h4q59 98 60 194q4 160 -183 308q-133 106 -215 188q-94 100 -90 201l-4 4q-53 -80 -53 -164zM180 -112q0 22 23 55q50 71 88 47q68 -55 172 -56q47 0 81 25t34 61t-26 71q-26 34 -99 99q-37 39 -117 114t-111 108
q-137 133 -137 313q0 215 162 384t319 208q84 0 148 -55q61 -61 -31 -142q-20 -12 -43 6q-68 55 -170 56q-47 0 -79 -24t-32 -54q0 -61 93 -136t204 -164t167 -176t53 -210q-2 -190 -207 -430q-137 -156 -305 -201q-90 0 -148 45q-39 34 -39 56z" />
    <glyph glyph-name="dieresis" unicode="&#xa8;" 
d="M758 1199q0 -56 -42 -96t-97 -40q-56 0 -97 40t-41 96t41 96q40 40 98 40t98 -40t40 -96zM200 1063q-56 0 -98 40q-41 40 -41 96t41 96q40 40 98 40t98 -40t40 -96t-41 -96t-97 -40z" />
    <glyph glyph-name="copyright" unicode="&#xa9;" horiz-adv-x="1431" 
d="M752 305q-186 -1 -288 105t-104 260q0 154 119 254t287 100q127 0 217 -37q8 -113 23 -182l-54 -12q-32 81 -74 123t-129 42t-146 -79q-58 -80 -58 -208q-1 -128 65 -212t158 -84q133 0 205 160l55 -13q-39 -149 -51 -176q-123 -41 -225 -41zM717 1212q-227 0 -376 -157
q-148 -158 -148 -389q0 -232 148 -390q147 -158 375 -158t377 158q148 158 148 390t-148 390q-149 156 -376 156zM715 1292q270 0 451 -183q182 -183 182 -444t-182 -443t-451 -183q-270 0 -451 182q-180 181 -180 443t180 445q181 183 451 183z" />
    <glyph glyph-name="ordfeminine" unicode="&#xaa;" horiz-adv-x="686" 
d="M244 759q0 -48 24 -71q46 -43 111 -2v186l-78 -38q-57 -27 -57 -75zM219 555q-61 0 -111 50t-51 114q0 96 113 135q8 4 96 34t113 46v33q0 43 -23 69t-57 25q-57 0 -90 -109q-12 -41 -48 -41q-36 1 -65 21t-28 51q0 31 47 64q104 70 231 92q88 0 146 -46t57 -139v-217
q0 -72 43 -71q14 0 47 12l12 -49l-151 -74q-82 0 -117 76q-102 -76 -164 -76z" />
    <glyph glyph-name="guillemotleft" unicode="&#xab;" horiz-adv-x="933" 
d="M844 104l-64 -38q-154 201 -325 395q158 166 325 391l64 -39l-170 -352zM485 104l-65 -38q-143 199 -324 395q164 172 324 391l65 -39l-170 -352z" />
    <glyph glyph-name="logicalnot" unicode="&#xac;" horiz-adv-x="1181" 
d="M1087 207h-151v428h-840v133h991v-561z" />
    <glyph glyph-name="uni00AD" unicode="&#xad;" horiz-adv-x="700" 
d="M618 543l-30 -146h-504l31 146h503z" />
    <glyph glyph-name="registered" unicode="&#xae;" horiz-adv-x="653" 
d="M301 1092h18q20 0 40 13t20 38q0 51 -51 51q-16 0 -22 -5t-5 -22v-75zM301 1055v-45q0 -29 6 -34t33 -7v-31h-143v31q31 2 35 7t6 34v143q0 29 -6 34t-33 7v31h145q102 0 102 -76q0 -51 -57 -72q52 -93 98 -116l-8 -25q-71 0 -99 38t-44 66q-10 14 -27 15h-8zM328 1300
q-92 0 -152 -64q-59 -65 -59 -159t61 -157q60 -64 152 -64t152 64t60 157q0 95 -60 159q-62 64 -154 64zM330 1350q116 0 194 -81t78 -192t-79 -191t-195 -79q-116 0 -193 78q-78 79 -78 191t79 193t194 81z" />
    <glyph glyph-name="macron" unicode="&#xaf;" 
d="M666 1110h-512v147h512v-147z" />
    <glyph glyph-name="degree" unicode="&#xb0;" horiz-adv-x="677" 
d="M487 1094q-1 78 -41 128q-40 52 -106 52t-108 -50q-44 -50 -44 -128t43 -129t109 -51t106 50t41 128zM59 1093q0 121 81 195t198 74t198 -74q80 -74 80 -196t-80 -194q-80 -73 -198 -73q-119 0 -199 73t-80 195z" />
    <glyph glyph-name="plusminus" unicode="&#xb1;" horiz-adv-x="1181" 
d="M1085 0h-989v133h989v-133zM1085 623h-417v-396h-152v396h-420v133h420v370h152v-370h417v-133z" />
    <glyph glyph-name="twosuperior" unicode="&#xb2;" horiz-adv-x="712" 
d="M72 815v53q326 246 325 408q0 63 -31 99q-32 36 -87 36q-86 0 -166 -100l-43 39l71 100q35 43 93 70t116 26q112 0 182 -60t70 -148t-49 -148q-49 -59 -174 -160l-88 -69v-5h184q53 0 75 14t54 66l51 -14q-25 -76 -55 -207h-528z" />
    <glyph glyph-name="threesuperior" unicode="&#xb3;" horiz-adv-x="712" 
d="M625 1069q0 -83 -73 -149t-156 -94q-193 -65 -296 18q-28 30 -14 68t53 63q20 12 45 -6q100 -86 146 -86q98 0 98 133q0 72 -38 106t-91 35q-53 0 -88 -12l-14 59q176 57 176 144q0 36 -26 58t-64 21q-72 0 -144 -79l-37 36l70 93q72 72 184 71h2q100 0 158 -48t57 -108
q1 -60 -39 -90q-40 -32 -108 -63v-4q199 -29 199 -166z" />
    <glyph glyph-name="acute" unicode="&#xb4;" 
d="M418 1001l-64 29q90 307 101 336q14 10 105 20t118 5l12 -23z" />
    <glyph glyph-name="mu" unicode="&#xb5;" horiz-adv-x="1101" 
d="M139 676q0 139 -6 207l262 49q6 -59 6 -234v-352q0 -104 44 -156t109 -51q65 0 124 66v678l260 49v-674q0 -133 76 -133q34 0 63 16l25 -57q-80 -109 -234 -109t-184 142h-4q-121 -141 -228 -141t-161 87h-6v-30q-1 -102 25 -264t48 -240l-30 -29q-46 4 -102 29t-87 57
q-2 20 -2 102l2 453v535z" />
    <glyph glyph-name="paragraph" unicode="&#xb6;" horiz-adv-x="1062" 
d="M741 49q0 -238 -151 -387q-52 -51 -114 -80t-85 -28q-94 0 -151 49q-29 29 -25 63q10 44 41 66t55 10q70 -49 144 -49q73 1 117 67t44 254v277l-143 -64q-16 -4 -35 -4q-114 0 -236 122q-122 121 -122 317t148 329t333 133h410l10 -26l-63 -66l-177 -20v-963z" />
    <glyph glyph-name="periodcentered" unicode="&#xb7;" horiz-adv-x="520" 
d="M416 479q0 -69 -45 -113t-111 -44t-109 44q-45 44 -45 114t44 113q44 44 110 44t111 -44t45 -114z" />
    <glyph glyph-name="cedilla" unicode="&#xb8;" 
d="M563 -272q0 -137 -254 -209l-26 51q57 28 90 62t33 64t-46 66q-43 41 -46 72t34 78l76 88h94l-49 -51q-34 -34 14 -80q80 -80 80 -141z" />
    <glyph glyph-name="onesuperior" unicode="&#xb9;" horiz-adv-x="712" 
d="M592 815h-449v59q78 6 102 31t23 103v315q0 61 -11 79t-60 21l-52 4v60q152 12 324 59v-538q0 -80 23 -104t100 -30v-59z" />
    <glyph glyph-name="ordmasculine" unicode="&#xba;" horiz-adv-x="755" 
d="M365 1069q-39 0 -68 -50q-29 -49 -31 -153t33 -174t88 -69q96 0 102 192q1 119 -31 187t-93 67zM394 1139q134 0 220 -85t84 -215t-94 -208t-238 -78t-231 84q-86 84 -83 211q4 127 106 209t236 82z" />
    <glyph glyph-name="guillemotright" unicode="&#xbb;" horiz-adv-x="933" 
d="M449 811l65 41q158 -215 324 -393q-176 -188 -324 -393l-65 36l169 357zM98 811l64 41q176 -227 325 -393q-172 -184 -325 -393l-64 36l170 357z" />
    <glyph glyph-name="onequarter" unicode="&#xbc;" horiz-adv-x="1605" 
d="M1151 291v264h-2q-80 -102 -191 -264h193zM1450 199h-113v-39q1 -53 21 -76t82 -29v-55h-412v55q78 7 100 27t23 78v39h-317v57q217 293 378 477h125v-442h113v-92zM1266 1272l-832 -1354l-78 59l830 1350zM604 569h-448v60q78 7 102 31t23 102v315q1 61 -11 79t-61 22
l-51 4v59q152 12 323 59v-538q0 -80 23 -104t100 -29v-60z" />
    <glyph glyph-name="onehalf" unicode="&#xbd;" horiz-adv-x="1615" 
d="M901 0v53q326 246 326 410q0 63 -32 99t-87 36q-92 0 -166 -102l-43 41l70 100q35 43 94 70t117 26q112 0 182 -60t68 -165q0 -72 -50 -132t-174 -161l-88 -70v-4h185q53 1 77 15t52 65l53 -14q-25 -76 -55 -207h-529zM1225 1272l-832 -1354l-78 59l830 1350zM586 569
h-449v60q78 7 102 31t23 102v315q0 61 -11 79t-61 22l-51 4v59q152 12 324 59v-538q1 -80 23 -104t100 -29v-60z" />
    <glyph glyph-name="threequarters" unicode="&#xbe;" horiz-adv-x="1615" 
d="M398 637q98 -1 98 135q0 70 -39 106q-62 58 -178 23l-15 60q176 57 176 141q0 36 -26 58t-64 22q-72 0 -143 -80l-37 37l68 90q72 72 186 71h2q98 0 156 -48t59 -105t-37 -87t-110 -65v-4q199 -29 198 -168q0 -83 -72 -149t-156 -94q-82 -28 -136 -27q-54 0 -99 14
q-101 31 -75 99q12 37 51 63q23 12 47 -6q100 -86 146 -86zM1149 291v264h-4q-111 -147 -189 -264h193zM1448 199h-113v-41q1 -53 21 -75t82 -28v-55h-414v55q80 7 102 27t23 76v41h-318v57q217 293 379 477h125v-442h113v-92zM1268 1272l-832 -1354l-78 59l828 1350z" />
    <glyph glyph-name="questiondown" unicode="&#xbf;" horiz-adv-x="817" 
d="M655 223q0 -123 -198 -250q-16 -10 -58 -35q-163 -97 -163 -139q0 -75 97 -75t218 104q41 35 53 35q37 0 78 -44q41 -45 41 -93t-47 -90t-116 -64t-114 -23h-2q-136 0 -252 111t-116 250q0 70 24 119t97 98q167 111 195 157q13 22 14 42q-1 55 -56 123l45 49
q98 -37 179 -112t81 -163zM424 938q68 0 112 -45t44 -115t-45 -116t-112 -46t-112 46t-45 116t45 115t113 45z" />
    <glyph glyph-name="Agrave" unicode="&#xc0;" horiz-adv-x="1445" 
d="M506 1714q177 -123 354 -252l-29 -61l-423 119l-7 24q6 35 42 93t63 77zM799 545l-152 444h-6q-33 -88 -92 -252t-70 -192h320zM1407 0h-586v72q88 14 107 40q18 26 -14 118t-76 206h-394q-51 -145 -73 -219q-27 -73 -5 -103t130 -42v-72h-459v72q102 12 140 47t89 164
l420 1052l105 27q362 -990 403 -1096t78 -144t135 -50v-72z" />
    <glyph glyph-name="Aacute" unicode="&#xc1;" horiz-adv-x="1445" 
d="M1075 1546l-8 -24l-422 -123l-29 57q297 211 355 250q29 -10 65 -66t39 -94zM799 545l-152 444h-6q-33 -88 -92 -252t-70 -192h320zM1407 0h-586v72q88 14 107 40q18 26 -14 118t-76 206h-394q-51 -145 -73 -219q-27 -73 -5 -103t130 -42v-72h-459v72q102 12 140 47
t89 164l420 1052l105 27q362 -990 403 -1096t78 -144t135 -50v-72z" />
    <glyph glyph-name="Acircumflex" unicode="&#xc2;" horiz-adv-x="1445" 
d="M1051 1454l-33 -53q-68 27 -270 125q-184 -92 -269 -125l-33 53q129 104 271 252h63q105 -113 271 -252zM799 545l-152 444h-6q-33 -88 -92 -252t-70 -192h320zM1407 0h-586v72q88 14 107 40q18 26 -14 118t-76 206h-394q-51 -145 -73 -219q-27 -73 -5 -103t130 -42v-72
h-459v72q102 12 140 47t89 164l420 1052l105 27q362 -990 403 -1096t78 -144t135 -50v-72z" />
    <glyph glyph-name="Atilde" unicode="&#xc3;" horiz-adv-x="1445" 
d="M637 1634q43 0 126 -36t133 -36t95 89l62 -33q-66 -201 -191 -201q-41 0 -143 43q-61 31 -113 31t-98 -90l-62 41q70 192 191 192zM799 545l-152 444h-6q-33 -88 -92 -252t-70 -192h320zM1407 0h-586v72q88 14 107 40q18 26 -14 118t-76 206h-394q-51 -145 -73 -219
q-27 -73 -5 -103t130 -42v-72h-459v72q102 12 140 47t89 164l420 1052l105 27q362 -990 403 -1096t78 -144t135 -50v-72z" />
    <glyph glyph-name="Adieresis" unicode="&#xc4;" horiz-adv-x="1445" 
d="M522 1696q58 0 98 -40t40 -96t-42 -96q-41 -40 -97 -41q-56 0 -97 40q-41 41 -41 97t41 96t98 40zM952 1696q58 0 98 -40t40 -96t-41 -96t-97 -41q-56 0 -98 40q-41 41 -41 97t41 96t98 40zM799 545l-152 444h-6q-33 -88 -92 -252t-70 -192h320zM1407 0h-586v72
q88 14 107 40q18 26 -14 118t-76 206h-394q-51 -145 -73 -219q-27 -73 -4 -103t129 -42v-72h-459l2 72q102 12 140 47t89 164l418 1052l105 27q371 -1014 407 -1108t73 -132q38 -38 136 -50v-72z" />
    <glyph glyph-name="Aring" unicode="&#xc5;" horiz-adv-x="1445" 
d="M740 1690q-42 0 -68 -30t-27 -76q0 -46 28 -77q29 -31 69 -31t65 30t25 77t-25 77t-67 30zM737 1767h4q77 0 135 -51t58 -132t-60 -133t-137 -52q-78 0 -136 52t-58 134t58 132t136 50zM801 545l-154 444h-6q-33 -88 -92 -252t-70 -192h322zM1407 0h-586v72q88 14 107 40
q18 26 -6 93q-2 4 -33 93t-51 138h-394q-51 -145 -73 -219q-27 -73 -5 -103t130 -42v-72h-459v72q102 12 140 47t89 164l420 1052l105 27q39 -106 177 -485t202 -548t103 -207q38 -38 134 -50v-72z" />
    <glyph glyph-name="AE" unicode="&#xc6;" horiz-adv-x="1806" 
d="M868 696v529q-20 0 -45 -6q-95 -187 -254 -523h299zM684 0v72q125 10 155 47t29 178v299h-344q-78 -160 -166 -358q-38 -88 -18 -120t133 -46v-72h-502v72q98 12 148 49q49 37 106 141q193 350 463 891q25 49 19 69t-54 25l-121 17l-2 67h1133q6 -121 23 -301l-74 -10
q-35 129 -80 175t-207 46h-106q-57 0 -69 -10t-13 -62v-475h133q137 0 176 25t55 127h76v-414h-76q-16 110 -54 136t-177 28h-133v-311q0 -90 10 -127t41 -52q38 -16 194 -16t213 66q76 79 123 202l68 -18q-27 -166 -76 -340h-1026z" />
    <glyph glyph-name="Ccedilla" unicode="&#xc7;" horiz-adv-x="1384" 
d="M973 -281q0 -133 -256 -217l-35 64q59 28 92 62t33 60t-41 72t-47 72q-6 27 20 66l60 73q-183 7 -323 69t-223 160q-167 198 -167 449q-2 317 222 515t597 198q119 0 189 -14q69 -14 118 -26q49 -11 58 -13q31 -213 45 -334l-76 -19q-53 172 -145 244t-234 72
q-209 0 -334 -168t-125 -430t128 -436t331 -175q260 1 416 316l76 -29q-63 -229 -113 -323q-186 -49 -340 -54l-22 -24q-15 -17 -13 -35t31 -49q78 -90 78 -146z" />
    <glyph glyph-name="Egrave" unicode="&#xc8;" horiz-adv-x="1189" 
d="M383 1714l352 -252l-28 -61l-424 119l-4 24q4 35 39 93q36 58 65 77zM1047 1331q0 -42 20 -307l-76 -10q-33 127 -82 177t-204 50h-99q-57 0 -70 -11t-14 -61v-434h137q133 0 170 25t58 129h74v-412h-74q-19 109 -57 133t-171 23h-137v-354q0 -145 48 -167t200 -24
q152 0 212 66t114 200l73 -14q-27 -170 -71 -340h-1045v72q133 10 164 41t31 159v787q0 131 -27 161t-139 40v71h965z" />
    <glyph glyph-name="Eacute" unicode="&#xc9;" horiz-adv-x="1189" 
d="M932 1546l-8 -22l-422 -125l-29 57q135 98 354 250q29 -10 65 -64t40 -96zM1047 1331q0 -42 20 -307l-76 -10q-33 127 -82 177t-204 50h-99q-57 0 -70 -11t-14 -61v-434h137q133 0 170 25t58 129h74v-412h-74q-19 109 -57 133t-171 23h-137v-354q0 -145 48 -167t200 -24
q152 0 212 66t114 200l73 -14q-27 -170 -71 -340h-1045v72q133 10 164 41t31 159v787q0 131 -27 161t-139 40v71h965z" />
    <glyph glyph-name="Ecircumflex" unicode="&#xca;" horiz-adv-x="1189" 
d="M870 1401q-47 18 -268 125q-225 -106 -270 -125l-31 53q102 82 270 252h62q122 -129 272 -252zM1047 1331q0 -42 20 -307l-76 -10q-33 127 -82 177t-204 50h-99q-57 0 -70 -11t-14 -61v-434h137q133 0 170 25t58 129h74v-412h-74q-19 109 -57 133t-171 23h-137v-354
q0 -145 48 -167t200 -24q152 0 212 66t114 200l73 -14q-27 -170 -71 -340h-1045v72q133 10 164 41t31 159v787q0 131 -27 161t-139 40v71h965z" />
    <glyph glyph-name="Edieresis" unicode="&#xcb;" horiz-adv-x="1189" 
d="M388 1696q58 0 97 -39t39 -96t-40 -97t-97 -41q-57 0 -98 40q-41 41 -41 97t41 96t99 40zM818 1696q58 0 97 -39t39 -96t-40 -97t-97 -41q-57 0 -98 40q-41 41 -41 97t41 96t99 40zM1047 1331q0 -42 20 -307l-76 -10q-33 127 -82 177t-204 50h-99q-57 0 -70 -11t-14 -61
v-434h137q133 0 170 25t58 129h74v-412h-74q-19 109 -57 133t-171 23h-137v-354q0 -145 48 -167t200 -24q152 0 212 66t114 200l73 -14q-27 -170 -71 -340h-1045v72q133 10 164 41t31 159v787q0 131 -27 161t-139 40v71h965z" />
    <glyph glyph-name="Igrave" unicode="&#xcc;" horiz-adv-x="774" 
d="M174 1714q177 -123 354 -252l-28 -61l-424 119l-6 24q6 35 42 93t62 77zM692 0h-616v72q116 10 144 42t28 158v785q0 129 -28 161t-144 42v71h616v-71q-118 -10 -144 -41t-26 -162v-785q0 -126 27 -158t143 -42v-72z" />
    <glyph glyph-name="Iacute" unicode="&#xcd;" horiz-adv-x="774" 
d="M711 1546l-9 -24l-421 -123l-29 57q297 211 354 250q29 -10 65 -66t40 -94zM692 0h-616v72q116 10 144 42t28 158v785q0 129 -28 161t-144 42v71h616v-71q-118 -10 -144 -41t-26 -162v-785q0 -126 27 -158t143 -42v-72z" />
    <glyph glyph-name="Icircumflex" unicode="&#xce;" horiz-adv-x="774" 
d="M688 1454l-33 -53q-68 27 -270 125q-184 -92 -268 -125l-33 53q129 104 270 252h64q104 -113 270 -252zM692 0h-616v72q116 10 144 42t28 158v785q0 129 -28 161t-144 42v71h616v-71q-118 -10 -144 -41t-26 -162v-785q0 -126 27 -158t143 -42v-72z" />
    <glyph glyph-name="Idieresis" unicode="&#xcf;" horiz-adv-x="774" 
d="M172 1696q57 0 97 -40t40 -96t-41 -96t-97 -41q-56 0 -97 40q-41 41 -41 97t41 96t98 40zM598 1696h4q57 0 97 -40t40 -96t-41 -96t-97 -41q-56 0 -97 40q-41 41 -41 97t40 96t95 40zM692 0h-616v72q116 10 144 42t28 158v785q0 129 -28 161t-144 42v71h616v-71
q-116 -10 -142 -41t-26 -162v-785q0 -126 27 -158t141 -42v-72z" />
    <glyph glyph-name="Eth" unicode="&#xd0;" horiz-adv-x="1556" 
d="M545 645v-364q-1 -111 29 -150t135 -39q199 0 327 161t127 443q0 282 -147 432q-113 115 -322 115q-106 0 -131 -29q-18 -16 -18 -100v-366h289v-103h-289zM106 1331h615q385 0 571 -180q178 -164 178 -430q0 -358 -253 -549q-229 -172 -609 -172h-518v70q121 12 151 46
t29 165v364h-192v103h192v303q0 131 -26 166q-27 35 -138 45v69z" />
    <glyph glyph-name="Ntilde" unicode="&#xd1;" horiz-adv-x="1515" 
d="M668 1634q41 0 125 -36t133 -36t96 87l61 -31q-63 -201 -190 -201q-41 0 -143 43q-60 31 -112 31t-99 -90l-62 41q72 192 191 192zM1483 1331v-69q-84 -4 -120 -32t-44 -97q-18 -184 -19 -340v-813h-98l-852 1019h-6v-458q0 -168 16 -332q8 -71 48 -101t149 -36v-72h-502
v72q86 6 125 36t45 93q20 174 21 340v428q0 106 -6 145t-35 75t-67 51t-105 22v69h379l784 -897h6v359q0 180 -16 337q-8 68 -50 97t-153 35v69h500z" />
    <glyph glyph-name="Ograve" unicode="&#xd2;" horiz-adv-x="1568" 
d="M580 1731q177 -129 354 -252l-29 -62l-424 119l-6 25q6 35 42 93t63 77zM778 1274q-170 0 -273 -156t-103 -423t112 -453q113 -186 303 -187q154 -1 253 147t99 435t-110 462q-111 175 -281 175zM807 1360q285 0 481 -192t197 -502q0 -310 -203 -504t-505 -193
q-303 0 -497 198t-194 488q0 289 194 497t527 208z" />
    <glyph glyph-name="Oacute" unicode="&#xd3;" horiz-adv-x="1568" 
d="M1098 1563l-8 -25l-422 -123l-29 58q297 211 354 249q29 -10 65 -65t40 -94zM778 1274q-170 0 -273 -156t-103 -423t112 -453q113 -186 303 -187q154 -1 253 147t99 435t-110 462q-111 175 -281 175zM807 1360q285 0 481 -192t197 -502q0 -310 -203 -504t-505 -193
q-303 0 -497 198t-194 488q0 289 194 497t527 208z" />
    <glyph glyph-name="Ocircumflex" unicode="&#xd4;" horiz-adv-x="1568" 
d="M1085 1470l-32 -53q-68 27 -271 125q-184 -92 -268 -125l-33 53q129 104 271 252h63q104 -113 270 -252zM778 1274q-170 0 -273 -156t-103 -423t112 -453q113 -186 303 -187q154 -1 253 147t99 435t-110 462q-111 175 -281 175zM807 1360q285 0 481 -192t197 -502
q0 -310 -203 -504t-505 -193q-303 0 -497 198t-194 488q0 289 194 497t527 208z" />
    <glyph glyph-name="Otilde" unicode="&#xd5;" horiz-adv-x="1568" 
d="M684 1651q43 0 127 -36t134 -36t93 86l62 -31q-61 -201 -189 -200q-41 0 -143 43q-60 31 -112 31t-99 -91l-61 41q71 193 188 193zM778 1274q-170 0 -273 -156t-103 -423t112 -453q113 -186 303 -187q154 -1 253 147t99 435t-110 462q-111 175 -281 175zM807 1360
q285 0 481 -192t197 -502q0 -310 -203 -504t-505 -193q-303 0 -497 198t-194 488q0 289 194 497t527 208z" />
    <glyph glyph-name="Odieresis" unicode="&#xd6;" horiz-adv-x="1568" 
d="M569 1704q57 0 97 -40t41 -96q0 -56 -41 -96q-42 -40 -98 -40t-97 40t-41 96t41 96t98 40zM999 1704q57 0 97 -40t41 -96q0 -56 -41 -96q-42 -40 -98 -40t-97 40t-41 96t41 96t98 40zM778 1274q-170 0 -273 -156t-103 -423t112 -453q113 -186 303 -187q154 -1 253 147
t99 435t-110 462q-111 175 -281 175zM807 1360q285 0 481 -192t195 -502q0 -310 -202 -504t-504 -193q-303 0 -497 198t-194 488q0 289 194 497t527 208z" />
    <glyph glyph-name="multiply" unicode="&#xd7;" horiz-adv-x="1181" 
d="M1063 125l-102 -105l-371 381l-373 -381l-98 105l368 379l-368 377l98 104l373 -379l371 383l102 -102l-373 -383z" />
    <glyph glyph-name="Oslash" unicode="&#xd8;" horiz-adv-x="1579" 
d="M813 55q164 0 269 151q106 152 106 412t-84 424l-569 -833q47 -74 121 -114t157 -40zM782 1276q-170 0 -282 -159t-111 -409q0 -250 96 -419l572 829q-105 158 -275 158zM1493 686q0 -322 -204 -520t-513 -197q-201 0 -352 90l-117 -165l-63 53l108 157q-122 94 -194 240
t-72 295q0 280 177 494q85 102 227 165q142 64 332 64t341 -90l107 155l65 -47l-100 -157q117 -97 187 -235t71 -302z" />
    <glyph glyph-name="Ugrave" unicode="&#xd9;" horiz-adv-x="1492" 
d="M571 1714q198 -138 355 -252l-29 -61l-424 119l-6 24q6 35 42 93t62 77zM1481 1331v-71q-156 -8 -172 -121q-18 -115 -19 -285v-223q0 -354 -145 -508t-377 -154t-367 105q-170 137 -170 483v483q0 141 -27 175q-28 34 -145 45v71h617v-71q-114 -10 -142 -44t-28 -176
v-446q0 -234 84 -360t248 -125q350 0 350 526v219q0 162 -21 285q-10 57 -54 86t-144 35v71h512z" />
    <glyph glyph-name="Uacute" unicode="&#xda;" horiz-adv-x="1492" 
d="M1112 1546l-8 -24l-422 -123l-29 57q297 211 355 250q28 -10 64 -66t40 -94zM1481 1331v-71q-156 -8 -172 -121q-18 -115 -19 -285v-223q0 -354 -145 -508t-377 -154t-367 105q-170 137 -170 483v483q0 141 -27 175q-28 34 -145 45v71h617v-71q-114 -10 -142 -44
t-28 -176v-446q0 -234 84 -360t248 -125q350 0 350 526v219q0 162 -21 285q-10 57 -54 86t-144 35v71h512z" />
    <glyph glyph-name="Ucircumflex" unicode="&#xdb;" horiz-adv-x="1492" 
d="M1090 1454l-33 -53q-68 27 -271 125q-184 -92 -268 -125l-33 53q129 104 271 252h63q105 -113 271 -252zM1481 1331v-71q-156 -8 -172 -121q-18 -115 -19 -285v-223q0 -354 -145 -508t-377 -154t-367 105q-170 137 -170 483v483q0 141 -27 175q-28 34 -145 45v71h617v-71
q-114 -10 -142 -44t-28 -176v-446q0 -234 84 -360t248 -125q350 0 350 526v219q0 162 -21 285q-10 57 -54 86t-144 35v71h512z" />
    <glyph glyph-name="Udieresis" unicode="&#xdc;" horiz-adv-x="1492" 
d="M571 1696q57 0 97 -40t41 -96q0 -56 -41 -96q-42 -40 -98 -41q-56 0 -97 40q-41 41 -41 97t41 96t98 40zM1001 1696q57 0 97 -40t41 -96q0 -56 -41 -96q-42 -40 -98 -41q-56 0 -97 40q-41 41 -41 97t41 96t98 40zM1481 1331v-71q-156 -8 -172 -121q-18 -115 -19 -285
v-223q0 -354 -145 -508t-377 -154t-367 105q-170 137 -170 483v483q0 141 -27 175q-28 34 -145 45v71h617v-71q-114 -10 -142 -44t-28 -176v-446q0 -234 84 -360t248 -125q350 0 350 526v219q0 162 -21 285q-10 57 -54 86t-144 35v71h512z" />
    <glyph glyph-name="Yacute" unicode="&#xdd;" horiz-adv-x="1341" 
d="M1044 1546l-8 -24l-424 -123l-28 57q135 98 354 250q28 -10 64 -64t42 -96zM1323 1331v-71q-94 -10 -140 -44q-97 -73 -335 -530q-37 -72 -37 -141v-262q0 -139 31 -171t168 -42v-70h-666v70q133 10 163 43t30 170v227q0 53 -27 113q-70 139 -254 464q-55 97 -96 129
t-127 44v71h583v-71q-94 -12 -110 -37t16 -84t70 -133q39 -74 88 -166t76 -144q186 367 213 434q31 62 9 90t-130 40v71h475z" />
    <glyph glyph-name="Thorn" unicode="&#xde;" horiz-adv-x="1214" 
d="M516 885v-465q33 -16 78 -16t81 12q175 61 175 274q0 141 -71 206t-175 65q-52 -1 -70 -17t-18 -59zM676 1331v-71q-106 -12 -133 -46t-27 -172q57 2 168 2q461 0 461 -356q0 -172 -128 -277t-345 -108l-156 33v-92q0 -100 33 -130t156 -42v-72h-625v72q112 8 140 42
t28 146v815q0 113 -26 144t-130 41v71h584z" />
    <glyph glyph-name="germandbls" unicode="&#xdf;" horiz-adv-x="1171" 
d="M190 905v23q0 98 37 184q57 136 189 230t268 100q172 -2 267 -92t96 -228q0 -41 -21 -63q-94 -70 -138 -124q-73 -90 -22 -184q20 -38 40 -60t73 -73q143 -135 143 -275t-128 -254t-273 -114q-70 0 -122 32t-33 76t44 62t43 2q82 -72 158 -71q33 0 61 28t27 84
q0 96 -100 200q-101 104 -143 166t-42 120t12 82l18 36q5 12 23 32q17 19 37 43t48 48l71 72q10 16 11 68q2 113 -63 201t-157 87q-114 0 -140 -161q-21 -132 -21 -324v-643q0 -88 14 -113t68 -34v-68h-472v68q86 8 107 32q20 25 20 113v588h-127l-10 26l56 78h81z" />
    <glyph glyph-name="agrave" unicode="&#xe0;" horiz-adv-x="954" 
d="M489 1001q-36 44 -264 320l8 29q23 14 101 29t108 12q66 -203 111 -363zM334 293q0 -84 40 -124t83 -40t86 33v327q-73 -44 -113 -63q-96 -49 -96 -133zM338 -25q-123 0 -200 80q-77 81 -77 171t37 132q38 42 92 64q75 30 196 74t157 73v62q0 94 -34 147t-83 53
q-49 1 -78 -37t-55 -141q-18 -70 -86 -69q-43 0 -86 32t-43 72q0 41 72 96q162 111 339 146q121 0 191 -54t94 -118q23 -64 23 -158v-338q0 -121 65 -121q33 0 70 17l20 -66l-223 -117q-78 0 -120 37t-56 82q-180 -119 -215 -119z" />
    <glyph glyph-name="aacute" unicode="&#xe1;" horiz-adv-x="954" 
d="M446 1001l-63 29q90 307 100 336q13 10 105 20t119 5l12 -23zM334 293q0 -84 40 -124t83 -40t86 33v327q-73 -44 -113 -63q-96 -49 -96 -133zM338 -25q-123 0 -200 80q-77 81 -77 171t37 132q38 42 92 64q75 30 196 74t157 73v62q0 94 -34 147t-83 53q-49 1 -78 -37
t-55 -141q-18 -70 -86 -69q-43 0 -86 32t-43 72q0 41 72 96q162 111 339 146q121 0 191 -54t94 -118q23 -64 23 -158v-338q0 -121 65 -121q33 0 70 17l20 -66l-223 -117q-78 0 -120 37t-56 82q-180 -119 -215 -119z" />
    <glyph glyph-name="acircumflex" unicode="&#xe2;" horiz-adv-x="954" 
d="M664 991q-32 26 -203 189q-14 -12 -71 -70t-130 -119l-55 45q117 174 217 355h78q94 -173 221 -355zM334 293q0 -84 40 -124t83 -40t86 33v327q-73 -44 -113 -63q-96 -49 -96 -133zM338 -25q-123 0 -200 80q-77 81 -77 171t37 132q38 42 92 64q75 30 196 74t157 73v62
q0 94 -34 147t-83 53q-49 1 -78 -37t-55 -141q-18 -70 -86 -69q-43 0 -86 32t-43 72q0 41 72 96q162 111 339 146q121 0 191 -54t94 -118q23 -64 23 -158v-338q0 -121 65 -121q33 0 70 17l20 -66l-223 -117q-78 0 -120 37t-56 82q-180 -119 -215 -119z" />
    <glyph glyph-name="atilde" unicode="&#xe3;" horiz-adv-x="954" 
d="M602 1219q53 0 103 96l57 -31q-63 -217 -178 -217q-51 0 -138 45q-70 41 -114 41q-62 0 -107 -104l-59 38q70 215 190 216q47 0 128 -42t118 -42zM334 293q0 -84 40 -124t83 -40t86 33v327q-73 -44 -113 -63q-96 -49 -96 -133zM338 -25q-123 0 -200 80q-77 81 -77 171
t37 132q38 42 92 64q75 30 196 74t157 73v62q0 94 -34 147t-83 53q-49 1 -78 -37t-55 -141q-18 -70 -86 -69q-43 0 -86 32t-43 72q0 41 72 96q162 111 339 146q121 0 191 -54t94 -118q23 -64 23 -158v-338q0 -121 65 -121q33 0 70 17l20 -66l-223 -117q-78 0 -120 37t-56 82
q-180 -119 -215 -119z" />
    <glyph glyph-name="adieresis" unicode="&#xe4;" horiz-adv-x="954" 
d="M671 1063q-56 0 -98 40q-41 40 -41 96t41 96t99 40t97 -40q40 -40 40 -96t-41 -96t-97 -40zM250 1063q-57 0 -98 40t-41 96t42 96t98 40t96 -39t40 -96t-40 -97t-97 -40zM334 292q0 -83 40 -123t81 -40t88 33v327q-15 -7 -53 -29t-60 -34q-96 -51 -96 -134zM340 -25
q-125 0 -202 80q-77 81 -77 171t37 132q38 42 94 64t150 56q163 60 201 91v62q0 94 -34 147t-83 53q-49 1 -78 -37t-55 -141q-18 -70 -86 -69q-43 0 -85 32t-42 73q0 42 70 95q168 113 339 146q117 0 201 -60q61 -48 84 -112t23 -158v-338q0 -121 65 -121q33 0 70 17l20 -66
l-223 -117q-127 0 -178 119q-180 -119 -211 -119z" />
    <glyph glyph-name="aring" unicode="&#xe5;" horiz-adv-x="954" 
d="M466 1102q40 0 64 30t25 76q0 46 -25 76q-24 29 -64 29t-68 -30t-28 -76q0 -45 28 -75t68 -30zM463 1022q-78 0 -136 52q-59 52 -59 135t60 134t136 51q77 0 136 -50q59 -52 59 -135t-59 -135t-137 -52zM334 292q0 -83 40 -123t83 -40t86 33v327q-70 -41 -113 -63
q-96 -51 -96 -134zM338 -25q-123 0 -200 80q-77 81 -77 171t37 132q38 42 92 64q75 30 196 74t157 73v62q0 94 -34 147t-83 53q-49 1 -78 -37t-55 -141q-18 -70 -86 -69q-43 0 -86 32t-43 72q0 41 72 96q162 111 339 146q121 0 191 -54t94 -118q23 -64 23 -158v-338
q0 -121 65 -121q33 0 70 17l20 -66l-221 -117q-76 0 -120 37t-58 82q-180 -119 -215 -119z" />
    <glyph glyph-name="ae" unicode="&#xe6;" horiz-adv-x="1374" 
d="M463 137q82 0 137 72q-47 109 -47 285q-82 -41 -125 -66q-94 -55 -94 -134t40 -118t89 -39zM956 844q-59 0 -105 -71t-56 -191q267 0 282 13q14 13 15 42q0 79 -38 143t-98 64zM555 625q0 92 -41 148t-87 56q-46 -1 -75 -35t-53 -137q-20 -70 -88 -69q-39 0 -83 30
t-44 75q0 44 74 93q156 104 336 144q94 0 163 -51q55 -35 74 -78q57 59 132 94t141 35q143 0 241 -102t98 -230q0 -37 -12 -53q-12 -15 -57 -27t-490 -31q-2 -161 79 -245t199 -84t228 86l39 -51q-82 -119 -183 -168t-177 -50q-225 0 -334 172l-62 -51q-141 -121 -249 -121
t-185 79q-76 79 -76 167t37 136t97 71t185 67q124 44 173 78v52z" />
    <glyph glyph-name="ccedilla" unicode="&#xe7;" horiz-adv-x="864" 
d="M627 -284q0 -60 -66 -115t-186 -93l-31 58q127 68 127 123q0 33 -41 73q-39 43 -44 70t24 64l63 79q-188 13 -300 135t-112 300q0 113 56 216q55 103 153 175q174 129 346 129q115 0 183 -51q33 -25 31 -68t-32 -81t-54 -38t-48 23q-111 104 -209 104q-67 0 -117 -74
q-50 -75 -50 -241t94 -256q96 -90 195 -90t212 90l39 -49q-127 -180 -305 -213l-29 -39q-25 -27 29 -82q72 -89 72 -149z" />
    <glyph glyph-name="egrave" unicode="&#xe8;" horiz-adv-x="894" 
d="M496 1001l-265 320l9 29q22 14 100 29t109 12q65 -203 110 -363zM527 596q65 0 74 8t9 33q2 83 -33 147t-94 64t-105 -70t-56 -188q140 6 205 6zM61 430q1 203 149 351t316 149h2q138 0 236 -100t98 -230q-4 -66 -59 -74q-102 -16 -490 -32q6 -158 83 -244t199 -86
t224 88l35 -49q-82 -125 -183 -176t-186 -52q-199 0 -311 126t-113 329z" />
    <glyph glyph-name="eacute" unicode="&#xe9;" horiz-adv-x="894" 
d="M477 1001l-63 29q90 307 100 336q14 10 106 20t117 5l13 -23zM527 596q65 0 74 8t9 33q2 83 -33 147t-94 64t-105 -70t-56 -188q140 6 205 6zM61 430q1 203 149 351t316 149h2q138 0 236 -100t98 -230q-4 -66 -59 -74q-102 -16 -490 -32q6 -158 83 -244t199 -86t224 88
l35 -49q-82 -125 -183 -176t-186 -52q-199 0 -311 126t-113 329z" />
    <glyph glyph-name="ecircumflex" unicode="&#xea;" horiz-adv-x="894" 
d="M735 1036l-57 -45q-50 42 -116 106t-87 83q-14 -12 -67 -67t-134 -122l-55 45q117 174 217 355h78q94 -173 221 -355zM527 596q65 0 74 8t9 33q2 83 -33 147t-94 64t-105 -70t-56 -188q140 6 205 6zM61 430q1 203 149 351t316 149h2q138 0 236 -100t98 -230
q-4 -66 -59 -74q-102 -16 -490 -32q6 -158 83 -244t199 -86t224 88l35 -49q-82 -125 -183 -176t-186 -52q-199 0 -311 126t-113 329z" />
    <glyph glyph-name="edieresis" unicode="&#xeb;" horiz-adv-x="894" 
d="M684 1063q-57 0 -98 40t-41 96t41 96t98 40t97 -39t40 -96t-40 -97t-97 -40zM261 1063q-56 0 -97 40t-41 96t41 96t98 40t97 -40t40 -96t-41 -96t-97 -40zM610 637q0 83 -34 147t-93 64t-105 -70t-54 -188q261 0 274 11q12 11 12 36zM61 414q0 223 152 370
q145 145 313 146h2q138 0 236 -100t98 -230q-4 -66 -61 -74q-102 -16 -488 -32q6 -158 83 -244t198 -86t223 88l37 -49q-82 -125 -183 -176t-186 -52q-199 0 -311 126t-113 313z" />
    <glyph glyph-name="igrave" unicode="&#xec;" horiz-adv-x="604" 
d="M313 1001q-36 44 -264 320l8 29q23 14 101 29t108 12q66 -203 111 -363zM580 0h-521v68q86 8 108 38t21 144v389q0 94 -16 119t-96 37v61q197 23 375 74v-680q0 -117 18 -144t111 -38v-68z" />
    <glyph glyph-name="iacute" unicode="&#xed;" horiz-adv-x="604" 
d="M301 1001l-63 29q90 307 100 336q14 10 105 20t118 5l12 -23zM580 0h-521v68q86 8 108 38t21 144v389q0 94 -16 119t-96 37v61q197 23 375 74v-680q0 -117 18 -144t111 -38v-68z" />
    <glyph glyph-name="icircumflex" unicode="&#xee;" horiz-adv-x="604" 
d="M502 991q-32 26 -203 189q-14 -12 -67 -67t-134 -122l-55 45q117 174 217 355h78q94 -173 221 -355zM580 0h-521v68q86 8 108 38t21 144v389q0 94 -16 119t-96 37v61q197 23 375 74v-680q0 -117 18 -144t111 -38v-68z" />
    <glyph glyph-name="idieresis" unicode="&#xef;" horiz-adv-x="604" 
d="M507 1063q-56 0 -97 40t-41 96t41 96t98 40t97 -40t40 -96t-41 -96t-97 -40zM85 1063q-56 0 -97 40t-41 96t41 96t98 40t97 -40t40 -96t-41 -96t-97 -40zM582 0h-521v68q86 8 108 38t21 144v389q0 94 -17 119t-97 37v61q199 23 377 74v-680q0 -117 18 -144t111 -38v-68z
" />
    <glyph glyph-name="eth" unicode="&#xf0;" horiz-adv-x="1069" 
d="M539 850q-78 0 -132 -92q-53 -92 -55 -276t51 -303q53 -120 146 -120q164 0 168 412q4 239 -48 309t-130 70zM995 551q0 -291 -135 -433t-345 -142t-334 138q-124 140 -120 328q1 224 147 356t345 132h2q47 0 100 -19q-31 109 -114 217l-297 -149l-39 76l280 137
q-147 147 -340 178q-12 12 -5 37t24 33q252 -14 465 -164l284 145l41 -78l-254 -129q295 -272 295 -663z" />
    <glyph glyph-name="ntilde" unicode="&#xf1;" horiz-adv-x="1159" 
d="M721 1219q53 0 102 96l58 -31q-63 -217 -179 -217q-53 0 -139 45q-70 41 -114 41q-62 0 -107 -104l-57 38q70 215 190 216q47 0 128 -42t118 -42zM1124 0h-477v66q66 10 81 34t15 131v349q0 193 -141 192q-70 0 -151 -63v-496q0 -94 15 -116t81 -31v-66h-494v66
q96 14 116 35q19 22 19 122v426q0 90 -16 112t-92 38v57q178 23 371 78v-150q18 12 60 43q138 102 226 103q125 0 197 -87t72 -241v-387q0 -94 18 -116t100 -33v-66z" />
    <glyph glyph-name="ograve" unicode="&#xf2;" horiz-adv-x="1075" 
d="M547 1001l-264 320l8 29q23 14 101 29t108 12q65 -203 110 -363zM520 850q-68 0 -117 -89t-49 -269t58 -309q58 -128 151 -128q72 0 116 74t44 283q-1 210 -53 324t-150 114zM61 432q0 230 150 364q151 134 349 134t327 -135t129 -326q0 -233 -140 -363t-351 -131
t-337 137t-127 320z" />
    <glyph glyph-name="oacute" unicode="&#xf3;" horiz-adv-x="1075" 
d="M532 1001l-63 29q90 307 100 336q13 10 105 20t119 5l12 -23zM520 850q-68 0 -117 -89t-49 -269t58 -309q58 -128 151 -128q72 0 116 74t44 283q-1 210 -53 324t-150 114zM61 432q0 230 150 364q151 134 349 134t327 -135t129 -326q0 -233 -140 -363t-351 -131t-337 137
t-127 320z" />
    <glyph glyph-name="ocircumflex" unicode="&#xf4;" horiz-adv-x="1075" 
d="M737 991q-24 20 -202 189q-14 -12 -65 -65t-136 -124l-55 45q117 174 217 355h77q95 -173 222 -355zM520 850q-68 0 -117 -89t-49 -269t58 -309q58 -128 151 -128q72 0 116 74t44 283q-1 210 -53 324t-150 114zM61 432q0 230 150 364q151 134 349 134t327 -135t129 -326
q0 -233 -140 -363t-351 -131t-337 137t-127 320z" />
    <glyph glyph-name="otilde" unicode="&#xf5;" horiz-adv-x="1075" 
d="M672 1219q53 0 102 96l57 -31q-63 -217 -178 -217q-51 0 -137 45q-70 41 -115 41q-61 0 -106 -104l-59 38q70 215 190 216q47 0 128 -42t118 -42zM520 850q-68 0 -117 -89t-49 -269t58 -309q58 -128 151 -128q72 0 116 74t44 283q-1 210 -53 324t-150 114zM61 432
q0 230 150 364q151 134 349 134t327 -135t129 -326q0 -233 -140 -363t-351 -131t-337 137t-127 320z" />
    <glyph glyph-name="odieresis" unicode="&#xf6;" horiz-adv-x="1075" 
d="M887 1199q1 -56 -41 -96t-98 -40t-97 40t-41 96t41 96t99 40t97 -40q40 -40 40 -96zM328 1063q-57 0 -99 40q-41 40 -41 96t42 96t98 40t97 -39q40 -39 40 -96t-40 -97t-97 -40zM520 850q-70 0 -119 -89t-49 -269t58 -308q58 -129 153 -129q72 0 116 74t44 283
q-1 210 -53 324t-150 114zM59 432q0 230 151 364q152 134 350 134t327 -135t129 -326q0 -233 -140 -363t-351 -131t-339 137t-127 320z" />
    <glyph glyph-name="divide" unicode="&#xf7;" horiz-adv-x="1181" 
d="M591 326q50 0 87 -37t37 -86t-38 -87t-87 -38t-85 38t-36 88t36 86t86 36zM1087 453h-991v133h991v-133zM596 715q-49 0 -86 37t-37 86t38 87t86 38t85 -38t37 -88t-37 -86t-86 -36z" />
    <glyph glyph-name="oslash" unicode="&#xf8;" horiz-adv-x="1087" 
d="M563 57q193 0 193 373q0 136 -35 232l-315 -484q59 -121 157 -121zM334 513q0 -155 35 -253l313 479q-59 106 -156 107q-70 0 -131 -89t-61 -244zM1026 471q0 -234 -142 -365t-341 -131q-129 0 -242 56l-72 -105l-59 47l70 103q-86 63 -132 158t-47 198q0 226 152 362
t342 136q123 0 223 -53l72 102l57 -43l-67 -100q186 -131 186 -365z" />
    <glyph glyph-name="ugrave" unicode="&#xf9;" horiz-adv-x="1136" 
d="M578 1001q-239 291 -265 320l11 27q20 16 97 30t109 11q64 -199 111 -361zM432 313q0 -180 154 -180q74 0 131 57v498q0 72 -11 91t-55 30l-63 14v60q230 8 391 37v-666q0 -80 15 -104t71 -31l45 -4v-66q-147 -21 -375 -74l-18 15v123q-66 -53 -103 -76q-90 -61 -176 -62
q-128 0 -198 78t-70 213v424q0 68 -12 88t-54 31l-47 14v60q216 11 381 37q-6 -86 -6 -310v-297z" />
    <glyph glyph-name="uacute" unicode="&#xfa;" horiz-adv-x="1136" 
d="M553 1001l-64 27q96 324 101 338q14 10 104 19t117 4l12 -21zM432 313q0 -180 154 -180q74 0 131 57v498q0 72 -11 91t-55 30l-63 14v60q230 8 391 37v-666q0 -80 15 -104t71 -31l45 -4v-66q-147 -21 -375 -74l-18 15v123q-66 -53 -103 -76q-90 -61 -176 -62
q-128 0 -198 78t-70 213v424q0 68 -12 88t-54 31l-47 14v60q216 11 381 37q-6 -86 -6 -310v-297z" />
    <glyph glyph-name="ucircumflex" unicode="&#xfb;" horiz-adv-x="1136" 
d="M559 1180q-131 -131 -201 -189l-55 45q109 158 217 355h76q110 -195 221 -355l-57 -45q-39 31 -201 189zM432 313q0 -180 154 -180q74 0 131 57v498q0 72 -11 91t-55 30l-63 14v60q230 8 391 37v-666q0 -80 15 -104t71 -31l45 -4v-66q-147 -21 -375 -74l-18 15v123
q-66 -53 -103 -76q-90 -61 -176 -62q-128 0 -198 78t-70 213v424q0 68 -12 88t-54 31l-47 14v60q216 11 381 37q-6 -86 -6 -310v-297z" />
    <glyph glyph-name="udieresis" unicode="&#xfc;" horiz-adv-x="1136" 
d="M761 1063q-56 0 -97 40t-41 96t41 96t98 40t97 -40t40 -96t-41 -96t-97 -40zM342 1063q-57 0 -98 40t-41 96t42 96t99 40t96 -39t39 -96t-40 -97t-97 -40zM432 313q0 -180 154 -180q74 0 131 57v498q0 72 -11 91t-55 30l-63 14v60q230 8 391 37v-666q0 -80 15 -104
t71 -31l45 -4v-66q-147 -21 -375 -74l-18 15v123q-66 -53 -103 -76q-90 -61 -176 -62q-128 0 -198 78t-70 213v424q0 68 -12 88t-54 31l-47 14v60q216 11 381 37q-6 -86 -6 -310v-297z" />
    <glyph glyph-name="yacute" unicode="&#xfd;" horiz-adv-x="952" 
d="M512 1001l-63 29q90 307 100 336q14 10 105 20t118 5l12 -23zM989 905v-65q-75 -12 -103 -38t-59 -92t-211 -497q-180 -432 -249 -659q-19 -56 -71 -56t-101 40t-49 87t57 82q115 61 156 133t52 107t-10 90q-172 477 -258 676q-29 69 -57 93t-100 34v65h506v-65
q-68 -14 -81 -30t1 -67l153 -452q68 168 154 436q16 51 -4 75t-94 38v65h368z" />
    <glyph glyph-name="thorn" unicode="&#xfe;" horiz-adv-x="1101" 
d="M570 76q76 0 142 93q64 93 64 264t-74 258t-165 87q-49 0 -127 -35v-591q84 -76 160 -76zM1042 530q0 -213 -145 -361t-356 -194q-66 0 -131 25v-229q0 -109 28 -139t150 -38v-65h-574v65q90 8 112 34t21 134v1391q0 90 -20 117t-111 37v59q206 21 394 74v-621
q121 66 170 88t92 23q174 0 272 -121t98 -279z" />
    <glyph glyph-name="ydieresis" unicode="&#xff;" horiz-adv-x="952" 
d="M710 1063q-56 0 -98 40q-41 40 -41 96t41 96q40 40 98 40t98 -40t40 -96t-41 -96t-97 -40zM290 1063q-56 0 -97 40t-41 96t41 96t98 40t97 -40t40 -96t-41 -96t-97 -40zM989 905v-65q-75 -12 -103 -38t-59 -92t-211 -497q-180 -432 -249 -659q-19 -56 -71 -56t-101 40
t-49 87t57 82q115 61 156 133t52 107t-10 90q-172 477 -258 676q-29 69 -57 93t-100 34v65h506v-65q-68 -14 -81 -30t1 -67l153 -452q68 168 154 436q16 51 -4 75t-94 38v65h368z" />
    <glyph glyph-name="Amacron" unicode="&#x100;" horiz-adv-x="1445" 
d="M993 1456h-501v139h501v-139zM799 545l-152 444h-6q-33 -88 -92 -252t-70 -192h320zM1407 0h-586v72q88 14 107 40q18 26 -14 118t-76 206h-394q-51 -145 -73 -219q-27 -73 -5 -103t130 -42v-72h-459v72q102 12 140 47t89 164l420 1052l105 27q362 -990 403 -1096
t78 -144t135 -50v-72z" />
    <glyph glyph-name="amacron" unicode="&#x101;" horiz-adv-x="954" 
d="M702 1110h-512v147h512v-147zM334 293q0 -84 40 -124t83 -40t86 33v327q-73 -44 -113 -63q-96 -49 -96 -133zM338 -25q-123 0 -200 80q-77 81 -77 171t37 132q38 42 92 64q75 30 196 74t157 73v62q0 94 -34 147t-83 53q-49 1 -78 -37t-55 -141q-18 -70 -86 -69
q-43 0 -86 32t-43 72q0 41 72 96q162 111 339 146q121 0 191 -54t94 -118q23 -64 23 -158v-338q0 -121 65 -121q33 0 70 17l20 -66l-223 -117q-78 0 -120 37t-56 82q-180 -119 -215 -119z" />
    <glyph glyph-name="Abreve" unicode="&#x102;" horiz-adv-x="1445" 
d="M742 1415q-260 0 -261 281h62q29 -133 199 -133t200 133h62q-2 -281 -262 -281zM799 545l-152 444h-6q-33 -88 -92 -252t-70 -192h320zM1407 0h-586v72q88 14 107 40q18 26 -14 118t-76 206h-394q-51 -145 -73 -219q-27 -73 -5 -103t128 -42v-72h-457v72q102 12 140 47
t89 164l418 1052l107 27q55 -148 186 -510t195 -527t101 -203q38 -38 134 -50v-72z" />
    <glyph glyph-name="abreve" unicode="&#x103;" horiz-adv-x="954" 
d="M702 1352q0 -315 -251 -316q-248 0 -248 316h67q32 -160 182 -160t185 160h65zM334 293q0 -84 40 -124t81 -40t88 33v327q-15 -7 -53 -29t-60 -34q-96 -49 -96 -133zM338 -25q-123 0 -200 80q-77 81 -77 171t37 132q38 42 94 64t150 56q163 60 201 91v62q0 96 -34 148
t-83 52t-76 -36q-33 -39 -59 -142q-18 -70 -84 -69q-43 0 -85 32t-42 73q0 42 70 95q162 111 339 146q121 0 191 -54t94 -118q23 -64 23 -158v-338q0 -121 65 -121q33 0 70 17l20 -66l-223 -117q-127 0 -178 119q-180 -119 -213 -119z" />
    <glyph glyph-name="Aogonek" unicode="&#x104;" horiz-adv-x="1445" 
d="M799 543l-150 444h-6q-154 -414 -164 -444h320zM1407 0h-420q-45 -38 -80 -106t-35 -124t33 -84t77 -28t89 16l16 -63l-129 -66q-41 -23 -75 -22q-88 0 -135 50q-48 50 -48 121q0 72 41 144t81 113t106 102q28 27 18 59q-59 181 -112 324h-390q-68 -190 -73 -211
q-29 -79 -9 -111t132 -44v-70h-455v70q94 10 137 51t96 170q137 348 416 1044q23 6 103 27q240 -666 387 -1059q61 -141 100 -184t129 -56v-63z" />
    <glyph glyph-name="aogonek" unicode="&#x105;" horiz-adv-x="956" 
d="M334 293q0 -84 40 -123t82 -39t89 33v325q-12 -5 -51 -29t-64 -36q-96 -47 -96 -131zM725 -338q39 0 86 21l16 -62l-125 -72q-39 -25 -75 -24q-84 0 -131 44t-47 114q0 137 206 303q-29 12 -59 42t-43 66q-180 -119 -215 -119q-123 0 -200 80q-77 81 -77 171t41 137
t152 85q244 82 291 121v60q0 96 -34 149t-84 53q-50 1 -78 -35t-54 -143q-18 -70 -86 -69q-43 0 -85 32t-42 73q0 42 70 95q66 43 162 86t180 60q119 0 198 -60q106 -80 107 -270v-340q0 -121 65 -121q33 1 70 17l20 -62q-12 -6 -55 -26q-132 -61 -205 -148
q-74 -86 -73 -166q0 -92 104 -92z" />
    <glyph glyph-name="Cacute" unicode="&#x106;" horiz-adv-x="1384" 
d="M1106 1575l-8 -23l-420 -122l-31 55q297 211 354 250q29 -11 65 -65t40 -95zM86 649q0 317 223 515t588 198q125 0 196 -16q72 -16 120 -25q48 -10 57 -12q31 -186 47 -338l-76 -15q-88 313 -383 314q-213 0 -337 -171t-124 -431t135 -430q135 -172 347 -172
q241 0 401 315l72 -31q-53 -203 -115 -327q-231 -53 -405 -53t-326 58q-152 60 -241 159q-179 199 -179 462z" />
    <glyph glyph-name="cacute" unicode="&#x107;" horiz-adv-x="864" 
d="M498 1001l-64 29q90 307 101 336q14 10 105 20t118 5l12 -23zM59 412q0 113 56 216q55 103 151 175q174 127 346 127h2q115 0 177 -51q41 -27 36 -74q1 -43 -29 -78t-54 -35t-50 23q-121 106 -199 106q-79 -1 -129 -73t-50 -196q-1 -222 110 -312q94 -78 172 -78
q121 0 219 84l39 -49q-72 -101 -166 -161t-186 -61q-201 0 -323 130t-122 307z" />
    <glyph glyph-name="Ccircumflex" unicode="&#x108;" horiz-adv-x="1384" 
d="M1141 1479l-33 -54q-63 25 -268 125q-176 -88 -271 -125l-32 54q102 82 272 252h61q117 -123 271 -252zM86 649q0 317 223 515t588 198q125 0 196 -16q72 -16 120 -25q48 -10 57 -12q31 -186 47 -338l-76 -15q-88 313 -383 314q-213 0 -337 -171t-124 -431t135 -430
q135 -172 347 -172q241 0 401 315l72 -31q-53 -203 -115 -327q-231 -53 -405 -53t-326 58q-152 60 -241 159q-179 199 -179 462z" />
    <glyph glyph-name="ccircumflex" unicode="&#x109;" horiz-adv-x="864" 
d="M700 991q-24 20 -202 189q-14 -12 -71 -70t-130 -119l-55 45q117 174 217 355h78q94 -173 221 -355zM59 412q0 113 56 216q55 103 151 175q174 127 346 127h2q115 0 177 -51q41 -27 36 -74q1 -43 -29 -78t-54 -35t-50 23q-121 106 -199 106q-79 -1 -129 -73t-50 -196
q-1 -222 110 -312q94 -78 172 -78q121 0 219 84l39 -49q-72 -101 -166 -161t-186 -61q-201 0 -323 130t-122 307z" />
    <glyph glyph-name="Cdotaccent" unicode="&#x10a;" horiz-adv-x="1384" 
d="M705 1586q0 58 43 100t103 43q60 0 102 -42q42 -41 42 -101t-43 -102t-102 -42t-102 43t-43 101zM86 649q0 317 223 515t588 198q125 0 196 -16q72 -16 120 -25q48 -10 57 -12q31 -186 47 -338l-76 -15q-88 313 -383 314q-213 0 -337 -171t-124 -431t135 -430
q135 -172 347 -172q241 0 401 315l72 -31q-53 -203 -115 -327q-231 -53 -405 -53t-326 58q-152 60 -241 159q-179 199 -179 462z" />
    <glyph glyph-name="cdotaccent" unicode="&#x10b;" horiz-adv-x="864" 
d="M504 1059q-59 0 -103 43q-43 43 -43 102q0 58 43 100t103 42t103 -41q42 -41 42 -101t-43 -103q-43 -42 -102 -42zM59 412q0 113 56 216q55 103 151 175q174 127 346 127h2q115 0 177 -51q41 -27 36 -74q1 -43 -29 -78t-54 -35t-50 23q-121 106 -199 106q-79 -1 -129 -73
t-50 -196q-1 -222 110 -312q94 -78 172 -78q121 0 219 84l39 -49q-72 -101 -166 -161t-186 -61q-201 0 -323 130t-122 307z" />
    <glyph glyph-name="Ccaron" unicode="&#x10c;" horiz-adv-x="1384" 
d="M1102 1731l31 -56q-109 -84 -271 -250h-61q-139 145 -273 250l35 56q135 -55 268 -121q121 60 271 121zM86 649q0 317 223 515t588 198q125 0 196 -16q72 -16 120 -25q48 -10 57 -12q31 -186 47 -338l-76 -15q-88 313 -383 314q-213 0 -337 -171t-124 -431t135 -430
q135 -172 347 -172q241 0 401 315l72 -31q-53 -203 -115 -327q-231 -53 -405 -53t-326 58q-152 60 -241 159q-179 199 -179 462z" />
    <glyph glyph-name="ccaron" unicode="&#x10d;" horiz-adv-x="864" 
d="M516 1221q144 144 201 188l55 -45q-104 -154 -217 -352h-78q-94 168 -219 352l55 45q68 -53 203 -188zM59 412q0 113 56 216q55 103 151 175q174 127 346 127h2q115 0 177 -51q41 -27 36 -74q1 -43 -29 -78t-54 -35t-50 23q-121 106 -199 106q-79 -1 -129 -73t-50 -196
q-1 -222 110 -312q94 -78 172 -78q121 0 219 84l39 -49q-72 -101 -166 -161t-186 -61q-201 0 -323 130t-122 307z" />
    <glyph glyph-name="Dcaron" unicode="&#x10e;" horiz-adv-x="1558" 
d="M1006 1700l30 -53q-117 -90 -270 -252h-61q-133 143 -273 252l35 53q82 -33 268 -119q177 82 271 119zM522 1106v-819q0 -115 35 -157t139 -42q209 0 336 159t127 441t-153 432q-125 127 -334 127q-100 1 -125 -25t-25 -116zM84 1331h614q402 0 586 -174t184 -438
q0 -354 -256 -549q-225 -170 -620 -170h-526v72q122 10 152 42t30 160v783q0 129 -27 161t-137 42v71z" />
    <glyph glyph-name="dcaron" unicode="&#x10f;" horiz-adv-x="1120" 
d="M1073 1365q1 41 29 65t76 24t94 -54t45 -142t-61 -150t-158 -88l-21 51q111 61 111 137t-84 105q-31 12 -31 52zM350 479q0 -170 78 -259t152 -89t125 33v573q-49 106 -150 107q-51 0 -119 -64q-38 -36 -62 -114t-24 -187zM477 -25q-94 1 -186 47t-162 152t-70 250
q0 211 162 358t400 148q8 0 84 -10v247q0 83 -22 103t-116 33v63q238 27 400 74v-1182q0 -86 15 -106t81 -29l45 -4v-66q-301 -51 -403 -80v119l-125 -80q-59 -37 -103 -37z" />
    <glyph glyph-name="Dcroat" unicode="&#x110;" horiz-adv-x="1556" 
d="M545 645v-364q-1 -111 29 -150t135 -39q199 0 327 161t127 443q0 282 -147 432q-113 115 -322 115q-106 0 -131 -29q-18 -16 -18 -100v-366h289v-103h-289zM106 1331h615q385 0 571 -180q178 -164 178 -430q0 -358 -253 -549q-229 -172 -609 -172h-518v70q121 12 151 46
t29 165v364h-192v103h192v303q0 131 -26 166q-27 35 -138 45v69z" />
    <glyph glyph-name="dcroat" unicode="&#x111;" horiz-adv-x="1122" 
d="M350 479q0 -172 79 -261t165 -89q54 0 113 37v573q-47 104 -146 105q-56 0 -123 -65q-36 -35 -62 -113t-26 -187zM465 -25q-55 0 -127 28q-166 65 -239 223q-40 89 -40 198q0 211 163 358t405 148q4 0 80 -10v155h-285v88h285v41q-3 70 -21 84t-111 31v61q227 25 394 74
v-291h161v-88h-161v-809q0 -92 15 -112t83 -31l43 -4v-66q-301 -51 -403 -80v117l-125 -78q-61 -37 -117 -37z" />
    <glyph glyph-name="Emacron" unicode="&#x112;" horiz-adv-x="1189" 
d="M883 1458h-502v139h502v-139zM1047 1331q0 -42 20 -307l-76 -10q-33 127 -82 177t-204 50h-99q-57 0 -70 -11t-14 -61v-434h137q133 0 170 25t58 129h74v-412h-74q-19 109 -57 133t-171 23h-137v-354q0 -145 48 -167t200 -24q152 0 212 66t114 200l73 -14
q-27 -170 -71 -340h-1045v72q133 10 164 41t31 159v787q0 131 -27 161t-139 40v71h965z" />
    <glyph glyph-name="emacron" unicode="&#x113;" horiz-adv-x="894" 
d="M737 1110h-512v147h512v-147zM527 596q65 0 74 8t9 33q2 83 -33 147t-94 64t-105 -70t-56 -188q140 6 205 6zM61 430q1 203 149 351t316 149h2q138 0 236 -100t98 -230q-4 -66 -59 -74q-102 -16 -490 -32q6 -158 83 -244t199 -86t224 88l35 -49q-82 -125 -183 -176
t-186 -52q-199 0 -311 126t-113 329z" />
    <glyph glyph-name="Ebreve" unicode="&#x114;" horiz-adv-x="1189" 
d="M632 1421q-259 0 -261 279h61q28 -133 198 -133t201 133h62q-2 -279 -261 -279zM1047 1331q0 -42 20 -307l-76 -10q-33 127 -82 177t-204 50h-99q-57 0 -70 -11t-14 -61v-434h137q133 0 170 25t58 129h74v-412h-74q-19 109 -57 133t-171 23h-137v-354q0 -145 48 -167
t200 -24q152 0 212 66t114 200l73 -14q-27 -170 -71 -340h-1045v72q133 10 164 41t31 159v787q0 131 -27 161t-139 40v71h965z" />
    <glyph glyph-name="ebreve" unicode="&#x115;" horiz-adv-x="894" 
d="M735 1352q0 -315 -252 -316q-248 0 -247 316h65q33 -160 183 -160t186 160h65zM528 596q62 0 71 8t11 33q0 83 -35 147t-93 64t-104 -70t-54 -188q142 6 204 6zM61 431q1 202 149 350t316 149h2q136 0 234 -100t98 -230q-4 -66 -61 -74q-102 -16 -486 -32q6 -158 83 -244
t199 -86t224 88l33 -49q-82 -125 -183 -176t-184 -52q-197 0 -311 127t-113 329z" />
    <glyph glyph-name="Edotaccent" unicode="&#x116;" horiz-adv-x="1189" 
d="M628 1724q60 0 102 -42t42 -101t-43 -101t-102 -42t-103 43q-43 43 -43 101t43 100q44 42 104 42zM1047 1331q0 -42 20 -307l-76 -10q-33 127 -82 177t-204 50h-99q-57 0 -70 -11t-14 -61v-434h137q131 0 169 24t59 130h74v-412h-74q-19 109 -57 133t-171 23h-137v-354
q0 -145 46 -167t200 -24q154 0 214 66t114 200l73 -14q-27 -170 -71 -340h-1045v72q133 10 164 41t31 159v787q0 131 -27 161t-139 40v71h965z" />
    <glyph glyph-name="edotaccent" unicode="&#x117;" horiz-adv-x="894" 
d="M340 1204q0 58 43 100t103 42t102 -41t43 -101t-43 -103q-44 -42 -103 -42t-102 43t-43 102zM527 596q65 0 74 8t9 33q2 83 -33 147t-94 64t-105 -70t-56 -188q140 6 205 6zM61 430q1 203 149 351t316 149h2q138 0 236 -100t98 -230q-4 -66 -59 -74q-102 -16 -490 -32
q6 -158 83 -244t198 -86t223 88l37 -49q-82 -125 -183 -176t-186 -52q-199 0 -311 126t-113 329z" />
    <glyph glyph-name="Eogonek" unicode="&#x118;" horiz-adv-x="1187" 
d="M705 1241h-95q-59 0 -73 -11t-15 -61v-432h129q135 0 175 26t61 128h74v-414h-74q-19 106 -59 132t-177 26h-129v-367q0 -140 46 -160t198 -20t214 68t116 202l71 -20q-25 -182 -71 -338h-99q-156 -133 -155 -264q0 -39 28 -60q29 -20 68 -20t94 20l17 -59l-105 -66
q-48 -31 -116 -31t-111 46q-43 45 -43 106q0 150 231 328h-852v72q133 10 164 41t31 159v787q0 129 -27 160t-139 41v71h965l20 -303l-76 -10q-33 119 -84 171t-202 52z" />
    <glyph glyph-name="eogonek" unicode="&#x119;" horiz-adv-x="894" 
d="M526 596q64 0 73 9t9 34q2 81 -34 145t-94 64t-103 -70t-55 -188q140 6 204 6zM59 414q0 223 152 370q141 145 311 146h2q140 0 238 -100t98 -230q-4 -66 -59 -74q-102 -16 -490 -32q8 -160 83 -246t197 -86t224 88l37 -47q-66 -80 -113 -115q-225 -217 -225 -338
q0 -44 27 -66t71 -22t93 25l16 -60l-121 -73q-37 -25 -82 -25q-88 0 -129 43t-41 109q0 65 62 149t153 156l-4 4q-43 -14 -74 -15q-199 0 -313 127t-113 312z" />
    <glyph glyph-name="Ecaron" unicode="&#x11a;" horiz-adv-x="1189" 
d="M893 1708l31 -53q-117 -90 -271 -252h-63q-119 131 -271 252l33 53q94 -37 271 -119q186 86 270 119zM1047 1331q0 -42 20 -307l-76 -10q-33 127 -82 177t-204 50h-99q-57 0 -70 -11t-14 -61v-434h137q133 0 170 25t58 129h74v-412h-74q-19 109 -57 133t-171 23h-137
v-354q0 -145 48 -167t200 -24q152 0 212 66t114 200l73 -14q-27 -170 -71 -340h-1045v72q133 10 164 41t31 159v787q0 131 -27 161t-139 40v71h965z" />
    <glyph glyph-name="ecaron" unicode="&#x11b;" horiz-adv-x="894" 
d="M487 1221q144 144 201 188l55 -45q-104 -154 -217 -352h-77q-94 168 -220 352l56 45q68 -53 202 -188zM527 596q65 0 74 8t9 33q2 83 -33 147t-94 64t-105 -70t-56 -188q140 6 205 6zM61 430q1 203 149 351t316 149h2q138 0 236 -100t98 -230q-4 -66 -59 -74
q-102 -16 -490 -32q6 -158 83 -244t199 -86t224 88l35 -49q-82 -125 -183 -176t-186 -52q-199 0 -311 126t-113 329z" />
    <glyph glyph-name="Gcircumflex" unicode="&#x11c;" horiz-adv-x="1488" 
d="M1153 1470l-33 -53q-82 30 -161 72q-80 41 -109 53q-229 -109 -270 -125l-31 53q123 100 270 252h64q116 -123 270 -252zM1440 637v-72q-78 -16 -96 -41t-19 -125v-163q0 -129 12 -193q-315 -74 -467 -74q-356 1 -568 187t-212 495q0 170 66 307q125 259 436 358
q146 46 298 46t410 -57q10 -111 33 -338l-78 -17q-35 166 -139 246t-256 80q-194 0 -326 -161t-132 -417t116 -443q58 -91 154 -146t196 -55t136 24q47 29 47 115v194q0 61 -4 87t-29 48t-66 29q-41 6 -127 14v72h615z" />
    <glyph glyph-name="gcircumflex" unicode="&#x11d;" horiz-adv-x="1007" 
d="M752 1036l-58 -45q-51 41 -202 189q-160 -154 -203 -189l-53 45q90 131 217 355h77q111 -195 222 -355zM480 -43q-120 0 -161 -47q-42 -47 -43 -98q0 -80 74 -140t190 -59q116 0 182 54t66 138q0 102 -114 136q-74 16 -194 16zM481 854q-49 0 -85 -60t-36 -171t36 -183
t106 -71q123 0 123 233q0 108 -36 180t-108 72zM985 -90q0 -162 -169 -286q-170 -124 -366 -124t-295 76t-100 172q0 61 64 113q20 18 153 102q-98 37 -153 113q-33 53 -29 110q117 49 209 136q-94 32 -147 104t-54 168q0 160 121 248t275 88h2q111 0 219 -53q88 2 297 22
l8 -14q-10 -33 -36 -71t-52 -54l-117 10q53 -72 53 -158q0 -152 -114 -236t-275 -83q-25 0 -102 10q-29 -33 -29 -61t33 -52q33 -25 100 -22l189 4q112 0 204 -45q111 -55 111 -217z" />
    <glyph glyph-name="Gbreve" unicode="&#x11e;" horiz-adv-x="1488" 
d="M1081 1718q0 -281 -260 -280q-260 0 -260 280h60q31 -133 201 -133t198 133h61zM1325 399v-163q0 -129 12 -193q-322 -74 -467 -74q-356 1 -568 187t-212 495q0 170 66 307q125 259 436 358q146 46 294 46t414 -57q10 -111 33 -338l-78 -17q-35 166 -139 246t-256 80
q-194 0 -326 -161t-132 -417t116 -443q58 -91 154 -146t196 -55t136 24q47 29 47 115v194q0 61 -4 87t-29 48t-66 29q-41 6 -127 14v72h615l-2 -72q-78 -16 -96 -41t-17 -125z" />
    <glyph glyph-name="gbreve" unicode="&#x11f;" horiz-adv-x="1007" 
d="M741 1352q0 -315 -254 -316q-248 0 -247 316h67q33 -160 183 -160t184 160h67zM482 -43q-118 0 -161 -47q-45 -46 -45 -112t74 -126t190 -59q116 0 182 54t66 138q0 102 -114 136q-74 16 -192 16zM481 854q-49 0 -85 -60t-36 -170t37 -183t105 -72q123 0 123 233
q0 108 -36 180t-108 72zM983 -89q0 -161 -168 -286q-169 -125 -365 -125t-295 77t-100 173q0 61 55 105t102 71q46 26 60 37q-104 41 -151 115q-35 51 -31 108q117 49 209 136q-94 32 -147 104t-54 168q0 160 121 248t275 88h2q111 0 219 -56q80 2 295 25l10 -12
q-10 -31 -36 -71t-50 -56l-117 10q53 -72 53 -158q0 -152 -114 -236t-277 -83q-25 0 -102 10q-29 -33 -29 -61t33 -52q33 -25 100 -22l189 4q110 0 202 -45q111 -55 111 -216z" />
    <glyph glyph-name="Gdotaccent" unicode="&#x120;" horiz-adv-x="1488" 
d="M719 1585q0 59 43 101t103 43q61 0 103 -42q42 -41 42 -101t-43 -102t-103 -42t-102 42q-43 42 -43 101zM1440 637v-72q-78 -16 -96 -41t-19 -125v-163q0 -129 12 -193q-322 -74 -467 -74q-356 1 -568 187t-212 495q0 170 66 307q125 259 436 358q146 46 298 46t410 -57
q10 -111 33 -338l-78 -17q-35 166 -139 246t-256 80q-194 0 -326 -161t-132 -417t116 -443q58 -91 154 -146t196 -55t136 24q47 29 47 115v194q0 61 -4 87t-29 48t-66 29q-41 6 -127 14v72h615z" />
    <glyph glyph-name="gdotaccent" unicode="&#x121;" horiz-adv-x="1007" 
d="M338 1204q0 58 43 100t103 42t102 -41t43 -101t-43 -103q-44 -42 -103 -42t-102 43t-43 102zM482 -43q-118 0 -161 -47q-44 -47 -45 -98q0 -80 74 -140t190 -59q116 0 182 54t66 138q0 102 -114 136q-74 16 -192 16zM481 854q-49 0 -85 -60t-36 -171t36 -183t106 -71
q123 0 123 233q0 108 -36 180t-108 72zM985 -89q0 -161 -168 -286q-167 -125 -365 -125t-297 77t-100 173q0 63 64 111q20 18 153 102q-98 37 -153 113q-33 53 -29 110q117 49 209 136q-94 32 -147 104t-54 168q0 160 121 248t277 88h2q109 0 217 -56q84 5 297 25l8 -14
q-10 -33 -36 -71t-52 -54l-117 10q53 -72 53 -158q0 -152 -114 -236t-275 -83q-25 0 -100 10q-29 -29 -29 -59t32 -54q32 -25 99 -22l189 4q112 0 204 -45q111 -55 111 -216z" />
    <glyph glyph-name="Gcommaaccent" unicode="&#x122;" horiz-adv-x="1488" 
d="M815 -102q70 0 123 -56t53 -135q0 -180 -250 -244l-22 54q131 63 131 139t-102 102q-31 4 -31 50q-1 46 29 68t69 22zM1440 637v-72q-78 -16 -95 -41t-18 -125v-163q0 -129 12 -193q-322 -74 -469 -74q-356 1 -568 187t-212 495q0 170 66 307q125 260 437 358
q145 46 297 46t410 -57q10 -111 33 -338l-78 -17q-35 166 -139 246t-256 80q-194 0 -326 -161t-132 -417t116 -443q58 -91 154 -146t196 -55t136 24q47 29 47 115v194q0 61 -4 87t-29 48t-66 29q-41 6 -127 14v72h615z" />
    <glyph glyph-name="gcommaaccent" unicode="&#x123;" horiz-adv-x="1007" 
d="M606 1122q0 -86 -114 -86q-56 0 -108 54t-52 143q0 88 68 148q69 60 182 87l22 -51q-133 -63 -133 -139t104 -102q31 -10 31 -54zM482 -43q-120 0 -163 -47q-43 -46 -43 -112t74 -126t190 -59q116 0 182 54t66 138q0 104 -114 134q-72 18 -192 18zM481 854q-49 0 -85 -59
t-36 -170t37 -184t105 -72q123 0 123 233q0 108 -36 180t-108 72zM985 -89q0 -161 -169 -286q-170 -125 -366 -125t-295 77t-100 173q0 61 55 105t102 71q46 26 60 37q-104 41 -151 115q-35 51 -31 108q117 49 209 136q-94 32 -147 104t-54 168q0 160 121 248t277 88h2
q109 0 217 -56q84 5 297 25l8 -14q-31 -88 -86 -125l-117 10q53 -72 53 -158q0 -152 -114 -236t-277 -83q-25 0 -102 10q-29 -33 -29 -61t33 -52q33 -25 100 -22l189 4q110 0 202 -45q113 -55 113 -216z" />
    <glyph glyph-name="Hcircumflex" unicode="&#x124;" horiz-adv-x="1603" 
d="M1102 1454l-33 -53q-68 27 -270 125q-184 -92 -269 -125l-32 53q129 104 270 252h63q105 -113 271 -252zM1528 1331v-71q-121 -10 -147 -40t-25 -161v-789q0 -128 26 -158t146 -40v-72h-625v72q123 10 151 41t27 159v381h-559v-381q0 -130 27 -160t141 -40v-72h-610v72
q116 10 142 41t26 159v787q0 129 -28 160t-148 41v71h614v-71q-112 -10 -138 -41t-26 -160v-301h559v301q0 129 -26 160q-27 31 -144 41v71h617z" />
    <glyph glyph-name="hcircumflex" unicode="&#x125;" horiz-adv-x="1126" 
d="M569 1516l-32 -54q-68 27 -271 125q-184 -92 -268 -125l-33 54q129 104 271 251h63q104 -112 270 -251zM1087 0h-481v66q72 10 88 32t17 109v360q0 211 -148 211q-88 0 -147 -57v-514q0 -86 15 -110t79 -31v-66h-485v66q90 10 109 32t20 117v954q0 89 -16 107t-99 29v61
q174 23 377 74v-641q131 131 269 131t212 -86t74 -254v-375q0 -94 17 -116t99 -33v-66z" />
    <glyph glyph-name="Hbar" unicode="&#x126;" horiz-adv-x="1603" 
d="M1081 719v233h-559v-233h559zM1516 952h-160v-682q0 -130 26 -160t146 -40v-70h-625v70q123 10 151 41t27 159v346h-559v-346q0 -130 27 -160t141 -40v-70h-610v70q116 10 142 41t26 159v682h-164v88h164v31q0 125 -27 153t-149 38v69h614v-69q-116 -10 -140 -38
t-24 -153v-31h559v29q0 127 -25 155q-26 28 -145 38v69h617v-69q-123 -10 -148 -37t-24 -154v-31h160v-88z" />
    <glyph glyph-name="hbar" unicode="&#x127;" horiz-adv-x="1128" 
d="M1092 0h-484v66q72 10 88 32t17 109v368q0 205 -152 205q-76 0 -147 -61v-512q0 -88 15 -110t81 -31v-66h-485v66q83 10 105 32t22 121v858h-144v88h144v105q0 39 -10 51t-58 22v56q211 31 330 55v-289h317v-88h-317v-278q131 131 273 131t215 -86t73 -250v-375
q0 -96 19 -119t98 -34v-66z" />
    <glyph glyph-name="Itilde" unicode="&#x128;" horiz-adv-x="774" 
d="M279 1634q43 0 126 -36t125 -35q57 0 101 86l61 -31q-63 -201 -188 -201q-41 0 -144 43q-61 31 -112 31t-98 -90l-60 41q70 192 189 192zM692 0h-616v72q116 10 144 42t28 158v785q0 129 -28 161t-144 42v71h616v-71q-118 -10 -144 -41t-26 -162v-785q0 -126 27 -158
t143 -42v-72z" />
    <glyph glyph-name="itilde" unicode="&#x129;" horiz-adv-x="604" 
d="M440 1219q55 0 103 96l57 -31q-63 -217 -178 -217q-53 0 -139 45q-70 41 -115 41q-62 0 -107 -104l-57 38q70 215 191 216q47 0 128 -42t117 -42zM580 0h-521v68q86 8 108 38t21 144v389q0 94 -16 119t-96 37v61q197 23 375 74v-680q0 -117 18 -144t111 -38v-68z" />
    <glyph glyph-name="Imacron" unicode="&#x12a;" horiz-adv-x="774" 
d="M637 1456h-502v139h502v-139zM692 0h-616v72q116 10 144 42t28 158v785q0 129 -28 161t-144 42v71h616v-71q-118 -10 -144 -41t-26 -162v-785q0 -126 27 -158t143 -42v-72z" />
    <glyph glyph-name="imacron" unicode="&#x12b;" horiz-adv-x="604" 
d="M551 1110h-512v147h512v-147zM580 0h-521v68q86 8 108 38t21 144v389q0 94 -16 119t-96 37v61q197 23 375 74v-680q0 -117 18 -144t111 -38v-68z" />
    <glyph glyph-name="Ibreve" unicode="&#x12c;" horiz-adv-x="774" 
d="M647 1696q0 -281 -260 -281t-262 281h61q29 -133 200 -133t200 133h61zM692 0h-616v72q116 10 144 42t28 158v785q0 129 -28 161t-144 42v71h616v-71q-118 -10 -144 -41t-26 -162v-785q0 -126 27 -158t143 -42v-72z" />
    <glyph glyph-name="ibreve" unicode="&#x12d;" horiz-adv-x="604" 
d="M545 1352q0 -315 -252 -316q-246 0 -246 316h66q16 -76 63 -118t119 -42q151 0 184 160h66zM582 0h-521v68q86 8 108 38t21 144v389q0 94 -17 119t-97 37v61q199 23 377 74v-680q0 -117 18 -144t111 -38v-68z" />
    <glyph glyph-name="Iogonek" unicode="&#x12e;" horiz-adv-x="774" 
d="M692 0h-256q-66 -104 -65 -238q-1 -50 31 -76t79 -26t88 18l19 -61l-123 -68q-43 -25 -86 -24q-84 0 -131 47q-47 48 -47 110t35 134t53 96t67 88h-278l-2 70q116 10 144 42t28 158v789q0 129 -28 161t-144 42v69h616v-69q-118 -10 -144 -41t-26 -162v-789
q0 -126 27 -158t143 -42v-70z" />
    <glyph glyph-name="iogonek" unicode="&#x12f;" horiz-adv-x="606" 
d="M160 1204q0 60 43 102t103 42t102 -42t43 -102t-43 -103q-44 -42 -103 -42t-102 43t-43 102zM590 0h-221q-61 -96 -62 -229q0 -47 30 -76t74 -29t91 21l18 -62l-108 -69q-41 -27 -86 -27q-92 0 -138 47q-45 47 -45 121q0 106 146 303h-234v66q94 8 115 34q20 27 20 138
v401q0 92 -19 119t-99 37v61q205 25 381 74v-692q-1 -109 21 -137t116 -35v-66z" />
    <glyph glyph-name="Idotaccent" unicode="&#x130;" horiz-adv-x="774" 
d="M387 1724q59 0 102 -42t43 -102t-43 -101t-102 -41t-102 42t-43 101t43 101t102 42zM692 0h-616v72q116 10 144 42t28 158v785q0 129 -28 161t-144 42v71h616v-71q-118 -10 -144 -41t-26 -162v-785q0 -126 27 -158t143 -42v-72z" />
    <glyph glyph-name="dotlessi" unicode="&#x131;" horiz-adv-x="604" 
d="M580 0h-521v68q86 8 108 38t21 144v389q0 94 -16 119t-96 37v61q197 23 375 74v-680q0 -117 18 -144t111 -38v-68z" />
    <glyph glyph-name="IJ" unicode="&#x132;" horiz-adv-x="1523" 
d="M1464 1331v-71q-108 -10 -134 -41t-25 -160v-678q0 -209 -40 -345t-169 -241q-113 -96 -250 -127l-31 74q164 70 193 250q23 137 22 397v670q0 129 -29 160t-147 41v71h610zM692 0h-616v72q116 10 144 42t28 158v785q0 129 -28 161t-144 42v71h616v-71q-118 -10 -144 -41
t-26 -162v-785q0 -126 27 -158t143 -42v-72z" />
    <glyph glyph-name="ij" unicode="&#x133;" horiz-adv-x="1193" 
d="M1044 262q0 -190 -56 -324t-147 -254q-91 -118 -137 -151t-72 -33q-28 0 -57 34t-29 69q1 65 52 65q129 6 152 41q32 66 32 529v387q0 106 -19 131q-20 25 -106 39v61q152 18 387 74v-668zM897 1059q-59 0 -102 43t-43 102q0 58 43 100t103 42t102 -41t42 -101t-43 -103
q-43 -42 -102 -42zM584 0h-527v66q90 10 111 35q20 26 20 132v406q0 98 -18 122t-94 36v59q195 23 375 74v-697q0 -106 20 -132t113 -35v-66zM160 1204q0 58 43 100t103 42t102 -41t43 -101q-1 -60 -43 -102q-42 -41 -102 -41t-103 42t-43 101z" />
    <glyph glyph-name="Jcircumflex" unicode="&#x134;" horiz-adv-x="749" 
d="M692 1454l-33 -53q-68 27 -270 125q-184 -92 -268 -125l-33 53q129 104 270 252h64q104 -113 270 -252zM690 1331v-71q-108 -10 -134 -41t-26 -160v-678q0 -209 -40 -345t-168 -241q-113 -96 -250 -127l-31 74q164 70 192 250q23 137 23 397v670q0 129 -29 160t-147 41
v71h610z" />
    <glyph glyph-name="jcircumflex" unicode="&#x135;" horiz-adv-x="595" 
d="M504 991q-32 26 -203 189q-14 -12 -67 -67t-134 -122l-55 45q117 174 217 355h78q94 -173 221 -355zM455 254q-1 -190 -57 -326t-147 -254q-91 -119 -140 -151q-41 -31 -70 -31t-55 32t-27 79q0 47 49 51q126 0 148 37t29 172t8 368v394q0 106 -20 132t-110 40v59
q160 16 392 74v-676z" />
    <glyph glyph-name="Kcommaaccent" unicode="&#x136;" horiz-adv-x="1439" 
d="M762 -51q70 0 123 -55t53 -136q0 -180 -250 -243l-22 53q131 63 131 139t-103 103q-30 4 -30 49t30 67t68 23zM1432 0h-412q-188 260 -404 573q-53 76 -100 70v-369q0 -132 28 -162t148 -40v-72h-612v72q112 10 140 42t28 160v783q0 129 -28 161t-144 42v71h602v-71
q-110 -10 -136 -41t-26 -162v-348q70 20 156 108q170 172 286 332q39 47 29 73t-80 33l-37 5v71h533v-71q-102 -10 -173 -39q-72 -29 -138 -91q-143 -134 -312 -317q197 -293 430 -590q62 -77 110 -109t112 -42v-72z" />
    <glyph glyph-name="kcommaaccent" unicode="&#x137;" horiz-adv-x="1050" 
d="M562 -74q56 0 108 -55q53 -55 53 -135q0 -180 -252 -244l-20 53q131 63 131 142q0 74 -105 100q-30 6 -30 50q-1 45 29 67t86 22zM410 440v-221q0 -96 22 -119t113 -34v-66h-527v66q94 12 115 33q20 22 21 120v948q0 86 -20 108t-103 32v59q188 20 379 74v-940
q58 12 122 85t115 169q20 33 7 53t-70 31l2 61l442 19v-62q-182 -33 -250 -101t-149 -173q102 -166 297 -412q49 -54 83 -74t89 -30v-66l-363 -2q-61 74 -264 401q-29 37 -41 39t-20 2z" />
    <glyph glyph-name="kgreenlandic" unicode="&#x138;" horiz-adv-x="1132" 
d="M1126 0h-376q-26 42 -109 189q-82 147 -113 198t-75 47v-201q0 -109 19 -135t103 -32v-66h-509v66q86 6 105 32t19 138v413q0 104 -19 134t-101 36v66q211 12 383 47v-434q45 4 92 47q100 90 168 194q25 37 17 62t-46 30l-39 9v65h442v-65q-143 -10 -232 -92t-171 -173
q190 -299 257 -381t98 -104q32 -20 87 -24v-66z" />
    <glyph glyph-name="Lacute" unicode="&#x139;" horiz-adv-x="1128" 
d="M741 1546l-8 -24l-420 -123l-30 57q297 211 354 250q29 -10 65 -66t39 -94zM49 0v72q135 10 167 41t32 159v785q0 129 -29 161t-147 42v71h624v-71q-118 -10 -146 -42t-28 -161v-799q0 -76 9 -106t40 -46q47 -18 175 -18t190 69t113 212l73 -23q-45 -244 -75 -346h-998z
" />
    <glyph glyph-name="lacute" unicode="&#x13a;" horiz-adv-x="569" 
d="M571 1620l-8 -25l-422 -122l-28 57q297 209 354 250q29 -10 65 -66t39 -94zM553 0h-533v66q92 14 113 37q20 24 21 122v936q0 93 -18 113t-105 31v61q197 25 385 74v-1215q0 -102 20 -126t117 -33v-66z" />
    <glyph glyph-name="Lcommaaccent" unicode="&#x13b;" horiz-adv-x="1128" 
d="M522 -161q0 87 116 87q56 0 106 -54q52 -54 53 -136q0 -182 -250 -244l-21 53q131 63 131 142q0 74 -104 100q-31 10 -31 52zM49 0v72q135 10 167 41t32 159v785q0 129 -29 161t-147 42v71h624v-71q-118 -10 -146 -42t-28 -161v-799q0 -76 9 -106t40 -46q47 -18 175 -18
t190 69t113 212l73 -23q-45 -244 -75 -346h-998z" />
    <glyph glyph-name="lcommaaccent" unicode="&#x13c;" horiz-adv-x="569" 
d="M168 -156q0 86 114 86q56 0 108 -54t52 -136q0 -182 -249 -244l-21 53q131 63 131 142q0 74 -104 100q-31 8 -31 53zM553 0h-533v66q92 14 113 37q20 24 21 122v936q0 93 -18 113t-105 31v61q197 25 385 74v-1215q0 -102 20 -126t117 -33v-66z" />
    <glyph glyph-name="Lcaron" unicode="&#x13d;" horiz-adv-x="1128" 
d="M774 1246q0 42 28 66t75 25q47 0 93 -54t46 -136q0 -180 -219 -244l-21 53q111 60 111 136t-82 106q-31 6 -31 48zM49 0v72q135 10 167 41t32 159v785q0 129 -29 161t-147 42v71h624v-71q-118 -10 -146 -42t-28 -161v-799q0 -76 9 -106t40 -46q47 -18 175 -18t190 69
t113 212l73 -23q-45 -244 -75 -346h-998z" />
    <glyph glyph-name="lcaron" unicode="&#x13e;" horiz-adv-x="569" 
d="M594 1456q61 0 106 -55t45 -143t-60 -150t-159 -88l-20 53q110 57 110 134t-81 108q-31 6 -31 49t27 68q28 24 63 24zM551 0h-531v66q92 14 113 37q20 24 21 122v936q0 93 -18 113t-105 31v61q188 20 385 72v-1213q0 -102 20 -126t115 -33v-66z" />
    <glyph glyph-name="Ldot" unicode="&#x13f;" horiz-adv-x="1128" 
d="M668 733q0 59 43 101t103 43q60 0 102 -42q42 -43 42 -103t-42 -101t-102 -41t-103 42t-43 101zM49 0v72q135 10 167 41t32 159v785q0 129 -29 161t-147 42v71h624v-71q-118 -10 -146 -42t-28 -161v-799q0 -76 9 -106t40 -46q47 -18 175 -18t190 69t113 212l73 -23
q-45 -244 -75 -346h-998z" />
    <glyph glyph-name="ldot" unicode="&#x140;" horiz-adv-x="686" 
d="M553 0h-533v66q92 14 113 37q20 24 21 122v936q0 93 -18 113t-105 31v61q217 27 385 74v-1213q0 -104 20 -127t117 -32v-68zM632 872q56 0 94 -41t38 -98t-39 -98t-95 -41t-95 41t-39 98t40 98t96 41z" />
    <glyph glyph-name="Lslash" unicode="&#x141;" horiz-adv-x="1153" 
d="M74 0v72q133 10 166 45t32 166v258l-204 -138v107l204 137v402q0 131 -28 165t-146 46v71h627l-2 -71q-119 -10 -148 -46t-28 -165v-230l270 182v-110l-270 -180v-445q0 -76 10 -112t44 -50t167 -14t190 68q58 64 111 209l78 -21q-72 -336 -76 -346h-997z" />
    <glyph glyph-name="lslash" unicode="&#x142;" horiz-adv-x="618" 
d="M440 246q0 -110 22 -138t118 -40v-68h-543v68q98 8 120 36t21 142v362l-145 -119v111l145 121v473q0 63 -21 85q-22 22 -112 42v57q199 23 395 74v-530l172 141v-113l-172 -141v-563z" />
    <glyph glyph-name="Nacute" unicode="&#x143;" horiz-adv-x="1515" 
d="M1081 1546l-8 -24l-422 -123l-28 57q135 98 354 250q29 -10 65 -66t39 -94zM1483 1331v-69q-84 -4 -120 -32t-44 -97q-18 -184 -19 -340v-813h-98l-852 1019h-6v-458q0 -168 16 -332q8 -71 48 -101t149 -36v-72h-502v72q86 6 125 36t45 93q20 174 21 340v428
q0 106 -6 145t-35 75t-67 51t-105 22v69h379l784 -897h6v359q0 180 -16 337q-8 68 -50 97t-153 35v69h500z" />
    <glyph glyph-name="nacute" unicode="&#x144;" horiz-adv-x="1159" 
d="M582 1001l-64 29q90 307 100 336q14 10 106 20t118 5l12 -23zM1124 0h-477v66q66 10 81 34t15 131v349q0 193 -141 192q-70 0 -151 -63v-496q0 -94 15 -116t81 -31v-66h-494v66q96 14 116 35q19 22 19 122v426q0 90 -16 112t-92 38v57q178 23 371 78v-150q18 12 60 43
q138 102 226 103q125 0 197 -87t72 -241v-387q0 -94 18 -116t100 -33v-66z" />
    <glyph glyph-name="Ncommaaccent" unicode="&#x145;" horiz-adv-x="1515" 
d="M676 -119q0 86 114 86q56 0 109 -55t53 -135q0 -180 -252 -244l-20 53q131 63 131 142q0 74 -104 100q-31 10 -31 53zM1483 1331v-69q-84 -4 -120 -32t-44 -97q-18 -184 -19 -340v-813h-98l-852 1019h-6v-458q0 -168 16 -332q8 -71 48 -101t149 -36v-72h-502v72
q86 6 125 36t45 93q20 174 21 340v428q0 106 -6 145t-35 75t-67 51t-105 22v69h379l784 -897h6v359q0 180 -16 337q-8 68 -50 97t-153 35v69h500z" />
    <glyph glyph-name="ncommaaccent" unicode="&#x146;" horiz-adv-x="1159" 
d="M590 -84q70 0 123 -55t53 -135q0 -180 -250 -244l-22 53q131 63 131 139t-103 103q-30 4 -30 49t29 68q30 22 69 22zM1124 0h-477v66q66 10 81 34t15 131v349q0 193 -141 192q-70 0 -151 -63v-496q0 -94 15 -116t81 -31v-66h-494v66q96 14 116 35q19 22 19 122v426
q0 90 -16 112t-92 38v57q178 23 371 78v-150q18 12 60 43q138 102 228 103q123 0 195 -87t72 -241v-387q0 -94 18 -116t100 -33v-66z" />
    <glyph glyph-name="Ncaron" unicode="&#x147;" horiz-adv-x="1515" 
d="M1042 1669l31 -53q-100 -78 -270 -252h-62q-137 145 -272 252l33 53q150 -61 270 -121q137 68 270 121zM1483 1331v-69q-84 -4 -120 -32t-44 -97q-18 -184 -19 -340v-813h-98l-852 1019h-6v-458q0 -168 16 -332q8 -71 48 -101t149 -36v-72h-502v72q86 6 125 36t45 93
q20 174 21 340v428q0 106 -6 145t-35 75t-67 51t-105 22v69h379l784 -897h6v359q0 180 -16 337q-8 68 -50 97t-153 35v69h500z" />
    <glyph glyph-name="ncaron" unicode="&#x148;" horiz-adv-x="1159" 
d="M578 1221q148 148 200 188l56 -45q-104 -154 -218 -352h-77q-94 168 -220 352l56 45q68 -53 203 -188zM1124 0h-477v66q66 10 81 34t15 131v349q0 193 -141 192q-70 0 -151 -63v-496q0 -94 15 -116t81 -31v-66h-494v66q96 14 116 35q19 22 19 122v426q0 90 -16 112
t-92 38v57q178 23 371 78v-150q18 12 60 43q138 102 226 103q125 0 197 -87t72 -241v-387q0 -94 18 -116t100 -33v-66z" />
    <glyph glyph-name="napostrophe" unicode="&#x149;" horiz-adv-x="1159" 
d="M1124 0h-477v66q66 10 81 34t15 131v349q0 193 -141 192q-68 0 -149 -63v-496q0 -92 14 -115t80 -32v-66h-492v66q96 14 116 35q19 22 19 122v426q0 90 -16 112t-94 38v57q174 20 373 78v-150q12 8 55 40q141 105 229 106q125 0 197 -87t72 -241v-387q0 -94 18 -116
t100 -33v-66zM113 1468q85 0 153 -60t68 -164t-86 -171q-86 -68 -219 -98l-23 57q156 68 156 166q0 92 -135 117q-8 2 -18 18q-9 16 -9 49q0 34 34 60t79 26z" />
    <glyph glyph-name="Eng" unicode="&#x14a;" horiz-adv-x="1515" 
d="M1483 1331v-69q-84 -4 -121 -32t-43 -95q-18 -143 -19 -344v-730q0 -233 -71 -354q-82 -133 -193 -133q-49 0 -86 36t-37 87t31 51q12 0 41 -8t55 -8q80 0 119 72t39 180l-846 1011h-8v-448q0 -197 14 -340q8 -72 50 -102t151 -35v-70h-504v70q86 6 125 36t47 93
q18 209 19 348v418q0 106 -6 147t-35 77t-67 51t-105 22v69h375l788 -897h6v359q0 133 -14 340q-8 67 -51 95t-154 34v69h500z" />
    <glyph glyph-name="eng" unicode="&#x14b;" horiz-adv-x="1142" 
d="M741 100v475q0 101 -39 149q-38 48 -102 48t-149 -65v-488q0 -96 19 -121t105 -32v-66h-522v66q94 10 115 33q20 24 20 126v426q0 88 -16 112t-92 38v57q170 21 371 76v-146q90 61 118 80q100 61 164 62q125 0 198 -84t73 -238v-313q0 -255 -66 -393t-160 -226
q-96 -100 -172 -100q-34 0 -64 34t-30 84t31 50l123 -35q47 0 61 51t14 340z" />
    <glyph glyph-name="Omacron" unicode="&#x14c;" horiz-adv-x="1568" 
d="M1032 1458h-502v139h502v-139zM778 1274q-170 0 -273 -156t-103 -423t112 -453q113 -186 303 -187q154 -1 253 147t99 435t-110 462q-111 175 -281 175zM807 1360q285 0 481 -192t197 -502q0 -310 -203 -504t-505 -193q-303 0 -497 198t-194 488q0 289 194 497t527 208z
" />
    <glyph glyph-name="omacron" unicode="&#x14d;" horiz-adv-x="1075" 
d="M795 1110h-512v147h512v-147zM520 850q-68 0 -117 -89t-49 -269t58 -309q58 -128 151 -128q72 0 116 74t44 283q-1 210 -53 324t-150 114zM61 432q0 230 150 364q151 134 349 134t327 -135t129 -326q0 -233 -140 -363t-351 -131t-337 137t-127 320z" />
    <glyph glyph-name="Obreve" unicode="&#x14e;" horiz-adv-x="1568" 
d="M1032 1708q0 -281 -259 -281t-261 281h61q29 -133 198 -133t202 133h59zM777 1274q-171 0 -274 -156t-103 -423t112 -453q113 -186 305 -187q154 -1 253 147t99 435t-110 462q-111 175 -282 175zM807 1360q285 0 481 -192t197 -502q0 -310 -203 -504t-505 -193
q-303 0 -497 198t-194 495q0 182 80 338t248 258t393 102z" />
    <glyph glyph-name="obreve" unicode="&#x14f;" horiz-adv-x="1075" 
d="M776 1352q0 -315 -252 -316q-246 0 -245 316h65q16 -76 64 -118t118 -42q148 0 185 160h65zM520 850q-68 0 -117 -89t-49 -269t58 -309q58 -128 151 -128q72 0 116 74t44 283q-1 210 -53 324t-150 114zM61 432q0 230 150 364q151 134 349 134t326 -135t128 -326
q0 -233 -140 -363t-350 -131t-336 137t-127 320z" />
    <glyph glyph-name="Ohungarumlaut" unicode="&#x150;" horiz-adv-x="1568" 
d="M856 1647l-215 -238l-66 23q33 98 82 258q39 8 111 -1t86 -24zM1180 1647l-217 -238l-64 23q33 98 82 258q39 8 111 -1t86 -24zM778 1274q-170 0 -273 -156t-103 -423t112 -453q113 -186 303 -187q154 -1 253 147t99 435t-110 462q-111 175 -281 175zM807 1360
q285 0 481 -192t197 -502q0 -310 -203 -504t-505 -193q-303 0 -497 198t-194 488q0 289 194 497t527 208z" />
    <glyph glyph-name="ohungarumlaut" unicode="&#x151;" horiz-adv-x="1075" 
d="M694 999l-61 23q42 182 74 344q16 10 93 19t103 6l10 -23zM383 999l-61 23q10 45 26 123q16 77 30 145t17 78q16 10 93 20t104 5l10 -25zM520 850q-68 0 -117 -89t-49 -269t58 -309q58 -128 151 -128q72 0 116 74t44 283q-1 210 -53 324t-150 114zM61 432q0 230 150 364
q151 134 349 134t327 -135t129 -326q0 -233 -140 -363t-351 -131t-337 137t-127 320z" />
    <glyph glyph-name="OE" unicode="&#x152;" horiz-adv-x="2031" 
d="M1087 205v938q0 75 -57 99t-156 24q-215 0 -347 -158t-132 -424t127 -443t355 -178q159 0 195 63q15 26 15 79zM1532 1241h-94q-56 0 -68 -11t-12 -61v-434h145q129 0 168 25t60 129h73v-412h-73q-21 109 -59 133t-169 23h-145v-334q0 -100 9 -140q9 -39 45 -55t190 -16
t220 70q64 70 117 209l72 -15q-18 -113 -72 -352h-665q-122 0 -230 -11t-194 -12q-374 0 -570 193q-196 192 -196 490t220 496t583 198l395 -23h606q4 -82 23 -303l-78 -10q-33 117 -83 170t-218 53z" />
    <glyph glyph-name="oe" unicode="&#x153;" horiz-adv-x="1576" 
d="M520 848q-66 0 -117 -90t-53 -265t56 -303t157 -131q66 0 114 78t50 283q1 204 -55 316t-152 112zM1288 631q0 85 -39 149t-97 64t-108 -71t-59 -193q241 6 263 6t31 8t9 37zM55 436q0 226 151 360q152 134 348 134t318 -172q147 172 324 172q144 0 244 -100t100 -232
q0 -61 -55 -76q-82 -16 -510 -33q2 -151 79 -241t200 -90t233 86l37 -49q-78 -121 -178 -170t-177 -50q-205 0 -325 154q-131 -154 -333 -154q-202 -1 -329 139t-127 322z" />
    <glyph glyph-name="Racute" unicode="&#x154;" horiz-adv-x="1349" 
d="M961 1546l-9 -22l-424 -123l-28 55q135 98 354 250q29 -10 65 -64t42 -96zM516 655h53q139 0 201 54q98 83 98 239t-71 229q-72 73 -157 73t-104 -19q-19 -18 -20 -78v-498zM555 573h-39v-299q0 -128 29 -160t145 -42v-72h-618v72q116 10 146 44t30 158v787
q0 123 -28 156t-140 43v71h575q252 0 367 -76q137 -92 137 -272q0 -231 -256 -334q72 -143 172 -300t152 -214q64 -65 125 -88l-13 -65l-61 2q-184 8 -268 52t-152 146q-14 25 -168 303q-47 88 -135 88z" />
    <glyph glyph-name="racute" unicode="&#x155;" horiz-adv-x="827" 
d="M440 1001l-63 27q84 282 100 338q13 10 105 19t118 4l13 -23zM451 715h4q129 215 231 215q59 0 98 -37t39 -90q-1 -53 -29 -94t-69 -57t-66 7q-51 43 -94 43q-68 0 -114 -106v-381q1 -96 25 -119t142 -30v-66h-561v66q86 10 109 32t22 115v449q0 76 -18 96t-92 39v57
q211 29 373 78v-217z" />
    <glyph glyph-name="Rcommaaccent" unicode="&#x156;" horiz-adv-x="1349" 
d="M735 -55q72 -1 124 -55t52 -143q-1 -89 -69 -149t-180 -87l-23 53q131 63 131 141q0 72 -102 98q-31 7 -31 51q-1 44 29 68t69 23zM516 655h53q139 0 201 54q98 83 98 239t-71 229q-72 73 -157 73t-104 -19q-19 -18 -20 -78v-498zM555 573h-39v-299q0 -128 28 -160
t144 -42v-72h-616v72q116 10 146 44t30 158v787q0 123 -28 156t-140 43v71h575q252 0 367 -76q137 -92 137 -272q0 -231 -256 -334q70 -137 171 -298q100 -161 156 -220t122 -84l-13 -65l-61 2q-184 8 -268 51t-152 147q-14 25 -168 303q-47 88 -135 88z" />
    <glyph glyph-name="rcommaaccent" unicode="&#x157;" horiz-adv-x="827" 
d="M309 -84q70 0 123 -55t53 -135q0 -180 -249 -244l-23 53q131 63 131 139t-102 103q-31 4 -31 49q-1 46 29 68t69 22zM451 715h6q125 215 229 215q59 0 98 -37t39 -90q-1 -53 -29 -94t-69 -57t-66 7q-51 43 -94 43q-68 0 -114 -106v-381q1 -96 25 -119t142 -30v-66h-561
v66q86 10 109 32t22 115v449q0 76 -18 96t-92 39v57q211 29 373 78v-217z" />
    <glyph glyph-name="Rcaron" unicode="&#x158;" horiz-adv-x="1349" 
d="M893 1700l33 -53q-117 -88 -273 -252h-63q-119 131 -271 252l33 53q94 -37 271 -119q176 82 270 119zM516 655h53q139 0 201 54q98 83 98 239t-71 229q-72 73 -157 73t-104 -19q-19 -18 -20 -78v-498zM555 573h-39v-299q0 -128 29 -160t145 -42v-72h-618v72
q116 10 146 44t30 158v787q0 123 -28 156t-140 43v71h575q252 0 367 -76q137 -92 137 -272q0 -231 -256 -334q72 -143 172 -300t152 -214q64 -65 125 -88l-13 -65l-61 2q-184 8 -268 52t-152 146q-14 25 -168 303q-47 88 -135 88z" />
    <glyph glyph-name="rcaron" unicode="&#x159;" horiz-adv-x="827" 
d="M637 1411l55 -47q-94 -135 -217 -352h-78q-84 154 -221 352l55 47q45 -37 205 -190q146 145 201 190zM451 715h4q129 215 231 215q59 0 98 -37t39 -90q-1 -53 -29 -94t-69 -57t-66 7q-51 43 -94 43q-68 0 -114 -106v-381q1 -96 25 -119t142 -30v-66h-561v66q86 10 109 32
t22 115v449q0 76 -18 96t-92 39v57q211 29 373 78v-217z" />
    <glyph glyph-name="Sacute" unicode="&#x15a;" horiz-adv-x="1034" 
d="M842 1565l-8 -25l-422 -123l-29 58q297 211 354 249q29 -10 65 -65t40 -94zM549 1278q-86 0 -142 -57q-57 -57 -57 -143t56 -142q56 -57 198 -129q178 -86 270 -183t93 -239q-1 -178 -139 -297t-359 -119q-174 0 -330 74q-31 74 -61 346l72 25q39 -118 119 -230
q99 -133 251 -133q82 -1 137 59t55 152t-58 156q-60 64 -210 141q-150 78 -241 171q-90 93 -90 231q0 173 128 287t341 114q125 0 284 -53q4 -43 18 -145t21 -150l-71 -17q-88 281 -285 281z" />
    <glyph glyph-name="sacute" unicode="&#x15b;" horiz-adv-x="784" 
d="M408 1001l-64 29q90 307 100 336q14 10 106 20t118 5l12 -23zM414 850q-41 0 -73 -32t-32 -79q1 -90 147 -154t214 -130t67 -176q0 -141 -111 -223q-112 -81 -255 -81q-76 0 -149 22t-109 48q-10 27 -21 116q-10 89 -10 158l59 7q39 -111 110 -191t157 -80q50 0 80 32
t30 80t-33 88t-103 74t-101 52t-80 56q-99 77 -99 201t94 207t228 84q135 1 219 -36q33 -78 49 -234l-61 -18q-92 209 -217 209z" />
    <glyph glyph-name="Scircumflex" unicode="&#x15c;" horiz-adv-x="1034" 
d="M844 1464l-33 -53q-68 27 -270 125q-184 -92 -269 -125l-32 53q129 104 270 252h63q105 -113 271 -252zM549 1278q-86 0 -142 -57q-57 -57 -57 -143t56 -142q56 -57 198 -129q178 -86 270 -183t93 -239q-1 -178 -139 -297t-359 -119q-174 0 -330 74q-31 74 -61 346l72 25
q39 -118 119 -230q99 -133 251 -133q82 -1 137 59t55 152t-58 156q-60 64 -210 141q-150 78 -241 171q-90 93 -90 231q0 173 128 287t341 114q125 0 284 -53q4 -43 18 -145t21 -150l-71 -17q-88 281 -285 281z" />
    <glyph glyph-name="scircumflex" unicode="&#x15d;" horiz-adv-x="784" 
d="M659 1036l-57 -45q-39 32 -110 101q-72 69 -93 88q-14 -12 -64 -64t-136 -125l-56 45q117 174 217 355h78q94 -173 221 -355zM414 850q-41 0 -73 -32t-32 -79q1 -90 147 -154t214 -130t67 -176q0 -141 -111 -223q-112 -81 -255 -81q-76 0 -149 22t-109 48q-10 27 -21 116
q-10 89 -10 158l59 7q39 -111 110 -191t157 -80q50 0 80 32t30 80t-33 88t-103 74t-101 52t-80 56q-99 77 -99 201t94 207t228 84q135 1 219 -36q33 -78 49 -234l-61 -18q-92 209 -217 209z" />
    <glyph glyph-name="Scedilla" unicode="&#x15e;" horiz-adv-x="1034" 
d="M391 -432q123 58 123 123q0 31 -47 67q-45 39 -50 70t32 76l61 67q-10 -2 -37 -2q-119 0 -217 33q-57 16 -121 43q-31 74 -61 346l71 23q27 -101 123 -227q104 -134 258 -134q80 1 138 59t57 151t-63 161t-187 131q-172 82 -263 177t-91 233q0 173 127 285t338 112
q150 0 286 -53q10 -92 39 -295l-65 -17q-90 281 -289 281q-90 0 -144 -57q-55 -57 -55 -141t58 -142q58 -59 196 -127q176 -80 268 -179t93 -247q1 -147 -97 -257t-262 -140l-45 -49q-29 -31 23 -76q82 -80 82 -142q0 -137 -256 -204z" />
    <glyph glyph-name="scedilla" unicode="&#x15f;" horiz-adv-x="792" 
d="M420 850q-45 0 -77 -32t-32 -81q-1 -90 147 -152t217 -130t69 -182q0 -115 -76 -187q-74 -72 -183 -94l-41 -49q-31 -29 19 -78q82 -75 82 -141t-66 -121t-182 -88l-27 59q55 24 90 58t35 62t-45 68t-50 70q-5 31 34 76l61 69q-15 -2 -59 -2t-120 24t-110 48
q-8 29 -19 122t-11 165l61 4q39 -113 113 -199t160 -86q49 0 82 33q32 33 32 82t-35 86q-35 38 -149 96t-175 124t-61 178t92 194t253 84q100 2 200 -37q33 -74 49 -234l-63 -20q-94 211 -215 211z" />
    <glyph glyph-name="Scaron" unicode="&#x160;" horiz-adv-x="1034" 
d="M805 1726l31 -53q-100 -78 -271 -252h-61q-133 143 -273 252l35 53q135 -55 269 -120q137 67 270 120zM549 1278q-86 0 -142 -57q-57 -57 -57 -143t56 -142q56 -57 198 -129q178 -86 270 -183t93 -239q-1 -178 -139 -297t-359 -119q-174 0 -330 74q-31 74 -61 346l72 25
q39 -118 119 -230q99 -133 251 -133q82 -1 137 59t55 152t-58 156q-60 64 -210 141q-150 78 -241 171q-90 93 -90 231q0 173 128 287t341 114q125 0 284 -53q4 -43 18 -145t21 -150l-71 -17q-88 281 -285 281z" />
    <glyph glyph-name="scaron" unicode="&#x161;" horiz-adv-x="784" 
d="M412 1221q147 147 200 188l56 -45q-104 -154 -217 -352h-78q-94 168 -219 352l55 45q68 -53 203 -188zM414 850q-41 0 -73 -32t-32 -79q1 -90 147 -154t214 -130t67 -176q0 -141 -111 -223q-112 -81 -255 -81q-76 0 -149 22t-109 48q-10 27 -21 116q-10 89 -10 158l59 7
q39 -111 110 -191t157 -80q50 0 80 32t30 80t-33 88t-103 74t-101 52t-80 56q-99 77 -99 201t94 207t228 84q135 1 219 -36q33 -78 49 -234l-61 -18q-92 209 -217 209z" />
    <glyph glyph-name="Tcommaaccent" unicode="&#x162;" horiz-adv-x="1312" 
d="M652 -74q56 0 107 -54q52 -54 52 -136q0 -180 -250 -244l-20 55q131 61 131 140q0 74 -105 100q-31 10 -30 53q1 86 115 86zM248 1331h825q72 0 117 51h49q2 -118 25 -397l-76 -4q-33 154 -88 213q-47 47 -209 47h-92v-969q-1 -130 31 -160t169 -40v-72h-669v72
q131 10 162 41t30 159v969h-69q-119 0 -165 -13t-71 -42q-43 -43 -86 -207h-76q24 382 25 403h51q23 -33 47 -42t70 -9z" />
    <glyph glyph-name="tcommaaccent" unicode="&#x163;" horiz-adv-x="694" 
d="M362 -98q70 0 123 -56t53 -143q0 -88 -68 -148q-69 -60 -181 -87l-23 53q131 63 131 141q0 72 -102 98q-31 8 -31 52t30 66q30 24 68 24zM424 -25q-252 0 -252 258v574h-127l-12 24l57 74h82v150l234 159l28 -14v-295h201q18 -16 15 -51t-27 -47h-189v-506
q0 -178 115 -178q49 0 104 24l21 -71l-168 -78q-55 -23 -82 -23z" />
    <glyph glyph-name="Tcaron" unicode="&#x164;" horiz-adv-x="1312" 
d="M928 1700l30 -53q-100 -78 -270 -252h-61q-133 143 -273 252l35 53q135 -55 268 -121q138 68 271 121zM248 1331h823q72 0 117 51h51q5 -157 23 -397l-74 -4q-37 160 -87 210t-212 50h-92v-969q-1 -130 31 -160t169 -40v-72h-667v72q131 10 162 41t30 159v969h-69
q-119 0 -165 -13t-71 -42q-43 -43 -86 -207h-76q24 382 25 403h51q23 -33 47 -42t70 -9z" />
    <glyph glyph-name="tcaron" unicode="&#x165;" horiz-adv-x="694" 
d="M646 1466q48 0 93 -54t45 -142t-60 -150t-159 -88l-20 51q111 61 111 139t-83 103q-31 10 -31 51t28 66q28 24 76 24zM424 -25q-252 0 -252 258v574h-129l-10 24l57 74h82v150l234 159l28 -14v-295h201q18 -16 15 -51t-27 -47h-189v-506q0 -178 115 -178q49 0 104 24
l21 -71l-168 -78q-55 -23 -82 -23z" />
    <glyph glyph-name="Tbar" unicode="&#x166;" horiz-adv-x="1304" 
d="M246 1331h819q72 0 117 51h47q1 -111 24 -387l-73 -4q-33 156 -80 204t-230 48h-79v-518h288v-92h-288v-361q-1 -130 31 -160t169 -40v-72h-667v72q132 10 162 41t30 159v361h-289v92h289v518h-57q-119 0 -168 -13t-74 -42q-49 -47 -88 -199h-72l23 393h49q23 -33 47 -42
t70 -9z" />
    <glyph glyph-name="tbar" unicode="&#x167;" horiz-adv-x="688" 
d="M420 -25q-252 0 -252 258v226h-133v88h133v256h-129l-10 24l57 78h82v150l233 159l29 -12v-297h201q18 -16 15 -53t-28 -49h-188v-256h195v-88h-195v-154q0 -74 23 -118t45 -55t64 -11q40 0 87 22l21 -67l-168 -78q-47 -23 -82 -23z" />
    <glyph glyph-name="Utilde" unicode="&#x168;" horiz-adv-x="1492" 
d="M709 1634q43 0 127 -36t134 -36t93 87l61 -31q-63 -201 -188 -201q-41 0 -143 43q-61 31 -113 31t-98 -90l-62 41q72 192 189 192zM1481 1331v-71q-156 -8 -172 -121q-18 -115 -19 -285v-223q0 -354 -145 -508t-377 -154t-367 105q-170 137 -170 483v483q0 141 -27 175
q-28 34 -145 45v71h617v-71q-114 -10 -142 -44t-28 -176v-446q0 -234 84 -360t248 -125q350 0 350 526v219q0 162 -21 285q-10 57 -54 86t-144 35v71h512z" />
    <glyph glyph-name="utilde" unicode="&#x169;" horiz-adv-x="1136" 
d="M702 1219q55 0 103 96l57 -31q-63 -217 -178 -217q-51 0 -137 45q-70 41 -115 41q-61 0 -106 -104l-60 38q70 215 191 216q47 0 128 -42t117 -42zM432 313q0 -180 154 -180q74 0 131 57v498q0 70 -11 90t-55 31l-63 14v60q230 8 391 37v-666q0 -82 14 -106t72 -29l45 -4
v-66q-147 -21 -375 -74l-18 15v123q-66 -53 -103 -76q-90 -61 -176 -62q-128 0 -198 78t-70 213v424q0 68 -12 88t-54 31l-47 14v60q216 11 381 37q-6 -86 -6 -310v-297z" />
    <glyph glyph-name="Umacron" unicode="&#x16a;" horiz-adv-x="1492" 
d="M535 1597h503v-137l-503 -2v139zM1481 1331v-71q-156 -8 -172 -121q-18 -115 -19 -285v-223q0 -354 -145 -508t-377 -154t-367 105q-170 135 -170 483v483q0 141 -27 175q-28 34 -145 45v71h617v-71q-114 -10 -142 -44t-28 -176v-446q0 -234 84 -360t248 -125
q350 0 350 526v219q0 162 -21 285q-10 57 -53 86t-145 35v71h512z" />
    <glyph glyph-name="umacron" unicode="&#x16b;" horiz-adv-x="1136" 
d="M817 1110h-510v147h510v-147zM432 313q0 -180 154 -180q74 0 131 57v498q0 72 -11 91t-55 30l-63 14v60q223 7 391 37v-666q0 -80 15 -104t71 -31l45 -4v-66q-147 -21 -375 -74l-18 15v123q-66 -53 -103 -76q-90 -61 -176 -62q-128 0 -198 78t-70 213v424q0 68 -12 88
t-54 31l-47 14v60q216 11 381 37q-6 -86 -6 -310v-297z" />
    <glyph glyph-name="Ubreve" unicode="&#x16c;" horiz-adv-x="1492" 
d="M1077 1686q0 -281 -259 -281t-261 281h61q29 -133 199 -133t199 133h61zM1481 1331v-71q-156 -8 -172 -121q-18 -115 -19 -285v-223q0 -354 -145 -508t-377 -154t-367 105q-172 135 -172 483v483q0 141 -26 175q-27 34 -144 45v71h617v-71q-117 -10 -145 -44t-27 -176
v-446q0 -234 84 -360t250 -125q350 0 350 526v219q0 162 -21 285q-10 57 -53 86t-145 35v71h512z" />
    <glyph glyph-name="ubreve" unicode="&#x16d;" horiz-adv-x="1136" 
d="M811 1350q0 -311 -252 -312q-246 0 -246 312h64q35 -158 185 -158t186 158h63zM432 313q0 -180 154 -180q74 0 131 57v498q0 72 -11 91t-55 30l-63 14v60q230 8 391 37v-666q0 -80 15 -104t71 -31l45 -4v-66q-147 -21 -375 -74l-18 15v123q-66 -53 -103 -76
q-90 -61 -176 -62q-128 0 -198 78t-70 213v424q0 68 -12 88t-54 31l-47 14v60q216 11 381 37q-6 -86 -6 -310v-297z" />
    <glyph glyph-name="Uring" unicode="&#x16e;" horiz-adv-x="1492" 
d="M809 1458q41 0 65 30t25 77q-1 47 -25 77t-66 29q-42 0 -69 -30q-27 -29 -27 -75t28 -77t69 -31zM807 1749q78 0 136 -51t58 -132t-59 -133q-59 -53 -136 -53t-135 52t-59 135q0 82 58 132t137 50zM1481 1331v-71q-156 -8 -172 -121q-18 -115 -19 -285v-223
q0 -354 -145 -508t-377 -154t-367 105q-170 137 -170 483v483q0 141 -27 175q-28 34 -145 45v71h617v-71q-114 -10 -142 -44t-28 -176v-446q0 -234 84 -360t248 -125q350 0 350 526v219q0 162 -21 285q-10 57 -54 86t-144 35v71h512z" />
    <glyph glyph-name="uring" unicode="&#x16f;" horiz-adv-x="1136" 
d="M571 1102q41 0 66 30t25 76t-25 76q-25 29 -66 29t-69 -29t-27 -76q-1 -46 27 -76t69 -30zM567 1020q-78 0 -136 53t-58 136t58 134t136 51q77 0 137 -50q60 -52 60 -135t-60 -136t-137 -53zM432 313q0 -180 154 -180q74 0 131 57v498q0 72 -11 91t-55 30l-63 14v60
q230 8 391 37v-666q0 -80 15 -104t71 -31l45 -4v-66q-147 -21 -375 -74l-18 15v123q-66 -53 -103 -76q-90 -61 -176 -62q-128 0 -198 78t-70 213v424q0 68 -12 88t-54 31l-47 14v60q216 11 381 37q-6 -86 -6 -310v-297z" />
    <glyph glyph-name="Uhungarumlaut" unicode="&#x170;" horiz-adv-x="1492" 
d="M842 1636l-215 -237l-66 22q33 98 82 258q39 8 111 -1t86 -23zM1165 1636l-217 -237l-63 22q33 98 82 258q39 8 111 -1t85 -23zM1481 1331v-71q-156 -8 -172 -121q-18 -115 -19 -285v-223q0 -354 -145 -508t-377 -154t-367 105q-170 137 -170 483v483q0 141 -27 175
q-28 34 -145 45v71h617v-71q-114 -10 -142 -44t-28 -176v-446q0 -234 84 -360t248 -125q350 0 350 526v219q0 162 -21 285q-10 57 -54 86t-144 35v71h512z" />
    <glyph glyph-name="uhungarumlaut" unicode="&#x171;" horiz-adv-x="1136" 
d="M721 999l-62 21q38 168 74 346q14 10 92 19t105 6l10 -21zM350 1022q72 324 72 344q16 10 93 19t103 6l11 -21l-219 -371zM432 313q0 -180 154 -180q74 0 131 57v498q0 72 -11 91t-55 30l-63 14v60q230 8 391 37v-666q0 -80 15 -104t71 -31l45 -4v-66q-147 -21 -375 -74
l-18 15v123q-66 -53 -103 -76q-90 -61 -176 -62q-128 0 -198 78t-70 213v424q0 68 -12 88t-54 31l-47 14v60q216 11 381 37q-6 -86 -6 -310v-297z" />
    <glyph glyph-name="Uogonek" unicode="&#x172;" horiz-adv-x="1492" 
d="M780 -250q0 -90 106 -90q46 0 87 21l16 -62l-127 -74q-32 -20 -98 -20t-110 46t-44 110q0 133 199 294q-260 -14 -408 101q-170 133 -170 481v483q0 141 -27 175q-28 34 -145 45v71h617v-71q-114 -10 -142 -44t-28 -176v-442q0 -233 83 -359t245 -126q354 0 354 526v215
q0 174 -19 285q-8 55 -54 85t-148 36v71h516v-71q-158 -8 -174 -121q-16 -102 -17 -285v-221q0 -356 -149 -514q-90 -94 -238 -127q-125 -131 -125 -242z" />
    <glyph glyph-name="uogonek" unicode="&#x173;" horiz-adv-x="1136" 
d="M430 311q0 -180 148 -180q70 0 139 66v489q1 70 -13 92t-55 31l-61 14v60q240 9 391 37v-670q0 -80 14 -103t72 -28l49 -4v-64q-121 -20 -164 -28q-74 -53 -119 -131t-45 -138q0 -90 101 -90q41 0 94 23l16 -60l-137 -76q-49 -25 -78 -24q-84 0 -128 43t-44 120t72 169
t152 139q-94 -19 -105 -23q-6 6 -12 15v123q-166 -137 -287 -137q-122 -1 -192 77t-70 213v422q0 68 -12 90t-54 31l-51 14v60q198 8 385 37q-6 -86 -6 -310v-299z" />
    <glyph glyph-name="Wcircumflex" unicode="&#x174;" horiz-adv-x="2004" 
d="M1362 1438l-33 -54q-68 27 -270 125q-184 -92 -268 -125l-33 54q129 102 270 252h64q104 -113 270 -252zM27 1331h604v-71q-111 -12 -133 -43t6 -109q115 -403 207 -705h4q184 545 295 916h98q172 -469 344 -924h6q113 367 191 692q27 92 0 127t-146 46v71h482v-71
q-105 -16 -145 -54t-83 -166q-168 -496 -338 -1063h-106l-336 910h-4l-307 -910h-107q-29 93 -145 479t-168 552t-90 202t-129 50v71z" />
    <glyph glyph-name="wcircumflex" unicode="&#x175;" horiz-adv-x="1398" 
d="M965 991q-32 26 -203 189q-14 -12 -67 -67t-134 -122l-55 45q117 174 217 355h78q94 -173 221 -355zM6 905h506v-65q-88 -14 -106 -34t1 -83q19 -64 61 -202t56 -187h4q6 14 213 561h80q49 -127 234 -565h4q89 278 109 364t0 109t-113 37v65h377v-65q-72 -12 -98 -35
t-68 -129t-252 -699h-78q-31 76 -114 272t-126 300l-227 -572h-78q-45 139 -130 391t-113 334t-54 106t-88 32v65z" />
    <glyph glyph-name="Ycircumflex" unicode="&#x176;" horiz-adv-x="1341" 
d="M1016 1454l-35 -53q-10 4 -270 125q-236 -113 -269 -125l-32 53q113 90 270 252h63q123 -129 273 -252zM1323 1331v-71q-94 -10 -140 -44q-97 -73 -335 -530q-37 -72 -37 -141v-262q0 -139 31 -171t168 -42v-70h-666v70q133 10 163 43t30 170v227q0 53 -27 113
q-70 139 -254 464q-55 97 -96 129t-127 44v71h583v-71q-94 -12 -110 -37t16 -84t70 -133q39 -74 88 -166t76 -144q186 367 213 434q31 62 9 90t-130 40v71h475z" />
    <glyph glyph-name="ycircumflex" unicode="&#x177;" horiz-adv-x="952" 
d="M776 1036l-57 -45q-50 42 -116 106t-87 83q-14 -12 -67 -67t-134 -122l-55 45q117 174 217 355h78q94 -173 221 -355zM989 905v-65q-75 -12 -103 -38t-59 -92t-211 -497q-180 -432 -249 -659q-19 -56 -71 -56t-101 40t-49 87t57 82q115 61 156 133t52 107t-10 90
q-172 477 -258 676q-29 69 -57 93t-100 34v65h506v-65q-68 -14 -81 -30t1 -67l153 -452q68 168 154 436q16 51 -4 75t-94 38v65h368z" />
    <glyph glyph-name="Ydieresis" unicode="&#x178;" horiz-adv-x="1341" 
d="M489 1696q57 0 97 -40t41 -96q0 -56 -41 -96q-42 -40 -98 -41q-56 0 -97 40q-41 41 -41 97t41 96t98 40zM921 1696q58 0 97 -39t39 -96t-40 -97t-97 -41q-57 0 -99 40q-41 41 -41 97t41 96q42 40 100 40zM1323 1331v-71q-94 -10 -140 -44t-106 -129q-121 -193 -227 -401
q-37 -66 -37 -141v-262q0 -139 30 -171t167 -42v-70h-664v70q131 10 162 43t31 170v227q0 55 -29 113q-70 139 -254 464q-55 97 -96 129t-127 44v71h583v-71q-94 -12 -110 -37t16 -84t70 -133q39 -74 88 -166t76 -144q186 367 213 434q31 62 9 90t-130 40v71h475z" />
    <glyph glyph-name="Zacute" unicode="&#x179;" horiz-adv-x="1267" 
d="M1028 1546l-8 -24l-422 -123l-29 57q135 98 355 250q28 -10 64 -66t40 -94zM348 1331h832l16 -31q-731 -1139 -766 -1196q102 -12 254 -12q291 0 362 66t130 237l67 -16q-45 -283 -74 -379h-1087l-23 35q252 381 781 1204h-258q-146 0 -200 -15t-81 -57q-53 -80 -80 -194
l-67 2l22 407h53q23 -33 45 -42t74 -9z" />
    <glyph glyph-name="zacute" unicode="&#x17a;" horiz-adv-x="911" 
d="M463 1001l-64 27q14 47 55 182q40 135 46 156q14 10 105 19t118 6l12 -23zM403 817q-102 0 -151 -30t-94 -115l-35 -68l-62 27q49 172 82 319h45q23 -45 125 -47h502l19 -26q-68 -115 -451 -787h131q113 0 174 33t117 131l35 57l59 -28q-94 -274 -96 -283h-727l-27 33
q170 270 461 784h-107z" />
    <glyph glyph-name="Zdotaccent" unicode="&#x17b;" horiz-adv-x="1267" 
d="M679 1726q60 0 102 -42t42 -101t-43 -101t-102 -42t-103 43q-43 43 -43 101t43 100q44 42 104 42zM348 1331h832l16 -31q-526 -815 -766 -1196q102 -12 254 -12q291 0 362 68t128 235l69 -16q-45 -283 -74 -379h-1087l-23 35q252 381 781 1204h-258q-146 0 -200 -15
t-81 -57q-53 -80 -80 -194l-67 2l22 407h53q23 -33 45 -42t74 -9z" />
    <glyph glyph-name="zdotaccent" unicode="&#x17c;" horiz-adv-x="911" 
d="M334 1204q0 58 43 100t103 42t102 -41t43 -101t-43 -103q-44 -42 -103 -42t-102 43t-43 102zM403 815q-102 0 -151 -30t-94 -115l-35 -68l-62 29q47 164 82 317h45q23 -45 125 -43h502l19 -28q-195 -336 -449 -787h129q113 0 174 33t117 131l35 57l59 -28
q-94 -274 -96 -283h-727l-27 33q162 258 463 782h-109z" />
    <glyph glyph-name="Zcaron" unicode="&#x17d;" horiz-adv-x="1267" 
d="M940 1700l31 -53q-100 -78 -271 -252h-61q-125 135 -272 252l32 53q150 -61 271 -121q137 68 270 121zM348 1331h832l16 -31q-731 -1139 -766 -1196q102 -12 254 -12q291 0 362 66t130 237l67 -16q-45 -283 -74 -379h-1087l-23 35q252 381 781 1204h-258q-146 0 -200 -15
t-81 -57q-53 -80 -80 -194l-67 2l22 407h53q23 -33 45 -42t74 -9z" />
    <glyph glyph-name="zcaron" unicode="&#x17e;" horiz-adv-x="911" 
d="M666 1411l55 -45q-76 -111 -217 -354h-78q-86 160 -219 354l55 45q29 -25 205 -188q170 165 199 188zM403 817q-102 0 -151 -30t-94 -115l-35 -68l-62 27q49 172 82 319h45q23 -45 125 -47h502l19 -26q-68 -115 -451 -787h131q113 0 174 33t117 131l35 57l59 -28
q-94 -274 -96 -283h-727l-27 33q170 270 461 784h-107z" />
    <glyph glyph-name="longs" unicode="&#x17f;" horiz-adv-x="606" 
d="M451 225q0 -98 20 -123t104 -36v-66h-507v66q84 10 102 34t18 117v590h-131l-10 24l59 74h82v35q0 61 27 141q43 143 178 250q104 90 234 109q127 -6 182 -62q43 -39 18 -94q-12 -37 -57 -71t-74 -3q-111 111 -178 111q-57 0 -69 -82q-4 -51 -5 -85l7 -310v-619z" />
    <glyph glyph-name="florin" unicode="&#x192;" horiz-adv-x="1024" 
d="M846 1335q49 1 97 -29t46 -71t-33 -80t-57 -41q-15 0 -73 55t-93 56q-35 0 -53 -54q-25 -59 -68 -401h217v-94h-231l-45 -291q-46 -293 -141 -424q-49 -69 -88 -103t-122 -88t-173 -53q-47 0 -86 28t-39 68q0 41 37 79t65 38q10 0 64 -45t87 -45q34 0 48 52t45 280
l67 504h-178v94h195l14 76q43 229 205 359t293 130z" />
    <glyph glyph-name="Ohorn" unicode="&#x1a0;" horiz-adv-x="1568" 
d="M807 1360q231 0 407 -129q38 -21 90 -21t78 24t27 48q0 24 -15 35q-15 10 -46 15q-32 6 -52 24t-20 54t30 63t84 27t94 -44q40 -43 40 -125t-58 -133t-155 -57q172 -182 172 -461q0 -324 -202 -518t-504 -193q-303 0 -497 199t-194 486t182 489q88 97 228 157t311 60z
M777 1276q-169 0 -273 -157t-104 -424t113 -453q114 -186 304 -187q154 -1 253 147t99 435t-111 463q-112 176 -281 176z" />
    <glyph glyph-name="ohorn" unicode="&#x1a1;" horiz-adv-x="1103" 
d="M551 930q135 0 258 -68q37 -18 82 -18t72 17t27 37t-14 32q-13 10 -48 18q-58 14 -58 60t30 72t78 26t83 -39t35 -113t-54 -120t-143 -56q117 -127 117 -309q0 -233 -140 -363t-351 -131t-337 137t-127 320q0 230 150 364t340 134zM520 850q-68 0 -117 -89t-49 -269
t58 -309q58 -128 151 -128q72 0 116 74t44 283q-1 210 -53 324t-150 114z" />
    <glyph glyph-name="Uhorn" unicode="&#x1af;" horiz-adv-x="1492" 
d="M969 1331h374q61 1 97 19t37 47q1 39 -65 55t-66 74q0 42 28 68t81 26q52 0 90 -43t38 -119t-40 -125q-41 -49 -105 -69t-94 -49q-30 -28 -41 -104q-12 -76 -13 -257v-223q0 -354 -145 -508t-377 -154t-367 107q-170 131 -170 481v481q0 141 -27 176q-28 35 -145 46v71
h617v-71q-114 -10 -142 -46t-28 -176v-444q0 -234 84 -360t248 -125q350 0 350 526v219q0 162 -21 285q-8 55 -53 85t-145 36v71z" />
    <glyph glyph-name="uhorn" unicode="&#x1b0;" horiz-adv-x="1165" 
d="M170 266v424q0 68 -12 88t-54 31l-47 14v60q197 9 379 37q-6 -129 -6 -310v-297q0 -92 41 -136t115 -44t133 57v498q0 70 -12 90t-54 31l-65 14v60q276 10 356 28q109 20 109 72q0 41 -68 49q-57 12 -57 70q0 40 28 66t78 26q49 0 86 -39t37 -117t-53 -124t-125 -66v-594
q0 -82 15 -106t71 -29l45 -4v-66q-165 -23 -375 -74l-16 15v123q-82 -63 -103 -76q-94 -61 -178 -62q-128 0 -198 77t-70 214z" />
    <glyph glyph-name="Aringacute" unicode="&#x1fa;" horiz-adv-x="1445" 
d="M1034 1937l-8 -24l-422 -123l-29 57q297 209 355 250q28 -9 64 -65t40 -95zM724 1690q-42 0 -69 -30t-27 -76t28 -77t69 -31t66 30t25 77t-25 77t-67 30zM723 1767q78 0 136 -51q59 -51 59 -132t-60 -133t-136 -52q-77 0 -135 52t-59 134q0 82 58 132t137 50zM799 545
l-152 444h-6q-33 -88 -92 -252t-70 -192h320zM1407 0h-586v72q88 14 107 40q18 26 -14 118t-76 206h-394q-51 -145 -73 -219q-27 -73 -5 -103t130 -42v-72h-459v72q102 12 140 47t89 164l420 1052l105 27q362 -990 403 -1096t78 -144t135 -50v-72z" />
    <glyph glyph-name="aringacute" unicode="&#x1fb;" horiz-adv-x="954" 
d="M485 1446l-63 29q90 307 100 335q14 10 106 20t117 5l13 -23zM479 1102q41 0 66 30t25 76t-25 76q-25 29 -66 29t-67 -29t-27 -76q1 -46 27 -76t67 -30zM475 1020q-78 0 -136 53t-58 136t59 134t137 51t137 -50q60 -52 60 -135t-60 -136t-139 -53zM334 293q0 -84 40 -124
t83 -40t86 33v327q-73 -44 -113 -63q-96 -49 -96 -133zM338 -25q-123 0 -200 80q-77 81 -77 171t37 132q38 42 92 64q75 30 196 74t157 73v62q0 94 -34 147t-83 53q-49 1 -78 -37t-55 -141q-18 -70 -86 -69q-43 0 -86 32t-43 72q0 41 72 96q162 111 339 146q121 0 191 -54
t94 -118q23 -64 23 -158v-338q0 -121 65 -121q33 0 70 17l20 -66l-223 -117q-78 0 -120 37t-56 82q-180 -119 -215 -119z" />
    <glyph glyph-name="AEacute" unicode="&#x1fc;" horiz-adv-x="1806" 
d="M1454 1548l-8 -22l-424 -125l-29 57q297 211 355 250q30 -10 66 -64t40 -96zM868 696v529q-20 0 -45 -6q-219 -444 -256 -523h301zM684 0v72q125 10 155 47t29 178v299h-344q-82 -164 -168 -358q-38 -88 -18 -120t133 -46v-72h-502l2 72q98 12 148 49q49 37 106 141
q193 350 463 891q25 47 19 67t-54 25l-121 17v71h1131q6 -121 23 -301l-74 -12q-35 131 -80 177t-207 46h-106q-57 0 -69 -10t-13 -62v-477h133q137 0 176 25t55 127h76v-414h-76q-16 110 -54 136t-177 28h-133v-313q0 -88 10 -125t41 -52q38 -16 194 -16t213 66
q76 79 123 202l68 -18q-27 -166 -76 -340h-1026z" />
    <glyph glyph-name="aeacute" unicode="&#x1fd;" horiz-adv-x="1374" 
d="M702 1001l-63 27q80 276 100 338q13 10 105 20t119 5l12 -23zM463 137q82 0 137 72q-47 109 -47 285q-82 -41 -125 -66q-94 -55 -94 -134t40 -118t89 -39zM956 844q-59 0 -105 -71t-56 -191q267 0 282 13q14 13 15 42q0 79 -38 143t-98 64zM555 625q0 92 -41 148t-87 56
q-46 -1 -75 -35t-53 -137q-20 -70 -88 -69q-39 0 -83 30t-44 75q0 44 74 93q156 104 336 144q94 0 163 -51q55 -35 74 -78q57 59 132 94t141 35q143 0 241 -102t98 -230q0 -37 -12 -53q-12 -15 -57 -27t-490 -31q-2 -161 79 -245t199 -84t228 86l39 -51q-82 -119 -183 -168
t-177 -50q-225 0 -334 172l-62 -51q-141 -121 -249 -121t-185 79q-76 79 -76 167t37 136t97 71t185 67q124 44 173 78v52z" />
    <glyph glyph-name="Oslashacute" unicode="&#x1fe;" horiz-adv-x="1579" 
d="M1102 1561l-8 -25l-422 -123l-29 57q135 98 354 250q29 -10 65 -65t40 -94zM813 55q164 0 269 151q106 152 106 412t-84 424l-569 -833q47 -74 121 -114t157 -40zM782 1276q-170 0 -282 -159t-111 -409q0 -250 96 -419l572 829q-105 158 -275 158zM1493 686
q0 -322 -204 -520t-513 -197q-201 0 -352 90l-117 -165l-63 53l108 157q-122 94 -194 240t-72 295q0 280 177 494q85 102 227 165q142 64 332 64t341 -90l107 155l65 -47l-100 -157q117 -97 187 -235t71 -302z" />
    <glyph glyph-name="oslashacute" unicode="&#x1ff;" horiz-adv-x="1087" 
d="M530 1001l-63 27q96 324 100 338q13 10 105 19t116 4l13 -21zM563 57q193 0 193 373q0 136 -35 232l-315 -484q59 -121 157 -121zM334 513q0 -155 35 -253l313 479q-59 106 -156 107q-70 0 -131 -89t-61 -244zM1026 471q0 -234 -142 -365t-341 -131q-129 0 -242 56
l-72 -105l-59 47l70 103q-86 63 -132 158t-47 198q0 226 152 362t342 136q123 0 223 -53l72 102l57 -43l-67 -100q186 -131 186 -365z" />
    <glyph glyph-name="Scommaaccent" unicode="&#x218;" horiz-adv-x="1034" 
d="M520 -111q56 0 109 -55t53 -135q0 -180 -250 -244l-22 53q131 63 131 142q0 74 -103 100q-33 10 -32 53q0 86 114 86zM551 1278q-88 0 -144 -57q-57 -57 -57 -143t58 -142q58 -57 216 -137q160 -80 252 -176t91 -238q-1 -178 -139 -297t-359 -119q-174 0 -330 74
q-31 74 -61 346l72 25q39 -118 119 -230q99 -133 251 -133q82 -1 138 59t56 152t-60 156t-210 141q-150 78 -241 171q-90 93 -90 231q0 173 128 287t341 114q119 0 286 -53q12 -105 39 -295l-71 -17q-94 281 -285 281z" />
    <glyph glyph-name="scommaaccent" unicode="&#x219;" horiz-adv-x="784" 
d="M383 -96q70 0 123 -54t53 -137q0 -180 -250 -243l-22 55q131 59 131 136t-103 103q-31 8 -31 52t30 66t69 22zM414 850q-41 0 -73 -32t-32 -79q1 -90 147 -154t214 -130t67 -176q0 -141 -112 -223q-113 -81 -256 -81q-74 0 -147 22t-109 48q-10 27 -21 116
q-10 89 -10 158l59 7q39 -111 109 -191t156 -80q50 0 80 32t30 80t-33 88t-103 74t-100 51q-178 102 -178 258q0 124 94 207t228 84q135 1 219 -36q33 -78 49 -234l-63 -18q-92 209 -215 209z" />
    <glyph glyph-name="uni021A" unicode="&#x21a;" horiz-adv-x="1312" 
d="M652 -74q56 0 107 -54q52 -54 52 -136q0 -180 -250 -244l-20 55q131 61 131 140q0 74 -105 100q-31 10 -30 53q1 86 115 86zM248 1331h825q72 0 117 51h49q2 -118 25 -397l-76 -4q-33 154 -88 213q-47 47 -209 47h-92v-969q-1 -130 31 -160t169 -40v-72h-669v72
q131 10 162 41t30 159v969h-69q-119 0 -165 -13t-71 -42q-43 -43 -86 -207h-76q24 382 25 403h51q23 -33 47 -42t70 -9z" />
    <glyph glyph-name="uni021B" unicode="&#x21b;" horiz-adv-x="694" 
d="M365 -98q71 0 123 -56t52 -143q0 -88 -68 -148q-69 -60 -181 -87l-23 53q131 63 131 141q0 72 -102 98q-31 8 -31 52t30 66q30 24 69 24zM424 -25q-252 0 -252 258v574h-127l-12 24l57 74h82v150l234 159l28 -14v-295h201q18 -16 15 -51t-27 -47h-189v-506
q0 -178 115 -178q49 0 104 24l21 -71l-168 -78q-55 -23 -82 -23z" />
    <glyph glyph-name="uni021C" unicode="&#x21c;" horiz-adv-x="1110" 
d="M643 1004q0 128 -56 196q-56 66 -141 66q-174 0 -280 -305l-78 14q35 188 49 303q31 8 93 26q186 56 333 56t259 -78t114 -207q0 -186 -266 -332v-4q160 -29 261 -128t101 -253q0 -233 -225 -404t-590 -212l-147 108l22 52q135 -35 221 -35q180 0 298 104
q118 103 118 275t-86 252t-172 80t-217 -48l-29 82q223 84 321 174q97 90 97 218z" />
    <glyph glyph-name="uni021D" unicode="&#x21d;" horiz-adv-x="831" 
d="M426 587q0 89 -42 133t-118 44t-196 -107l-50 54q176 219 369 219q127 0 213 -70t86 -184t-113 -205q-23 -18 -79 -53v-6q120 -29 200 -114t80 -206q0 -206 -190 -360t-471 -191l-119 86l20 47q82 -20 144 -20q150 0 242 91t94 237q0 146 -60 203q-60 59 -131 59
q-70 0 -162 -29l-24 68q167 67 237 141t70 163z" />
    <glyph glyph-name="uni0232" unicode="&#x232;" horiz-adv-x="1341" 
d="M975 1458h-502v139h502v-139zM1323 1331v-71q-94 -10 -140 -44t-106 -129q-131 -209 -229 -401q-37 -66 -37 -141v-262q0 -139 30 -171t169 -42v-70h-666v70q133 10 163 43t30 170v227q0 53 -27 113q-70 139 -254 464q-55 97 -96 129t-127 44v71h583v-71
q-94 -12 -110 -37t16 -84t70 -133q39 -74 88 -166t76 -144q186 367 213 434q31 62 9 90t-130 40v71h475z" />
    <glyph glyph-name="uni0233" unicode="&#x233;" horiz-adv-x="952" 
d="M780 1110h-512v147h512v-147zM989 905v-65q-75 -12 -103 -38t-59 -92t-211 -497q-180 -432 -249 -659q-19 -56 -71 -56t-101 40t-49 87t57 82q115 61 156 133t52 107t-10 90q-172 477 -258 676q-29 69 -57 93t-100 34v65h506v-65q-68 -14 -81 -30t1 -67l153 -452
q68 168 154 436q16 51 -4 75t-94 38v65h368z" />
    <glyph glyph-name="uni0237" unicode="&#x237;" horiz-adv-x="589" 
d="M453 264q-1 -193 -57 -327q-56 -135 -147 -253t-136 -151t-73 -33t-56 34t-29 84q0 50 49 50q131 6 154 41q32 66 32 531v385q0 106 -19 131t-105 39v61q143 16 387 74v-666z" />
    <glyph glyph-name="circumflex" unicode="&#x2c6;" 
d="M610 991q-24 20 -202 189q-14 -12 -65 -65t-136 -124l-55 45q117 174 217 355h77q95 -173 222 -355z" />
    <glyph glyph-name="caron" unicode="&#x2c7;" 
d="M412 1221q147 147 200 188l56 -45q-104 -154 -217 -352h-78q-94 168 -219 352l55 45q68 -53 203 -188z" />
    <glyph glyph-name="uni02C9" unicode="&#x2c9;" 
d="M666 1110h-512v147h512v-147z" />
    <glyph glyph-name="breve" unicode="&#x2d8;" 
d="M659 1350q0 -311 -251 -312q-248 0 -248 312h65q33 -158 185 -158t184 158h65z" />
    <glyph glyph-name="dotaccent" unicode="&#x2d9;" 
d="M410 1059q-59 0 -103 43q-43 43 -43 102q0 58 43 100t103 42t103 -41q42 -41 42 -101t-43 -103q-43 -42 -102 -42z" />
    <glyph glyph-name="ring" unicode="&#x2da;" 
d="M412 1102q42 0 66 30t24 76t-25 76q-25 29 -65 29t-68 -29q-27 -29 -27 -76q0 -46 27 -76t68 -30zM408 1020q-78 0 -137 53q-58 53 -58 136t59 134q60 51 138 51t137 -50q59 -52 59 -135t-60 -136t-138 -53z" />
    <glyph glyph-name="ogonek" unicode="&#x2db;" 
d="M403 -465q-77 0 -123 47t-47 111q0 106 162 307h78q-82 -131 -82 -242q0 -48 28 -74q27 -26 65 -26t85 20l17 -59l-103 -61q-41 -23 -80 -23z" />
    <glyph glyph-name="tilde" unicode="&#x2dc;" 
d="M543 1217q55 0 102 98l57 -31q-63 -217 -178 -217q-51 0 -137 45q-70 41 -115 41q-61 0 -106 -104l-60 38q70 215 191 216q47 0 130 -43t116 -43z" />
    <glyph glyph-name="hungarumlaut" unicode="&#x2dd;" 
d="M575 999l-61 23q38 168 74 346q16 10 93 20t103 5l11 -25zM264 999l-61 23q10 45 26 123q17 77 31 145t16 78q16 10 94 20t103 5l10 -25z" />
    <glyph glyph-name="uni0374" unicode="&#x374;" horiz-adv-x="540" 
d="M498 1321l10 -39q-154 -276 -297 -524l-66 10q55 252 107 563q23 14 121 10t125 -20z" />
    <glyph glyph-name="uni0375" unicode="&#x375;" horiz-adv-x="540" 
d="M424 287l10 -39q-180 -330 -297 -524l-67 10q53 236 108 563q20 14 120 10t126 -20z" />
    <glyph glyph-name="uni037E" unicode="&#x37e;" horiz-adv-x="540" 
d="M109 -276l-68 14q76 332 113 559q20 14 119 10t126 -20l11 -39q-137 -252 -301 -524zM284 510q-73 0 -121 49t-48 124t48 124t121 49t122 -48t49 -124t-49 -125t-122 -49z" />
    <glyph glyph-name="tonos" unicode="&#x384;" 
d="M594 1389l-152 -371l-67 -2q6 358 6 366q12 14 92 26t107 5z" />
    <glyph glyph-name="dieresistonos" unicode="&#x385;" 
d="M162 1040q-51 0 -83 32t-32 83t33 88t82 37t82 -38q32 -38 32 -88t-32 -82t-82 -32zM530 1362l-110 -373h-62q-20 303 -24 371q12 8 89 19t97 10zM659 1040q-51 0 -84 32t-33 82t35 88q34 38 83 38q50 0 82 -38t32 -87t-32 -82t-83 -33z" />
    <glyph glyph-name="Alphatonos" unicode="&#x386;" horiz-adv-x="1445" 
d="M459 1452l-150 -373l-67 -2q6 358 6 367q12 14 92 25t106 6zM799 545l-152 442h-6q-53 -140 -99 -267q-45 -126 -63 -175h320zM1407 0h-586v72q88 14 107 40q18 26 -14 118t-76 206h-394q-51 -145 -73 -219q-27 -73 -5 -103t130 -42v-72h-459v72q102 12 140 47t89 164
l420 1050l105 27q16 -43 163 -450q147 -406 214 -578t104 -210t135 -50v-72z" />
    <glyph glyph-name="anoteleia" unicode="&#x387;" horiz-adv-x="540" 
d="M269 381q-73 0 -121 49t-48 124t48 124t121 49t122 -48t49 -124t-49 -125t-122 -49z" />
    <glyph glyph-name="Epsilontonos" unicode="&#x388;" horiz-adv-x="1189" 
d="M23 1450l-154 -369l-68 -4q10 283 9 369q10 12 91 24t105 5zM1047 1331q0 -42 20 -307l-76 -10q-33 127 -82 177t-204 50h-99q-57 0 -70 -11t-14 -61v-434h137q133 0 170 25t58 129h74v-412h-74q-19 109 -57 133t-171 23h-137v-354q0 -145 48 -167t200 -24q152 0 212 66
t114 200l73 -14q-27 -170 -71 -340h-1045v72q133 10 164 41t31 159v787q0 131 -27 161t-139 40v71h965z" />
    <glyph glyph-name="Etatonos" unicode="&#x389;" horiz-adv-x="1603" 
d="M12 1450l-151 -371l-68 -2q6 358 6 367q12 14 92 25t107 6zM1528 1331v-71q-121 -10 -147 -40t-25 -161v-789q0 -128 26 -158t146 -40v-72h-625v72q123 10 151 41t27 159v381h-559v-381q0 -130 27 -160t141 -40v-72h-610v72q116 10 142 41t26 159v787q0 129 -28 160
t-148 41v71h614v-71q-112 -10 -138 -41t-26 -160v-301h559v301q0 129 -26 160q-27 31 -144 41v71h617z" />
    <glyph glyph-name="Iotatonos" unicode="&#x38a;" horiz-adv-x="774" 
d="M16 1450l-151 -371l-68 -2q6 358 6 367q13 14 93 25t106 6zM692 0h-616v72q116 10 144 42t28 158v785q0 129 -28 161t-144 42v71h616v-71q-118 -10 -144 -41t-26 -162v-785q0 -126 27 -158t143 -42v-72z" />
    <glyph glyph-name="Omicrontonos" unicode="&#x38c;" horiz-adv-x="1568" 
d="M172 1430l-152 -371l-67 -2q6 358 6 366q12 13 92 25t107 6zM778 1274q-170 0 -273 -156t-103 -423t112 -453q113 -186 303 -187q154 -1 253 147t99 435t-110 462q-111 175 -281 175zM807 1360q285 0 481 -192t197 -502q0 -310 -203 -504t-505 -193q-303 0 -497 198
t-194 488q0 289 194 497t527 208z" />
    <glyph glyph-name="Upsilontonos" unicode="&#x38e;" horiz-adv-x="1363" 
d="M-25 1452l-153 -371l-68 -4q6 360 6 369q12 12 92 24t107 5zM821 401v-137q0 -70 3 -102t28 -52q24 -22 52 -26t102 -10v-74h-650v74q129 10 159 38t30 152v139q0 301 -74 484q-133 328 -401 327q-35 0 -58 -4l-10 62q57 34 144 62t159 28q282 0 374 -318
q32 -111 45 -230t13 -185h17q16 153 74 311t151 268q129 154 264 154q39 0 71 -39t46 -88l-6 -18l-27 2q-76 1 -168 -59t-172 -187q-166 -260 -166 -572z" />
    <glyph glyph-name="Omegatonos" unicode="&#x38f;" horiz-adv-x="1576" 
d="M182 1430l-151 -371l-68 -2q6 358 6 366q12 13 92 25t107 6zM794 1276q-172 0 -262 -141t-90 -404q0 -131 45 -283t83 -229q38 -78 100 -188l-15 -31h-532l-33 336h64q32 -78 62 -97t103 -20h152q-332 236 -332 518q1 281 185 453t472 172t470 -170t182 -440
q0 -186 -128 -331q-66 -75 -102 -107t-114 -95h178q68 -1 96 19t58 98h65l-45 -336h-522l-19 29q129 238 160 341q70 227 72 382q0 250 -91 387t-262 137z" />
    <glyph glyph-name="iotadieresistonos" unicode="&#x390;" horiz-adv-x="571" 
d="M38 1071q-50 0 -83 33t-33 82t34 87t82 38t82 -38t34 -87t-33 -82t-83 -33zM442 1386l-186 -370l-66 16q37 236 50 354q12 8 92 18t98 7zM537 1071q-51 0 -84 33t-33 82t34 87t83 38t81 -37t33 -87t-31 -83t-83 -33zM324 -25q-80 1 -132 55t-53 181v672l262 49v-672
q0 -129 76 -129q41 0 76 16l20 -59q-137 -113 -249 -113z" />
    <glyph glyph-name="Alpha" unicode="&#x391;" horiz-adv-x="1445" 
d="M799 545l-152 444h-6q-33 -88 -92 -252t-70 -192h320zM1407 0h-586v72q88 14 107 40q18 26 -14 118t-76 206h-394q-51 -145 -73 -219q-27 -73 -5 -103t130 -42v-72h-459v72q102 12 140 47t89 164l420 1052l105 27q362 -990 403 -1096t78 -144t135 -50v-72z" />
    <glyph glyph-name="Beta" unicode="&#x392;" horiz-adv-x="1304" 
d="M518 662v-383q0 -113 34 -154t124 -39t163 75t72 212q0 289 -352 289h-41zM518 743h45q147 -1 216 59t69 190t-64 192t-142 63q-79 0 -101 -22t-23 -92v-390zM1214 395q0 -203 -190 -307q-156 -88 -432 -88h-520v72q120 10 148 42t28 160v783q0 129 -27 161t-137 42v71
h598q225 0 338 -69q119 -80 119 -224t-92 -216q-93 -72 -226 -99v-8q393 -47 393 -320z" />
    <glyph glyph-name="Gamma" unicode="&#x393;" horiz-adv-x="1107" 
d="M711 1241h-107q-53 0 -66 -12t-14 -60v-878q0 -145 29 -177t160 -42v-72h-633v72q118 10 144 43t26 176v756q0 137 -28 170t-142 43v71h960q11 -176 23 -319l-74 -13q-39 123 -74 172q-49 70 -204 70z" />
    <glyph glyph-name="uni0394" unicode="&#x394;" horiz-adv-x="1355" 
d="M946 119l-352 878l-350 -878h702zM1274 0h-1194v59l555 1282l82 21l557 -1303v-59z" />
    <glyph glyph-name="Epsilon" unicode="&#x395;" horiz-adv-x="1189" 
d="M1047 1331q0 -42 20 -307l-76 -10q-33 127 -82 177t-204 50h-99q-57 0 -70 -11t-14 -61v-434h137q133 0 170 25t58 129h74v-412h-74q-19 109 -57 133t-171 23h-137v-354q0 -145 48 -167t200 -24q152 0 212 66t114 200l73 -14q-27 -170 -71 -340h-1045v72q133 10 164 41
t31 159v787q0 131 -27 161t-139 40v71h965z" />
    <glyph glyph-name="Zeta" unicode="&#x396;" horiz-adv-x="1267" 
d="M348 1331h832l16 -31q-731 -1139 -766 -1196q102 -12 254 -12q291 0 362 66t130 237l67 -16q-45 -283 -74 -379h-1087l-23 35q252 381 781 1204h-258q-146 0 -200 -15t-81 -57q-53 -80 -80 -194l-67 2l22 407h53q23 -33 45 -42t74 -9z" />
    <glyph glyph-name="Eta" unicode="&#x397;" horiz-adv-x="1603" 
d="M1528 1331v-71q-121 -10 -147 -40t-25 -161v-789q0 -128 26 -158t146 -40v-72h-625v72q123 10 151 41t27 159v381h-559v-381q0 -130 27 -160t141 -40v-72h-610v72q116 10 142 41t26 159v787q0 129 -28 160t-148 41v71h614v-71q-112 -10 -138 -41t-26 -160v-301h559v301
q0 129 -26 160q-27 31 -144 41v71h617z" />
    <glyph glyph-name="Theta" unicode="&#x398;" horiz-adv-x="1556" 
d="M1012 455h-70q-12 85 -30 107t-78 22h-113q-59 0 -77 -22t-32 -107h-69v469h69q10 -84 28 -104t83 -23h113q59 0 76 20t28 107h72v-469zM772 1274q-172 0 -271 -156t-99 -424t109 -451q110 -183 302 -184q156 1 250 143t94 433t-106 465q-107 174 -279 174zM795 1362
q285 0 481 -193t194 -499q0 -306 -200 -503q-200 -198 -500 -198t-492 197t-192 476t177 493q85 103 223 165t309 62z" />
    <glyph glyph-name="Iota" unicode="&#x399;" horiz-adv-x="774" 
d="M692 0h-616v72q116 10 144 42t28 158v785q0 129 -28 161t-144 42v71h616v-71q-118 -10 -144 -41t-26 -162v-785q0 -126 27 -158t143 -42v-72z" />
    <glyph glyph-name="Kappa" unicode="&#x39a;" horiz-adv-x="1439" 
d="M1432 0h-412q-188 260 -404 573q-53 76 -100 70v-369q0 -132 28 -162t148 -40v-72h-612v72q112 10 140 42t28 160v783q0 129 -28 161t-144 42v71h602v-71q-110 -10 -136 -41t-26 -162v-348q70 20 156 108q170 172 286 332q39 47 29 73t-80 33l-37 5v71h533v-71
q-102 -10 -173 -39q-72 -29 -138 -91q-143 -134 -312 -317q197 -293 430 -590q62 -77 110 -109t112 -42v-72z" />
    <glyph glyph-name="Lambda" unicode="&#x39b;" horiz-adv-x="1431" 
d="M1397 0h-588v72q94 14 113 44q18 30 -11 99q-33 93 -130 365t-144 405h-8q-188 -522 -262 -758q-29 -81 -9 -109t131 -46v-72h-454v72q94 10 135 50t84 150t192 483q150 374 228 578l106 29q274 -762 357 -978t127 -258t133 -54v-72z" />
    <glyph glyph-name="Mu" unicode="&#x39c;" horiz-adv-x="1818" 
d="M1761 0h-606v72q115 12 139 45t25 174l-4 788h-10l-453 -1065h-57l-418 1045h-8l-27 -535q-10 -229 -1 -313t45 -107t142 -32v-72h-491v72q84 8 120 34t46 84q23 115 43 388l33 405q12 174 -16 219t-159 58v71h424l394 -897l401 897h414v-71q-121 -12 -147 -43t-21 -160
l18 -766q4 -141 30 -174t144 -45v-72z" />
    <glyph glyph-name="Nu" unicode="&#x39d;" horiz-adv-x="1515" 
d="M1483 1331v-69q-84 -4 -120 -32t-44 -97q-18 -184 -19 -340v-813h-98l-852 1019h-6v-458q0 -168 16 -332q8 -71 48 -101t149 -36v-72h-502v72q86 6 125 36t45 93q20 174 21 340v428q0 106 -6 145t-35 75t-67 51t-105 22v69h379l784 -897h6v359q0 180 -16 337
q-8 68 -50 97t-153 35v69h500z" />
    <glyph glyph-name="Xi" unicode="&#x39e;" horiz-adv-x="1318" 
d="M918 219q61 0 97 8q37 8 63 39q26 30 35 52t36 90h70l-27 -408h-1061l-27 408h70q58 -149 95 -164q59 -25 137 -25h512zM1020 461h-70q-16 85 -39 107t-106 22h-289q-86 0 -108 -22t-39 -111h-68v467h68q16 -86 39 -106t108 -21h289q85 -1 107 21t38 106h70v-463z
M932 1124h-541q-87 0 -113 -30t-53 -133h-67l14 370h979l14 -370h-67q-25 95 -45 124q-20 31 -47 35t-74 4z" />
    <glyph glyph-name="Omicron" unicode="&#x39f;" horiz-adv-x="1568" 
d="M778 1274q-170 0 -273 -156t-103 -423t112 -453q113 -186 303 -187q154 -1 253 147t99 435t-110 462q-111 175 -281 175zM807 1360q285 0 481 -192t197 -502q0 -310 -203 -504t-505 -193q-303 0 -497 198t-194 488q0 289 194 497t527 208z" />
    <glyph glyph-name="Pi" unicode="&#x3a0;" horiz-adv-x="1558" 
d="M1489 1331v-71q-125 -10 -152 -41t-26 -162v-785q-1 -130 27 -160t151 -40v-72h-617v72q113 10 139 41t25 161v900q0 47 -11 57t-60 10h-373q-47 0 -58 -12t-12 -62v-893q0 -128 25 -160t129 -42v-72h-604v72q120 10 148 42t28 160v783q0 131 -29 162t-153 41v71h1423z
" />
    <glyph glyph-name="Rho" unicode="&#x3a1;" horiz-adv-x="1226" 
d="M518 1167v-532q97 -40 179 -7q172 62 169 316q0 160 -73 234q-74 74 -181 73q-50 -1 -72 -19t-22 -65zM86 1331h565q244 0 359 -80q152 -102 152 -298t-121 -301q-151 -132 -384 -132l-139 35v-283q0 -128 31 -160t162 -42v-70h-635v70q116 10 144 42t28 160v785
q0 129 -27 161t-135 42v71z" />
    <glyph glyph-name="Sigma" unicode="&#x3a3;" horiz-adv-x="1253" 
d="M61 0v51l512 570l-487 659v51h1001q6 -88 23 -338l-72 -10q-20 78 -71 172q-27 49 -71 69t-138 19h-301l360 -491l-463 -531h516q113 0 162 38t103 159l71 -15l-80 -403h-1065z" />
    <glyph glyph-name="Tau" unicode="&#x3a4;" horiz-adv-x="1312" 
d="M248 1331h823q72 0 117 51h51q5 -157 23 -397l-74 -4q-37 160 -87 210t-212 50h-92v-969q-1 -130 31 -160t169 -40v-72h-667v72q131 10 162 41t30 159v969h-69q-119 0 -165 -13t-71 -42q-43 -43 -86 -207h-76q24 382 25 403h51q23 -33 47 -42t70 -9z" />
    <glyph glyph-name="Upsilon" unicode="&#x3a5;" horiz-adv-x="1363" 
d="M1327 1219q-76 1 -168 -59t-172 -187q-166 -260 -166 -572v-137q0 -70 3 -102t28 -52q24 -22 52 -26t102 -10v-74h-650v74q129 10 159 38t30 152v139q0 301 -74 484q-135 328 -401 327q-35 0 -58 -4l-10 62q57 34 144 62t159 28q292 0 378 -332q32 -124 38 -188t16 -211
h17q16 155 74 311t151 266q129 154 264 154q39 0 71 -39t46 -88l-6 -16h-27z" />
    <glyph glyph-name="Phi" unicode="&#x3a6;" horiz-adv-x="1611" 
d="M938 1098v-840q108 20 203 100q112 99 110 322q0 285 -209 385q-51 25 -104 33zM360 685q0 -285 207 -391q52 -26 107 -36v840q-109 -17 -202 -101q-50 -45 -81 -126t-31 -186zM1067 1348v-70q-86 -8 -108 -24t-21 -78q192 -8 376 -112q95 -54 155 -152q61 -98 61 -228
q0 -129 -60 -230q-100 -168 -346 -241q-96 -29 -186 -31q0 -66 22 -85t107 -27v-70h-522v70q85 8 107 27t22 85q-191 4 -377 109q-94 53 -155 151q-60 98 -60 215q0 217 145 344q179 156 447 175q0 59 -20 76t-99 26v70h512z" />
    <glyph glyph-name="Chi" unicode="&#x3a7;" horiz-adv-x="1419" 
d="M1432 0h-656v72q94 16 109 44q14 28 -21 74q-22 44 -217 369q-164 -248 -211 -337q-46 -90 -28 -112t122 -38v-72h-514v72q160 18 244 112q162 199 336 455q-207 340 -293 475q-43 74 -96 105t-156 41v71h619v-71q-80 -16 -96 -39t12 -58q45 -92 184 -309q96 129 184 287
q33 55 16 78t-114 41v71h492v-71q-100 -12 -154 -40t-116 -100t-257 -340q178 -287 340 -538q61 -98 111 -129t160 -41v-72z" />
    <glyph glyph-name="Psi" unicode="&#x3a8;" horiz-adv-x="1613" 
d="M940 268q0 -122 29 -154t141 -44v-70h-612v70q112 12 140 44t28 154v271q-336 18 -451 216q-39 67 -55 185l-17 131q-2 8 -5 34t-6 46q-3 21 -7 31t-9 25q-4 15 -10 19t-17 19q-11 14 -60 35l20 70q225 -16 301 -103q45 -49 74 -211l20 -125q27 -160 68 -216t154 -70v436
q0 123 -27 155t-129 46v69h586v-69q-104 -14 -130 -46t-26 -155v-436q109 12 151 70t72 227l21 108q29 154 90 219q84 85 293 101l16 -70q-61 -25 -85 -69t-40 -142l-22 -137q-23 -119 -61 -182q-116 -193 -435 -211v-271z" />
    <glyph glyph-name="uni03A9" unicode="&#x3a9;" horiz-adv-x="1576" 
d="M794 1276q-172 0 -262 -141t-90 -404q0 -131 45 -283t83 -229q38 -78 100 -188l-15 -31h-532l-33 336h64q32 -78 62 -97t103 -20h152q-332 236 -332 518q1 281 185 453t472 172t470 -170t182 -440q0 -186 -128 -331q-66 -75 -102 -107t-114 -95h178q68 -1 96 19t58 98h65
l-45 -336h-522l-19 29q129 238 160 341q70 227 72 382q0 250 -91 387t-262 137z" />
    <glyph glyph-name="Iotadieresis" unicode="&#x3aa;" horiz-adv-x="774" 
d="M172 1696q57 0 97 -40t40 -96t-41 -96t-97 -41q-56 0 -97 40q-41 41 -41 97t41 96t98 40zM598 1696h4q57 0 97 -40t40 -96t-41 -96t-97 -41q-56 0 -97 40q-41 41 -41 97t40 96t95 40zM692 0h-616v72q116 10 144 42t28 158v785q0 129 -28 161t-144 42v71h616v-71
q-116 -10 -142 -41t-26 -162v-785q0 -126 27 -158t141 -42v-72z" />
    <glyph glyph-name="Upsilondieresis" unicode="&#x3ab;" horiz-adv-x="1363" 
d="M518 1696q57 0 97 -39t40 -95t-41 -98t-97 -41q-56 0 -97 41q-41 40 -41 96t41 96t98 40zM948 1696q58 0 98 -39t40 -95t-42 -98q-41 -42 -97 -41q-56 0 -97 41q-41 42 -41 98t41 95t98 39zM821 401v-137q0 -70 3 -102t28 -52q24 -22 52 -26t102 -10v-74h-650v74
q129 10 159 38t30 152v139q0 301 -74 484q-133 328 -401 327q-35 0 -58 -4l-10 62q57 34 144 62t159 28q257 0 360 -266q45 -117 60 -314q4 -53 10 -153h17q18 153 76 311t149 268q129 154 266 154q37 0 70 -40t47 -87l-6 -18l-27 2q-76 1 -168 -59t-172 -187
q-166 -260 -166 -572z" />
    <glyph glyph-name="alphatonos" unicode="&#x3ac;" horiz-adv-x="1099" 
d="M698 1389l-153 -371l-66 -2q6 354 6 366q9 14 91 26t108 5zM453 815q-53 0 -95 -91q-42 -92 -43 -230t57 -238t125 -100t117 76t52 202v53q0 143 -66 235t-147 93zM874 -25q-70 1 -124 55q-53 54 -74 160h-6q-123 -215 -285 -215q-121 0 -222 125t-101 286t72 283
q73 121 189 195t177 74t111 -50t81 -130h6q12 57 25 82q31 26 97 54t116 38l31 -21q-20 -65 -44 -217t-24 -280t29 -192q28 -62 70 -62t79 28l33 -51q-34 -76 -100 -119t-136 -43z" />
    <glyph glyph-name="epsilontonos" unicode="&#x3ad;" horiz-adv-x="874" 
d="M633 1389l-152 -371l-67 -2q6 358 6 366q12 14 92 26t106 5zM442 -25q-160 0 -265 75t-105 202q0 94 66 142q67 48 188 81v4q-111 17 -164 65t-53 132q1 118 115 186t272 68t235 -47q76 -47 76 -115q0 -37 -35 -68q-35 -30 -72 -30t-55 39q-25 67 -57 103t-85 36
q-54 0 -89 -43t-35 -109t37 -102q37 -37 93 -37t153 10l10 -20l-51 -131q-86 10 -117 10q-145 0 -146 -113q0 -78 56 -126t141 -48q143 0 254 129l49 -55q-145 -238 -416 -238z" />
    <glyph glyph-name="etatonos" unicode="&#x3ae;" horiz-adv-x="1085" 
d="M709 1389l-152 -371l-68 -2q6 354 7 366q12 14 92 26t106 5zM694 565q0 205 -141 205q-28 0 -45 -6l-24 -9t-21 -11q-11 -8 -25 -18q-13 -9 -22 -17v-709q-88 -8 -269 -25q8 131 9 271v385q0 91 -16 113t-91 40v60q29 16 148 48t184 38q35 -41 35 -142q28 22 114 82
t160 60q256 0 256 -352l2 -246q0 -401 10 -811l-16 -21q-47 0 -132 28t-130 62q14 770 14 975z" />
    <glyph glyph-name="iotatonos" unicode="&#x3af;" horiz-adv-x="571" 
d="M438 1389l-153 -371l-66 -2q6 354 6 366q10 14 91 26t106 5zM324 -25q-80 1 -132 55t-53 181v672l262 49v-672q0 -129 76 -129q41 0 76 14l20 -57q-133 -113 -249 -113z" />
    <glyph glyph-name="upsilondieresistonos" unicode="&#x3b0;" horiz-adv-x="980" 
d="M231 1071q-51 0 -83 33t-32 82t34 87t82 38t81 -38t33 -88t-32 -82t-83 -32zM635 1384l-186 -368l-66 16q37 236 49 354q12 8 93 18t100 7zM730 1071q-50 0 -83 33t-33 82t34 87t83 38t82 -38t33 -87t-33 -82t-83 -33zM563 121q88 0 132 85t44 283q1 277 -151 379v25
q8 10 53 23t74 14q71 0 137 -97t66 -272q0 -231 -138 -408t-325 -178q-127 0 -209 76t-82 228v350q0 133 -86 133q-31 0 -55 -8l-19 63q41 35 124 74t155 39q141 0 141 -228l-2 -411q0 -78 41 -124t100 -46z" />
    <glyph glyph-name="alpha" unicode="&#x3b1;" horiz-adv-x="1099" 
d="M453 815q-53 0 -95 -91q-42 -92 -43 -230t57 -238t125 -100t117 76t52 202v53q0 143 -66 235t-147 93zM874 -25q-70 1 -124 55q-53 54 -74 160h-6q-123 -215 -285 -215q-121 0 -222 125t-101 286t72 283q73 121 189 195t177 74t111 -50t81 -130h6q12 57 25 82
q31 26 97 54t116 38l31 -21q-20 -65 -44 -217t-24 -280t29 -192q28 -62 70 -62t79 28l33 -51q-34 -76 -100 -119t-136 -43z" />
    <glyph glyph-name="beta" unicode="&#x3b2;" horiz-adv-x="1095" 
d="M516 1335q-94 0 -121 -123t-25 -467t13 -585q101 -68 197 -68t145 58t49 210q0 154 -80 243t-188 89h-33l39 133q88 12 135 47q57 54 57 182t-56 204t-132 77zM139 735q0 207 38 337t126 222q139 146 295 146t244 -84t88 -210t-81 -206q-53 -52 -140 -115
q129 -27 211 -94q115 -94 114 -264q0 -117 -61 -217t-147 -158t-167 -92q-81 -33 -139 -33t-135 76l25 -524l-27 -25q-69 4 -143 30t-101 73v1138z" />
    <glyph glyph-name="gamma" unicode="&#x3b3;" horiz-adv-x="1032" 
d="M989 786q0 -66 -32 -159q-33 -93 -63 -153t-102 -196t-137 -292q-1 -10 15 -166t16 -215q-37 -31 -123 -67t-139 -38l-35 31q3 65 43 224q39 159 45 188q2 133 -51 327t-152 348q-57 88 -103 116t-134 16l-14 55q174 125 286 125q133 0 221 -250q68 -176 109 -512h6
q39 66 99 241t61 289q0 51 -33 127q-10 18 10 41t58 43q39 20 67 21q82 0 82 -144z" />
    <glyph glyph-name="delta" unicode="&#x3b4;" horiz-adv-x="1042" 
d="M721 381q0 162 -91 283q-65 83 -143 153q-141 -74 -141 -375q0 -166 60 -276t143 -109q172 0 172 324zM410 1260q0 -25 213 -226q14 -14 22 -20q180 -160 257 -281t77 -276q0 -227 -136 -355t-337 -127t-323 135t-122 316q0 324 371 442q-180 182 -180 286t106 196
q106 90 238 90t226 -81q93 -81 116 -177l-23 -43q-188 162 -415 161q-90 0 -90 -40z" />
    <glyph glyph-name="epsilon" unicode="&#x3b5;" horiz-adv-x="874" 
d="M442 -25q-160 0 -265 75t-105 202q0 94 66 142q67 48 186 81v4q-217 37 -218 197q0 118 115 186t273 68t236 -47q77 -47 77 -115q0 -37 -35 -68q-35 -30 -73 -30t-54 39q-29 71 -59 105t-84 34q-55 0 -89 -43t-34 -109t36 -102q36 -37 93 -37t154 10l10 -20l-51 -131
q-86 10 -115 10q-145 0 -146 -113q0 -78 56 -126t139 -48q145 0 256 129l47 -55q-145 -238 -416 -238z" />
    <glyph glyph-name="zeta" unicode="&#x3b6;" horiz-adv-x="784" 
d="M745 1405q76 0 21 -124q-25 -54 -57 -75q-86 -51 -195 -53q-94 -104 -146 -271q-52 -166 -52 -320t36 -225q37 -71 125 -99l99 -33q82 -27 130 -77t48 -153q0 -154 -172 -325l-60 33q41 94 41 155t-33 97t-114 61q-23 10 -121 41q-225 80 -225 399q0 207 98 394t244 331
q-115 11 -185 59t-80 113q0 29 32 73t75 79l51 -19q-12 -92 49 -151t135 -64q164 154 256 154z" />
    <glyph glyph-name="eta" unicode="&#x3b7;" horiz-adv-x="1085" 
d="M694 565q0 205 -141 205q-28 0 -45 -6l-24 -9t-21 -11q-11 -8 -25 -18q-13 -9 -22 -17v-709q-88 -8 -269 -25q8 131 9 271v385q0 91 -16 113t-91 40v60q29 16 148 48t184 38q35 -41 35 -142q28 22 114 82t160 60q256 0 256 -352l2 -246q0 -401 10 -811l-16 -21
q-47 0 -132 28t-130 62q14 770 14 975z" />
    <glyph glyph-name="theta" unicode="&#x3b8;" horiz-adv-x="1042" 
d="M530 55q173 0 177 625h-371q4 -272 56 -448t138 -177zM524 1360q-84 0 -133 -164t-53 -401h367q-12 565 -181 565zM531 1440q216 0 331 -210t115 -525q0 -316 -119 -523t-348 -207q-144 1 -248 103q-196 194 -196 627q0 311 124 523q125 212 341 212z" />
    <glyph glyph-name="iota" unicode="&#x3b9;" horiz-adv-x="571" 
d="M324 -25q-80 1 -132 55t-53 181v672l262 49v-672q0 -129 76 -129q41 0 76 14l20 -57q-133 -113 -249 -113z" />
    <glyph glyph-name="kappa" unicode="&#x3ba;" horiz-adv-x="1040" 
d="M147 279v378q0 70 -16 87t-94 38v58q33 14 157 49t181 41q25 -33 24 -185v-282q168 231 277 350q102 117 182 117q53 0 84 -33t31 -85t-41 -89q-20 -14 -49 -2t-74 12q-100 0 -197 -127q37 -80 107 -202t124 -196t96 -72q42 0 75 16l26 -56q-96 -121 -243 -121
q-59 0 -113 35t-127 171q-20 40 -55 111t-60 118l-43 -58v-352l-258 -25q6 92 6 304z" />
    <glyph glyph-name="lambda" unicode="&#x3bb;" horiz-adv-x="1048" 
d="M158 1282q-49 0 -78 -14l-19 55q127 117 238 117t180 -118t216 -640q59 -210 120 -387q61 -178 141 -178q35 0 58 8l22 -59q-106 -90 -260 -91q-90 0 -140 79q-50 78 -95 242t-109 390q-147 -487 -213 -668l-168 -43l-20 29q223 434 358 852q-53 190 -63 219
q-41 121 -80 164t-88 43z" />
    <glyph glyph-name="uni03BC" unicode="&#x3bc;" horiz-adv-x="1101" 
d="M139 676q0 139 -6 207l262 49q6 -59 6 -234v-352q0 -104 44 -156t109 -51q65 0 124 66v678l260 49v-674q0 -133 76 -133q34 0 63 16l25 -57q-80 -109 -234 -109t-184 142h-4q-121 -141 -228 -141t-161 87h-6v-30q-1 -102 25 -264t48 -240l-30 -29q-46 4 -102 29t-87 57
q-2 20 -2 102l2 453v535z" />
    <glyph glyph-name="nu" unicode="&#x3bd;" horiz-adv-x="993" 
d="M318 930q54 0 94 -48t82 -165q41 -117 91 -279t54 -174q135 244 135 395q0 76 -45 144q-18 18 -5 49q13 30 47 54t75 24t72 -46q89 -133 -112 -495q-50 -90 -149 -250l-96 -164h-76q-170 495 -215 603t-77 143q-33 35 -73 35t-77 -6l-16 61q65 47 151 83t140 36z" />
    <glyph glyph-name="xi" unicode="&#x3be;" horiz-adv-x="870" 
d="M537 678q-115 0 -167 -56t-53 -149q0 -180 199 -227q78 -20 105 -29q100 -31 157 -86t58 -162q0 -160 -183 -327l-63 32q49 106 49 168q0 123 -133 156q-76 18 -148 37q-293 68 -292 319q0 221 278 351q-98 25 -153 88q-54 63 -54 143q0 164 193 274q-55 8 -121 48
t-78 96q0 35 33 82t69 65l54 -24q-12 -74 35 -128t104 -59q72 45 158 78t133 33t58 -10t7 -43t-32 -73t-56 -54q-106 -45 -268 -31q-66 -66 -66 -156t54 -146t156 -56t157 6l14 -29l-92 -141q-78 10 -112 10z" />
    <glyph glyph-name="omicron" unicode="&#x3bf;" horiz-adv-x="1075" 
d="M520 850q-68 0 -117 -89t-49 -269t58 -309q58 -128 151 -128q72 0 116 74t44 283q-1 210 -53 324t-150 114zM61 432q0 230 150 364q151 134 349 134t327 -135t129 -326q0 -233 -140 -363t-351 -131t-337 137t-127 320z" />
    <glyph glyph-name="pi" unicode="&#x3c0;" horiz-adv-x="1126" 
d="M960 147q34 0 82 21l25 -55q-39 -55 -107 -97t-126 -41q-176 1 -176 263t16 481q-127 4 -238 4v-12q0 -201 -33 -418t-84 -281q-78 -33 -151 -37l-21 41q84 129 128 343t44 366q-158 4 -260 -61l-34 53q23 31 34 46t49 49q115 104 302 99q449 -6 504 -6q56 1 76 11t38 51
l62 -11q-4 -68 -20 -138t-34 -93q-37 -16 -149 -10q-12 -139 -8 -414q-1 -84 23 -119t58 -35z" />
    <glyph glyph-name="rho" unicode="&#x3c1;" horiz-adv-x="1064" 
d="M745 414q-1 168 -71 284t-170 117q-72 0 -96 -62q-24 -61 -22 -223q1 -162 9 -350q84 -96 161 -96t133 81t56 249zM608 930q182 0 288 -124t108 -296q0 -121 -52 -224q-52 -104 -130 -166q-163 -129 -308 -145q-63 0 -117 37q-1 -66 5 -207t1 -196q-17 -33 -109 -69
t-153 -40l-12 27q12 55 12 330l-4 534q0 281 189 426q141 113 282 113z" />
    <glyph glyph-name="uni03C2" unicode="&#x3c2;" horiz-adv-x="841" 
d="M451 799q-166 -1 -166 -265q0 -128 50 -194t154 -92q39 -8 99 -27q106 -29 158 -83t52 -156t-64 -190t-130 -130l-53 39q59 74 59 166q0 47 -44 85t-132 56l-131 33q-242 68 -242 365q0 250 226 413q160 111 309 111q92 0 160 -41q45 -31 45 -81t-33 -86t-62 -35t-67 36
q-106 76 -188 76z" />
    <glyph glyph-name="sigma" unicode="&#x3c3;" horiz-adv-x="1081" 
d="M551 778q-95 0 -155 -88t-60 -251t55 -273t135 -109q80 0 134 87q52 87 52 296t-63 287q-43 51 -98 51zM906 907q38 1 63 11t57 47l57 -25q-11 -66 -37 -125t-57 -76q-88 -4 -244 25l-4 -4q223 -113 223 -327t-129 -336q-130 -122 -334 -122q-204 -1 -322 137t-118 320
q0 238 159 365t403 121q45 -2 104 -4t100 -5q41 -2 79 -2z" />
    <glyph glyph-name="tau" unicode="&#x3c4;" horiz-adv-x="944" 
d="M678 145q43 0 88 21l25 -57q-37 -53 -106 -93t-136 -41q-191 0 -191 275t19 479q-127 4 -196 -10t-130 -60l-35 54q33 57 65 95q33 38 107 71t161 31q319 -6 382 -6t83 10t38 49l61 -9q-29 -186 -49 -225q-25 -10 -149 -10q-46 4 -127 4q-12 -139 -8 -428q0 -150 98 -150
z" />
    <glyph glyph-name="upsilon" unicode="&#x3c5;" horiz-adv-x="980" 
d="M918 561q0 -231 -138 -408t-325 -178q-129 0 -211 76t-82 228v350q0 133 -86 133q-31 0 -58 -8l-16 63q41 35 124 74t155 39q141 0 141 -228v-411q0 -78 41 -124t100 -46q88 0 132 85t44 283q1 277 -151 379v25q8 10 53 23t74 14q71 0 137 -97t66 -272z" />
    <glyph glyph-name="phi" unicode="&#x3c6;" horiz-adv-x="1249" 
d="M975 464q1 174 -61 276q-62 100 -119 100q-25 0 -34 -27t-9 -100l8 -629q82 8 148 107t67 273zM61 451q0 261 289 431q74 41 160 72l29 -63q-205 -127 -205 -381q0 -166 59 -272t142 -136q-7 248 -7 442t90 290t226 96t239 -122q105 -122 105 -324t-126 -327
q-126 -126 -302 -165l6 -381q-12 -39 -84 -73t-135 -38l-17 21q8 90 5 459q-213 10 -344 137q-130 127 -130 334z" />
    <glyph glyph-name="chi" unicode="&#x3c7;" horiz-adv-x="987" 
d="M603 -315q-36 93 -75 213t-61 186q-113 -244 -268 -619h-31q-30 13 -56 49t-34 87q303 543 344 620q-141 440 -200 503q-32 34 -76 34t-95 -21l-20 60q147 133 270 133q70 0 128 -65t133 -298q28 -86 32 -98q68 140 124 270q56 129 64 146l164 45l23 -23
q-158 -223 -334 -561q127 -379 190 -524q59 -126 99 -156t114 -16l15 -60q-104 -90 -241 -90t-209 185z" />
    <glyph glyph-name="psi" unicode="&#x3c8;" horiz-adv-x="1243" 
d="M82 764q-31 0 -55 -6l-17 63q119 109 238 109q150 0 166 -223q22 -403 75 -515q37 -78 125 -100l-12 916l137 61l23 -8l-17 -979q88 6 121 64t44 144t23 207q11 120 17 165q14 119 47 149q88 88 199 119l33 -62q-47 -37 -69 -81t-34 -111q-47 -260 -75 -363
q-47 -182 -187 -278q-68 -41 -121 -49l-4 -473l-22 -13q-29 4 -47 18q-48 36 -54 201l-4 258q-188 7 -283 89t-128 270q-8 53 -17 110q-8 57 -18 157t-32 130q-21 31 -52 31z" />
    <glyph glyph-name="omega" unicode="&#x3c9;" horiz-adv-x="1323" 
d="M1016 930q80 0 163 -114t83 -262t-45 -256q-78 -190 -251 -284q-73 -39 -135 -39q-156 0 -223 158q-125 -158 -227 -158q-133 0 -226 123t-94 303q0 352 357 541l43 -49q-133 -152 -133 -416q0 -158 53 -243t121 -84q38 0 66 40t27 104q-1 62 -26 374l250 51l25 -19
q-23 -360 -24 -416t30 -107q31 -50 90 -50q147 0 147 309q0 170 -61 280t-131 152v29q12 9 49 21t72 12z" />
    <glyph glyph-name="iotadieresis" unicode="&#x3ca;" horiz-adv-x="571" 
d="M501 1063q-56 0 -98 40q-41 40 -41 96t41 96t99 40t97 -40q40 -40 40 -96t-41 -96t-97 -40zM79 1063q-56 0 -97 40t-41 96t41 96t98 40t97 -40t40 -96t-41 -96t-97 -40zM324 -25q-80 1 -132 55t-53 181v672l262 49v-672q0 -129 76 -129q41 0 76 14l20 -57
q-133 -113 -249 -113z" />
    <glyph glyph-name="upsilondieresis" unicode="&#x3cb;" horiz-adv-x="980" 
d="M702 1335q58 0 98 -40t40 -96t-42 -96t-98 -40q-57 0 -98 40t-41 96t42 96t99 40zM418 1199q0 -56 -42 -96t-97 -40q-56 0 -97 40t-41 96t41 96q40 40 98 40t98 -40t40 -96zM918 561q0 -231 -138 -408t-327 -178q-127 0 -209 76t-82 228v350q0 133 -86 133q-31 0 -56 -8
l-18 63q41 35 124 74t155 39q141 0 141 -228v-411q0 -78 41 -124t100 -46q88 0 132 85t44 283q1 277 -151 379v25q8 10 53 23t74 14q71 0 137 -97t66 -272z" />
    <glyph glyph-name="omicrontonos" unicode="&#x3cc;" horiz-adv-x="1075" 
d="M700 1389l-151 -371l-68 -2q6 358 6 366q13 14 93 26t106 5zM520 850q-68 0 -117 -89t-49 -269t58 -309q58 -128 151 -128q72 0 116 74t44 283q-1 210 -53 324t-150 114zM61 432q0 230 150 364q151 134 349 134t327 -135t129 -326q0 -233 -140 -363t-351 -131t-337 137
t-127 320z" />
    <glyph glyph-name="upsilontonos" unicode="&#x3cd;" horiz-adv-x="980" 
d="M657 1389l-151 -371l-68 -2q6 358 6 366q12 14 92 26t107 5zM918 561q0 -231 -138 -408t-325 -178q-129 0 -211 76t-82 228v350q0 133 -86 133q-31 0 -58 -8l-16 63q41 35 124 74t155 39q141 0 141 -228v-411q0 -78 41 -124t100 -46q88 0 132 85t44 283q1 277 -151 379
v25q8 10 53 23t74 14q71 0 137 -97t66 -272z" />
    <glyph glyph-name="omegatonos" unicode="&#x3ce;" horiz-adv-x="1323" 
d="M860 1389l-151 -371l-68 -2q6 358 6 366q12 14 92 26t107 5zM1262 555q0 -147 -45 -257q-77 -188 -252 -284q-72 -39 -134 -39q-156 0 -223 158q-125 -158 -227 -158q-133 0 -226 123t-94 303q0 354 357 541l43 -49q-133 -152 -133 -416q0 -158 53 -243t121 -84
q38 0 66 40t27 104q-1 62 -26 374l250 51l25 -17q-23 -369 -23 -395q-2 -80 29 -130t90 -50q147 0 147 309q0 170 -61 280t-131 154v25q12 10 49 21t72 12q80 0 163 -113t83 -260z" />
    <glyph glyph-name="uni03D0" unicode="&#x3d0;" horiz-adv-x="1060" 
d="M717 399q1 179 -59 269t-162 90t-164 -82q2 -248 63 -431t166 -184q156 0 156 338zM682 1139q0 86 -37 144t-98 58t-105 -53t-76 -179q-31 -126 -36 -329q43 20 182 92q170 83 170 267zM999 455q0 -223 -142 -351t-314 -129q-135 1 -233 57t-149 152q-98 181 -98 434
q0 424 242 670q154 152 320 152q129 0 207 -67t77 -183q1 -116 -69 -186t-205 -148q184 -25 274 -130t90 -271z" />
    <glyph glyph-name="uni03D1" unicode="&#x3d1;" horiz-adv-x="1015" 
d="M428 1358q-127 0 -127 -201q0 -147 76 -238t190 -92q78 0 135 25q-35 252 -112 379q-78 127 -162 127zM578 104q84 0 116 114t33 286q2 172 -14 276q-127 -109 -250 -108q-174 0 -274 100q-99 100 -99 274t127 290t285 116q200 0 326 -184t126 -537q0 -195 -59 -374
t-181 -280t-235 -102q-229 0 -284 256q-3 19 -11 61t-12 60q-16 103 -135 74l-17 63q120 91 224 91t142 -50t50 -137q2 -6 14 -82q12 -75 20 -109q9 -34 36 -66t72 -32z" />
    <glyph glyph-name="uni03D5" unicode="&#x3d5;" horiz-adv-x="1236" 
d="M946 428q0 315 -233 393l-8 -741q97 16 169 101t72 247zM1176 456q0 -200 -140 -318t-336 -148l-4 -492l-14 -6q-36 4 -58 16t-44 68t-21 158l-2 248q-223 8 -359 135t-136 333t171 343q94 74 226 112l28 -63q-145 -109 -145 -369q0 -156 58 -257t155 -130l2 842l-4 368
l149 70l23 -10l-8 -424q207 -29 333 -153q126 -123 126 -323z" />
    <glyph glyph-name="uni03D6" unicode="&#x3d6;" horiz-adv-x="1368" 
d="M725 1200q155 0 273 -50q210 -89 284 -328q33 -103 33 -235t-47 -256q-82 -218 -263 -315q-77 -41 -149 -41t-134 44t-91 118q-49 -63 -119 -112t-133 -50q-133 0 -225 124t-93 304q0 344 361 537l43 -57q-137 -154 -137 -406q0 -159 53 -241t123 -82q45 0 80 40t32 121
q0 41 -24 353l250 53l24 -19q-23 -371 -22 -393q-2 -76 35 -126t98 -50q164 0 164 332q0 260 -136 433t-405 173q-163 0 -315 -72l-25 64q223 137 465 137z" />
    <glyph glyph-name="uni03DA" unicode="&#x3da;" horiz-adv-x="858" 
d="M594 -180q82 0 82 64q0 69 -227 118q-92 20 -138 35q-246 70 -245 362q0 129 63 241t168 185q145 104 270 105q49 0 127 -12q64 -6 97 49l57 -19q-37 -237 -146 -237q-50 1 -136 33t-150 32t-105 -59t-41 -170q0 -246 228 -299q196 -43 253 -102q56 -60 56 -174t-94 -212
q-94 -96 -187 -96q-38 0 -64 24t-26 66t43 82q14 14 46 -1t69 -15z" />
    <glyph glyph-name="uni03DD" unicode="&#x3dd;" horiz-adv-x="962" 
d="M465 805h-45v-529q172 0 401 21l10 -27l-75 -108q-104 14 -338 18v-200q0 -236 -69 -346t-249 -154l-12 14q70 121 70 463v948h377q276 0 354 51l26 -16l-77 -160q-123 25 -373 25z" />
    <glyph glyph-name="uni03DE" unicode="&#x3de;" horiz-adv-x="1085" 
d="M522 844q-70 0 -119 -87t-49 -264t58 -305t153 -127q166 0 166 349q1 206 -55 320t-154 114zM563 930q201 0 331 -135t130 -325t-97 -314q-97 -123 -251 -160v-148q0 -104 -22 -149t-73 -90q-52 -45 -126 -72l-31 19q6 184 6 227v205q-176 34 -272 160t-97 282
q1 232 151 366t351 134z" />
    <glyph glyph-name="uni03E0" unicode="&#x3e0;" horiz-adv-x="1421" 
d="M424 1366q188 0 344 -51q284 -93 427 -324q142 -231 141 -502q-1 -272 -99 -469t-254 -362l-51 41q84 133 144 323t61 402q0 35 -4 104q-299 -145 -496 -346q-96 -96 -96 -188l-2 -17q-23 -6 -49 -6q-26 -1 -51 17q-50 36 -43 125t114 184q146 135 387 261q84 44 217 108
q-28 112 -68 190t-73 111q-164 -113 -394 -233t-297 -139t-123 9t-75 68l4 26q465 125 815 353q-213 205 -577 204q-97 0 -160 -10l-10 51l94 35q98 35 174 35z" />
    <glyph glyph-name="uni03F0" unicode="&#x3f0;" horiz-adv-x="1128" 
d="M672 213q0 127 71 307l-10 10q-43 -49 -132 -152t-188 -216t-190 -187h-41q-66 17 -98 73t-27 112q53 23 160 102q59 94 59 226t-39 195q-41 62 -93 62t-101 -22l-25 53q143 154 273 154q76 0 120 -53t44 -156t-48 -232q-13 -35 -51 -122l11 -2q145 148 240 275
q95 126 113 146t43 53q26 32 47 55t58 36q115 4 154 -113q14 -31 2 -59q-119 -82 -145 -113q-51 -94 -51 -220t36 -189q36 -64 92 -64t113 47l33 -57q-39 -78 -104 -132t-146 -55q-180 0 -180 238z" />
    <glyph glyph-name="uni0401" unicode="&#x401;" horiz-adv-x="1189" 
d="M393 1696q57 0 97 -40t40 -96t-41 -96t-97 -41q-56 0 -97 40q-41 41 -41 97t41 96t98 40zM823 1696q57 0 97 -40t41 -96q0 -56 -41 -96q-42 -40 -98 -41q-56 0 -97 40q-41 41 -41 97t41 96t98 40zM1047 1331q0 -42 20 -307l-76 -10q-33 127 -82 177t-204 50h-99
q-57 0 -70 -11t-14 -61v-434h137q133 0 170 25t58 129h74v-412h-74q-19 109 -57 133t-171 23h-137v-354q0 -145 48 -167t200 -24q152 0 212 66t114 200l73 -14q-27 -170 -71 -340h-1045v72q133 10 164 41t31 159v787q0 131 -27 161t-139 40v71h965z" />
    <glyph glyph-name="uni0402" unicode="&#x402;" horiz-adv-x="1497" 
d="M244 1331h815q41 0 63 10t52 41h53q10 -219 22 -378l-78 -7q-29 141 -75 193q-25 31 -66 42t-139 11h-123v-493q141 70 248 69q156 0 278 -127q122 -126 123 -364q0 -238 -142 -404t-360 -256l-36 68q88 53 163 164q101 148 101 401q0 179 -73 285t-202 106
q-53 0 -100 -18v-363q0 -113 13 -157t46 -60q33 -14 123 -20v-74h-645v74q74 6 104 11q29 5 53 32t28 67t4 127v932h-62q-117 0 -165 -13q-47 -13 -79 -61t-63 -174h-76q5 97 23 387h53q25 -33 47 -42t72 -9z" />
    <glyph glyph-name="uni0403" unicode="&#x403;" horiz-adv-x="1093" 
d="M891 1546l-8 -24l-422 -123l-29 57q135 98 354 250q29 -10 65 -66t40 -94zM727 1241h-121q-61 0 -71 -9t-11 -67v-880q0 -141 30 -173t163 -42v-70h-635v70q90 7 118 22q28 14 39 57t11 136v766q0 98 -12 137t-43 53t-113 21v69h948q13 -268 19 -315l-76 -15
q-47 147 -71 181t-58 47q-34 12 -117 12z" />
    <glyph glyph-name="uni0404" unicode="&#x404;" horiz-adv-x="1353" 
d="M1245 354q27 0 45 -20t19 -53q0 -82 -105 -175q-147 -137 -405 -137q-181 -1 -323 59t-225 158q-167 197 -167 461q0 319 217 517t553 198q199 0 377 -72q16 -106 37 -315l-70 -17q-47 162 -134 240t-233 78q-186 0 -305 -142t-127 -391l721 17v-137l-723 16
q10 -258 133 -417t297 -161q207 0 320 205q49 88 98 88z" />
    <glyph glyph-name="uni0405" unicode="&#x405;" horiz-adv-x="1034" 
d="M549 1278q-86 0 -142 -57q-57 -57 -57 -143t56 -142q56 -57 198 -129q178 -86 270 -183t93 -239q-1 -178 -139 -297t-359 -119q-174 0 -330 74q-31 74 -61 346l72 25q39 -118 119 -230q99 -133 251 -133q82 -1 137 59t55 152t-58 156q-60 64 -210 141q-150 78 -241 171
q-90 93 -90 231q0 173 128 287t341 114q125 0 284 -53q4 -43 18 -145t21 -150l-71 -17q-88 281 -285 281z" />
    <glyph glyph-name="uni0406" unicode="&#x406;" horiz-adv-x="774" 
d="M692 0h-616v72q116 10 144 42t28 158v785q0 129 -28 161t-144 42v71h616v-71q-118 -10 -144 -41t-26 -162v-785q0 -126 27 -158t143 -42v-72z" />
    <glyph glyph-name="uni0407" unicode="&#x407;" horiz-adv-x="774" 
d="M172 1696q57 0 97 -40t40 -96t-41 -96t-97 -41q-56 0 -97 40q-41 41 -41 97t41 96t98 40zM598 1696h4q57 0 97 -40t40 -96t-41 -96t-97 -41q-56 0 -97 40q-41 41 -41 97t40 96t95 40zM692 0h-616v72q116 10 144 42t28 158v785q0 129 -28 161t-144 42v71h616v-71
q-116 -10 -142 -41t-26 -162v-785q0 -126 27 -158t141 -42v-72z" />
    <glyph glyph-name="uni0408" unicode="&#x408;" horiz-adv-x="749" 
d="M690 1331v-71q-108 -10 -134 -41t-26 -160v-678q0 -209 -40 -345t-168 -241q-113 -96 -250 -127l-31 74q164 70 192 250q23 137 23 397v670q0 129 -29 160t-147 41v71h610z" />
    <glyph glyph-name="uni0409" unicode="&#x409;" horiz-adv-x="1855" 
d="M1081 283q0 -113 28 -155q27 -42 119 -42t175 77q82 77 82 248t-79 245t-226 73q-62 0 -99 -6v-440zM1081 1034v-229q184 10 199 10q240 0 371 -100t131 -289q0 -229 -195 -342q-145 -84 -428 -84h-520v70q84 6 115 21t44 61t13 157v821q0 80 -9 96t-61 15h-211
q-43 0 -54 -10t-11 -57q0 -829 -176 -1102q-70 -104 -148 -104t-125 18v41q76 49 123 107q211 260 211 1001q0 69 -35 93t-155 32v71h1093v-71q-87 -6 -117 -20t-42 -56q-12 -41 -13 -150z" />
    <glyph glyph-name="uni040A" unicode="&#x40a;" horiz-adv-x="2019" 
d="M1255 682v-410q0 -116 27 -152t122 -35t172 74t77 228t-78 225t-207 70h-113zM1255 780h218q221 0 349 -98t128 -270q0 -225 -185 -332q-143 -80 -405 -80h-535v72q80 6 109 19t40 52t11 142v395h-465v-395q0 -99 12 -139t43 -54t115 -20v-72h-610v72q63 6 91 11
q27 5 49 29t26 60t4 115v760q0 141 -27 172t-151 41v71h608v-71q-108 -12 -134 -44t-26 -165v-271h465v264q0 100 -10 140t-37 55q-27 14 -100 21v71h589v-71q-85 -6 -115 -20t-43 -53q-13 -40 -14 -138v-269z" />
    <glyph glyph-name="uni040B" unicode="&#x40b;" horiz-adv-x="1613" 
d="M233 1331h818q41 0 63 10t51 41h52q2 -109 20 -372l-74 -6q-35 123 -63 168t-72 57q-43 12 -143 12h-123v-496q168 68 285 68q186 0 276 -98q74 -80 74 -244v-231q0 -106 23 -134q24 -27 130 -34v-72h-538v72q74 8 92 36t18 125v216q0 177 -103 224q-48 21 -122 21
t-135 -26v-359q0 -111 10 -155t36 -60t93 -22v-72h-590v72q86 6 119 22t45 60t12 155v932h-92q-121 0 -162 -16q-41 -15 -65 -63t-53 -158h-74l25 378h40q27 -33 52 -42t75 -9z" />
    <glyph glyph-name="uni040C" unicode="&#x40c;" horiz-adv-x="1415" 
d="M1059 1546l-8 -22l-422 -123l-29 55q135 98 354 250q29 -10 65 -64t40 -96zM1384 0h-235q-109 0 -165 44t-98 133t-120 296q-43 117 -101 161t-143 42v-385q0 -105 12 -145t42 -54t112 -20v-72h-612v72q120 10 146 42t26 173v753q0 146 -27 178t-145 42v71h612v-71
q-84 -6 -114 -20t-40 -55q-10 -40 -12 -145v-284q162 4 246 88q72 68 172 301q94 213 242 217q57 0 91 -30t34 -68t-27 -58q-27 -18 -61 -20h-37q-62 0 -106 -43t-109 -174q-88 -176 -199 -232v-6q88 -20 152 -68t112 -145q14 -29 62 -132t84 -176q37 -74 82 -102t124 -36
v-72z" />
    <glyph glyph-name="uni040E" unicode="&#x40e;" horiz-adv-x="1353" 
d="M981 1608q1 -92 -73 -144t-202 -51q-128 0 -202 51t-74 144q0 36 24 64t66 28t60 -30q20 -30 19 -70t25 -74q26 -33 83 -33q106 0 106 111q-2 36 18 66q21 30 63 30t64 -28t23 -64zM1341 1331v-71q-104 -16 -143 -52t-92 -147q-230 -529 -332 -749t-192 -292t-191 -71
q-66 0 -115 36t-48 94t53 87q55 29 119 -12t108 -41t80 42q35 42 35 95q0 54 -31 116t-186 382t-189 386q-35 66 -67 90q-33 24 -127 36v71h573v-71l-64 -17q-57 -14 -20 -90l279 -598q176 431 210 525q35 94 27 122t-57 41l-74 17v71h444z" />
    <glyph glyph-name="uni040F" unicode="&#x40f;" horiz-adv-x="1599" 
d="M1530 0h-514q-70 0 -96 -25t-39 -93q-14 -68 -41 -304h-82q-29 248 -44 310t-43 87t-100 25h-508v74q92 6 126 20q33 14 47 56t14 149v741q0 78 -4 114t-27 60t-51 30q-28 5 -96 11v76h612v-76q-112 -10 -136 -41t-24 -174v-874q0 -58 12 -68t72 -10h381q57 0 71 11
q13 11 13 69v872q0 102 -12 142t-42 54q-30 13 -114 19v76h621v-76q-88 -6 -120 -19t-45 -53t-13 -143v-743q0 -106 13 -147q13 -42 46 -56t123 -20v-74z" />
    <glyph glyph-name="uni0410" unicode="&#x410;" horiz-adv-x="1445" 
d="M799 545l-152 444h-6q-33 -88 -92 -252t-70 -192h320zM1407 0h-586v72q88 14 107 40q18 26 -14 118t-76 206h-394q-51 -145 -73 -219q-27 -73 -5 -103t130 -42v-72h-459v72q102 12 140 47t89 164l420 1052l105 27q362 -990 403 -1096t78 -144t135 -50v-72z" />
    <glyph glyph-name="uni0411" unicode="&#x411;" horiz-adv-x="1282" 
d="M667 86q85 0 165 76t79 235q0 297 -297 297q-33 0 -94 -4v-409q0 -115 31 -155t116 -40zM520 1165v-389q98 6 213 6q223 0 350 -96t127 -268q0 -225 -186 -336q-135 -82 -420 -82h-530v70q120 10 148 45t28 184v737q0 104 -12 146t-43 58q-31 15 -113 22v69h977
q0 -88 18 -323l-78 -11q-33 117 -77 183q-25 35 -64 48t-131 13h-127q-57 0 -69 -10q-11 -11 -11 -66z" />
    <glyph glyph-name="uni0412" unicode="&#x412;" horiz-adv-x="1304" 
d="M518 662v-383q0 -113 34 -154t124 -39t163 75t72 212q0 289 -352 289h-41zM518 743h45q147 -1 216 59t69 190t-64 192t-142 63q-79 0 -101 -22t-23 -92v-390zM1214 395q0 -203 -190 -307q-156 -88 -432 -88h-520v72q120 10 148 42t28 160v783q0 129 -27 161t-137 42v71
h598q225 0 338 -69q119 -80 119 -224t-92 -216q-93 -72 -226 -99v-8q393 -47 393 -320z" />
    <glyph glyph-name="uni0413" unicode="&#x413;" horiz-adv-x="1093" 
d="M727 1241h-121q-61 0 -71 -9t-11 -67v-880q0 -139 30 -173t163 -42v-70h-635v70q116 10 142 43t26 172v766q0 139 -26 170t-142 41v69h948q13 -268 19 -315l-76 -15q-47 147 -71 181t-58 47q-34 12 -117 12z" />
    <glyph glyph-name="uni0414" unicode="&#x414;" horiz-adv-x="1390" 
d="M866 221v907q0 84 -10 100t-70 15h-217q-59 0 -70 -12t-12 -74q1 -231 -25 -517t-77 -486q-10 -36 -2 -50t49 -14h305q81 0 105 24t24 107zM1016 0h-676q-68 0 -98 -35t-58 -141l-53 -191h-80l8 457h117q39 0 57 43q57 119 100 372q42 253 42 617q-1 68 -21 92t-102 35
l-76 11v71h1143v-71q-88 -6 -123 -21q-35 -14 -41 -41q-14 -63 -14 -162v-839q0 -70 11 -88t52 -19h131l-55 -457h-80l-35 215q-14 94 -43 123t-106 29z" />
    <glyph glyph-name="uni0415" unicode="&#x415;" horiz-adv-x="1189" 
d="M1047 1331q0 -42 20 -307l-76 -10q-33 127 -82 177t-204 50h-99q-57 0 -70 -11t-14 -61v-434h137q133 0 170 25t58 129h74v-412h-74q-19 109 -57 133t-171 23h-137v-354q0 -145 48 -167t200 -24q152 0 212 66t114 200l73 -14q-27 -170 -71 -340h-1045v72q133 10 164 41
t31 159v787q0 131 -27 161t-139 40v71h965z" />
    <glyph glyph-name="uni0416" unicode="&#x416;" horiz-adv-x="2039" 
d="M2011 0h-233q-109 0 -166 44q-56 44 -104 147t-113 286q-43 119 -99 161t-141 40v-381q0 -106 11 -147q11 -40 43 -56t116 -22v-72h-610v72q117 10 145 44t27 181v381q-87 2 -147 -41t-103 -160q-16 -47 -40 -110t-40 -107q-57 -158 -120 -209q-64 -51 -173 -51h-233v72
q78 8 124 40t85 110t87 180q48 103 56 120q51 94 113 142t149 71v6q-115 51 -205 228q-68 133 -106 176q-39 43 -98 43h-39q-35 0 -60 20t-25 60t36 68q34 28 98 26q139 -2 227 -209q100 -233 176 -305q53 -50 105 -68t133 -20v289q0 137 -28 169t-144 42v71h610v-71
q-117 -10 -143 -42t-27 -169v-289q84 2 138 20q55 18 101 64t81 108q35 64 87 186t108 172t122 52t102 -27q35 -29 35 -71q0 -72 -86 -76h-41q-57 0 -98 -44t-116 -196t-191 -207v-6q88 -23 149 -71t111 -142q14 -27 61 -128t85 -176q38 -74 84 -106t124 -40v-72z" />
    <glyph glyph-name="uni0417" unicode="&#x417;" horiz-adv-x="1122" 
d="M520 670q-27 0 -83 -12t-93 -13q-36 0 -62 23q-26 24 -26 56t26 54t62 23q36 -1 93 -13q56 -12 85 -10q64 2 118 62t54 177q0 119 -57 189t-156 70q-193 0 -284 -303l-74 20q4 12 39 291q68 22 167 50t210 28q213 0 327 -87t115 -233q0 -68 -34 -127t-81 -92
q-90 -55 -194 -84v-10q168 -23 271 -107t103 -232t-82 -244q-154 -178 -483 -177q-207 0 -331 90q-94 72 -95 156q0 41 26 67t58 25q51 0 99 -76q86 -176 254 -180q98 -2 172 74t74 225q0 148 -64 234q-63 86 -154 86z" />
    <glyph glyph-name="uni0418" unicode="&#x418;" horiz-adv-x="1601" 
d="M1530 0h-625v72q68 4 99 11q30 7 52 33t26 62t3 113v481q0 164 11 361h-6l-527 -1024q-18 -35 -18 -80v-29h-473v72q122 10 150 46t28 181v733q0 80 -4 119t-26 65t-52 32q-30 7 -96 12v71h612v-71q-114 -10 -140 -43t-26 -177v-417q0 -190 -10 -408h4l526 1018
q23 37 23 70v28h471v-71q-121 -10 -150 -46t-28 -172v-751q0 -100 12 -141q12 -40 46 -56t118 -22v-72z" />
    <glyph glyph-name="uni0419" unicode="&#x419;" horiz-adv-x="1601" 
d="M1096 1606q0 -90 -74 -142t-202 -51q-128 0 -202 51t-73 142q-1 38 23 66t66 28t62 -31t17 -65q0 -111 107 -111t108 111q-4 36 16 66t64 30t66 -28t22 -66zM1530 0h-625v72q68 4 99 11q30 7 52 33t26 62t3 113v481q0 164 11 361h-6l-527 -1024q-18 -35 -18 -80v-29h-473
v72q122 10 150 46t28 181v733q0 80 -4 119t-26 65t-52 32q-30 7 -96 12v71h612v-71q-114 -10 -140 -43t-26 -177v-417q0 -190 -10 -408h4l526 1018q23 37 23 70v28h471v-71q-121 -10 -150 -46t-28 -172v-751q0 -100 12 -141q12 -40 46 -56t118 -22v-72z" />
    <glyph glyph-name="uni041A" unicode="&#x41a;" horiz-adv-x="1415" 
d="M1384 0h-235q-109 0 -165 44t-98 133t-120 296q-43 117 -101 161t-143 42v-385q0 -105 12 -145t42 -54t112 -20v-72h-612v72q120 10 146 42t26 173v753q0 146 -27 178t-145 42v71h612v-71q-84 -6 -114 -20t-40 -55q-10 -40 -12 -145v-284q162 4 246 88q72 68 172 303
q96 215 242 215q55 2 90 -29t35 -69t-27 -58q-27 -18 -61 -20h-37q-62 0 -106 -43t-109 -174q-88 -176 -199 -232v-6q88 -20 152 -68t112 -145q14 -29 62 -132t84 -176q37 -74 82 -102t124 -36v-72z" />
    <glyph glyph-name="uni041B" unicode="&#x41b;" horiz-adv-x="1372" 
d="M1292 0h-616v72q84 6 116 22t44 58t12 147v831q0 78 -10 94t-64 17h-219q-43 0 -55 -15t-13 -65q0 -811 -182 -1093q-67 -100 -145 -100t-129 18v47q80 53 126 108q216 258 216 994q0 69 -35 93t-152 32v71h1106v-71q-114 -10 -142 -39t-28 -142v-780q0 -147 27 -182
t143 -45v-72z" />
    <glyph glyph-name="uni041C" unicode="&#x41c;" horiz-adv-x="1818" 
d="M1761 0h-606v72q115 12 139 45t25 174l-4 788h-10l-453 -1065h-57l-418 1045h-8l-27 -535q-10 -229 -1 -313t45 -107t142 -32v-72h-491v72q84 8 120 34t46 84q23 115 43 388l33 405q12 174 -16 219t-159 58v71h424l394 -897l401 897h414v-71q-121 -12 -147 -43t-21 -160
l18 -766q4 -141 30 -174t144 -45v-72z" />
    <glyph glyph-name="uni041D" unicode="&#x41d;" horiz-adv-x="1603" 
d="M1528 1331v-71q-121 -10 -147 -40t-25 -161v-789q0 -128 26 -158t146 -40v-72h-625v72q123 10 151 41t27 159v381h-559v-381q0 -130 27 -160t141 -40v-72h-610v72q116 10 142 41t26 159v787q0 129 -28 160t-148 41v71h614v-71q-112 -10 -138 -41t-26 -160v-301h559v301
q0 129 -26 160q-27 31 -144 41v71h617z" />
    <glyph glyph-name="uni041E" unicode="&#x41e;" horiz-adv-x="1568" 
d="M778 1274q-170 0 -273 -156t-103 -423t112 -453q113 -186 303 -187q154 -1 253 147t99 435t-110 462q-111 175 -281 175zM807 1360q285 0 481 -192t197 -502q0 -310 -203 -504t-505 -193q-303 0 -497 198t-194 488q0 289 194 497t527 208z" />
    <glyph glyph-name="uni041F" unicode="&#x41f;" horiz-adv-x="1568" 
d="M1497 0h-623v72q119 10 146 44t27 183v864q1 59 -11 69t-71 11h-359q-57 0 -69 -10t-13 -64v-870q0 -106 12 -148q12 -41 43 -57q30 -16 111 -22v-72h-616v72q86 6 119 21t45 57t12 149v741q0 142 -29 176t-155 44v71h1435v-71q-125 -10 -153 -44t-27 -180v-737
q0 -106 12 -148q12 -41 45 -57t119 -22v-72z" />
    <glyph glyph-name="uni0420" unicode="&#x420;" horiz-adv-x="1226" 
d="M518 1167v-532q97 -40 179 -7q172 62 169 316q0 160 -73 234q-74 74 -181 73q-50 -1 -72 -19t-22 -65zM86 1331h565q244 0 359 -80q152 -102 152 -298t-121 -301q-151 -132 -384 -132l-139 35v-283q0 -128 31 -160t162 -42v-70h-635v70q116 10 144 42t28 160v785
q0 129 -27 161t-135 42v71z" />
    <glyph glyph-name="uni0421" unicode="&#x421;" horiz-adv-x="1384" 
d="M86 649q0 317 223 515t588 198q125 0 196 -16q72 -16 120 -25q48 -10 57 -12q31 -186 47 -338l-76 -15q-88 313 -383 314q-213 0 -337 -171t-124 -431t135 -430q135 -172 347 -172q241 0 401 315l72 -31q-53 -203 -115 -327q-231 -53 -405 -53t-326 58q-152 60 -241 159
q-179 199 -179 462z" />
    <glyph glyph-name="uni0422" unicode="&#x422;" horiz-adv-x="1312" 
d="M248 1331h823q72 0 117 51h51q5 -157 23 -397l-74 -4q-37 160 -87 210t-212 50h-92v-969q-1 -130 31 -160t169 -40v-72h-667v72q131 10 162 41t30 159v969h-69q-119 0 -165 -13t-71 -42q-43 -43 -86 -207h-76q24 382 25 403h51q23 -33 47 -42t70 -9z" />
    <glyph glyph-name="uni0423" unicode="&#x423;" horiz-adv-x="1353" 
d="M1341 1331v-71q-106 -16 -144 -52t-91 -149q-287 -647 -346 -774q-88 -193 -178 -265t-191 -71q-66 0 -115 36t-48 94t53 87q53 29 116 -12t109 -41t82 42q35 42 35 95q0 54 -31 116t-186 382t-189 386q-35 66 -67 90q-33 24 -127 36v71h573v-71l-64 -15q-32 -9 -36 -29
t16 -63l279 -598q170 415 207 517q36 102 28 132t-55 39l-74 17v71h444z" />
    <glyph glyph-name="uni0424" unicode="&#x424;" horiz-adv-x="1619" 
d="M1260 678q0 381 -322 412v-814q154 16 238 106t84 296zM354 680q0 -209 86 -296t234 -105v813q-156 -18 -238 -110t-82 -302zM1077 1350v-70q-96 -6 -116 -24t-21 -91q241 -12 409 -103q189 -104 189 -380q0 -113 -36 -197t-92 -134q-145 -130 -472 -150q2 -83 24 -103
t121 -28v-70h-561v70q104 8 128 28t24 103q-598 27 -598 479t596 487q2 76 -18 91t-128 22v70h551z" />
    <glyph glyph-name="uni0425" unicode="&#x425;" horiz-adv-x="1419" 
d="M1432 0h-656v72q94 16 109 44q14 28 -21 74q-22 44 -217 369q-164 -248 -211 -337q-46 -90 -28 -112t122 -38v-72h-514v72q160 18 244 112q162 199 336 455q-207 340 -293 475q-43 74 -96 105t-156 41v71h619v-71q-80 -16 -96 -39t12 -58q45 -92 184 -309q96 129 184 287
q33 55 16 78t-114 41v71h492v-71q-100 -12 -154 -40t-116 -100t-257 -340q178 -287 340 -538q61 -98 111 -129t160 -41v-72z" />
    <glyph glyph-name="uni0426" unicode="&#x426;" horiz-adv-x="1597" 
d="M1206 0h-1136v72q88 6 120 21t46 59t14 157v748q0 131 -28 162t-144 41v71h614v-71q-63 -6 -91 -12t-48 -28q-21 -24 -25 -58t-4 -105v-889q0 -58 10 -68t70 -10h371q59 0 71 10q11 10 11 66v856q0 86 -3 126t-25 66q-23 26 -51 33q-28 6 -93 13v71h618v-71
q-86 -6 -117 -22t-43 -59q-12 -44 -12 -157v-825q0 -70 10 -85t54 -16h131l-56 -463h-79l-35 215q-14 94 -43 123t-107 29z" />
    <glyph glyph-name="uni0427" unicode="&#x427;" horiz-adv-x="1458" 
d="M479 942q0 -283 264 -283q109 0 193 46v360q0 125 -25 155t-127 40v71h590v-71q-112 -10 -138 -41t-26 -154v-774q0 -78 4 -115q4 -36 24 -62t47 -31q28 -5 89 -11v-72h-622v72q70 6 100 11t54 31q22 26 26 62t4 115v332l-180 -66q-76 -27 -154 -27q-236 0 -338 132
q-59 82 -59 256v167q0 105 -28 135t-142 40v71h586v-71q-96 -8 -119 -40t-23 -155v-123z" />
    <glyph glyph-name="uni0428" unicode="&#x428;" horiz-adv-x="2045" 
d="M1978 0h-1910v72q124 10 152 39t28 159v789q0 94 -12 131t-43 50t-113 20v71h563v-71q-84 -10 -103 -39t-20 -154v-901q0 -56 11 -66t73 -10h199q61 0 73 10q11 10 11 66v901q-1 121 -21 151t-98 42v71h514v-71q-82 -10 -102 -41t-21 -152v-901q0 -56 12 -66t74 -10h201
q55 0 67 12t13 64v901q0 123 -20 152t-107 41v71h567v-71q-116 -10 -142 -39t-26 -154v-801q0 -128 28 -156t152 -38v-72z" />
    <glyph glyph-name="uni0429" unicode="&#x429;" horiz-adv-x="2050" 
d="M1673 0h-1605v72q124 10 152 39t28 159v789q0 94 -12 131t-43 50t-113 20v71h563v-71q-84 -10 -103 -39t-20 -154v-901q0 -56 11 -66t73 -10h199q61 0 73 10q11 10 11 66v901q-1 121 -21 151t-98 42v71h514v-71q-82 -10 -102 -41t-21 -152v-901q0 -56 12 -66t74 -10h201
q55 0 67 12t13 64v901q0 123 -20 152t-107 41v71h567v-71q-116 -10 -142 -39t-26 -154v-862q0 -72 11 -91t55 -20h131l-56 -461h-79l-35 215q-14 96 -40 124t-112 28z" />
    <glyph glyph-name="uni042A" unicode="&#x42a;" horiz-adv-x="1546" 
d="M793 238q-1 -82 31 -116t115 -34t161 75t78 242t-77 243t-210 75q-57 0 -98 -8v-477zM965 1331v-71q-86 -6 -117 -20t-43 -56q-12 -40 -12 -144v-239q139 12 200 12q229 0 355 -99t127 -284q0 -236 -193 -346q-145 -84 -414 -84h-520v70q86 6 118 20t44 54t12 141v880
q0 53 -10 65t-63 11h-87q-84 0 -120 -16q-74 -34 -133 -246l-70 6l22 346h904z" />
    <glyph glyph-name="uni042B" unicode="&#x42b;" horiz-adv-x="1896" 
d="M518 281q0 -109 30 -153t113 -44q82 0 159 78t77 250t-76 242t-215 71q-41 0 -88 -6v-438zM1819 0h-613v72q115 10 143 43t27 168v778q0 127 -27 158q-28 31 -143 41v71h613v-71q-115 -10 -142 -41t-26 -162v-778q1 -131 27 -164t141 -43v-72zM518 1040v-235
q86 10 205 10q219 0 345 -99t126 -282q0 -238 -195 -348q-150 -86 -417 -86h-508v72q118 10 146 44t28 175v753q0 142 -27 174t-141 42v71h618v-71q-90 -6 -123 -22t-45 -56t-12 -142z" />
    <glyph glyph-name="uni042C" unicode="&#x42c;" horiz-adv-x="1275" 
d="M647 86q102 0 180 79t78 248t-80 241t-204 71q-55 0 -103 -6v-447q0 -110 30 -148t99 -38zM1202 434q0 -434 -618 -434h-510v72q118 10 146 43t28 172v753q0 100 -12 142t-44 56q-32 15 -112 22v71h614v-71q-120 -10 -148 -44t-28 -180v-231q117 10 213 10q219 0 345 -99
t126 -282z" />
    <glyph glyph-name="uni042D" unicode="&#x42d;" horiz-adv-x="1359" 
d="M637 1360q117 0 237 -42t195 -109q213 -193 213 -502q0 -173 -50 -309t-125 -215t-174 -129q-164 -83 -360 -85q-285 0 -430 156q-94 98 -94 186q0 33 24 59t54 25q55 0 98 -86q117 -254 346 -254q172 0 289 159t119 429l-684 -16v131l680 -19q-6 151 -46 261
q-39 110 -101 167q-118 109 -261 109q-189 0 -282 -125q-72 -94 -117 -236l-72 15q8 68 28 180t23 150q13 4 115 36t180 48t195 16z" />
    <glyph glyph-name="uni042E" unicode="&#x42e;" horiz-adv-x="2080" 
d="M1405 53q127 1 208 141t81 438t-96 472t-231 174q-136 0 -221 -156t-85 -432t95 -457q95 -180 249 -180zM520 756h240q29 258 189 432q161 174 429 174t446 -192t179 -504q0 -314 -172 -505t-448 -191q-277 0 -453 194q-176 195 -178 487h-232v-377q0 -132 27 -162
t139 -40v-72h-606v72q114 10 142 41t28 161v783q0 129 -28 161t-142 42v71h606v-71q-114 -10 -140 -41t-26 -162v-301z" />
    <glyph glyph-name="uni042F" unicode="&#x42f;" horiz-adv-x="1378" 
d="M862 684v467q0 57 -22 76q-24 18 -108 18t-163 -67q-78 -68 -77 -213q0 -281 319 -281h51zM1298 1331v-71q-116 -10 -142 -46t-26 -184v-727q0 -147 29 -184t148 -47v-72h-609v72q111 10 138 47t26 184v297h-43q-90 0 -151 -111q-29 -49 -82 -163t-76 -156
q-47 -94 -113 -132t-194 -38h-180v68q102 12 141 59q28 32 145 260q61 117 119 174t127 76q-164 17 -256 107t-92 227q0 178 129 269t366 91h596z" />
    <glyph glyph-name="uni0430" unicode="&#x430;" horiz-adv-x="954" 
d="M334 293q0 -84 40 -124t83 -40t86 33v327q-73 -44 -113 -63q-96 -49 -96 -133zM338 -25q-123 0 -200 80q-77 81 -77 171t37 132q38 42 92 64q75 30 196 74t157 73v62q0 94 -34 147t-83 53q-49 1 -78 -37t-55 -141q-18 -70 -86 -69q-43 0 -86 32t-43 72q0 41 72 96
q162 111 339 146q121 0 191 -54t94 -118q23 -64 23 -158v-338q0 -121 65 -121q33 0 70 17l20 -66l-223 -117q-78 0 -120 37t-56 82q-180 -119 -215 -119z" />
    <glyph glyph-name="uni0431" unicode="&#x431;" horiz-adv-x="1048" 
d="M512 844q-56 0 -114 -64t-58 -262q0 -196 56 -328t136 -133q80 0 122 78q42 79 42 285t-51 315t-133 109zM571 930h2q193 0 304 -129t110 -316q0 -245 -138 -377t-340 -132t-326 155q-124 156 -122 404q0 299 183 532q123 162 280 233q80 43 201 76t166 70q27 20 27 -10
q0 -176 -125 -252q-76 -43 -250 -69q-175 -27 -223 -95t-23 -205l4 -4q131 119 270 119z" />
    <glyph glyph-name="uni0432" unicode="&#x432;" horiz-adv-x="1069" 
d="M446 449v-242q0 -78 23 -105q23 -26 87 -26t118 49q55 49 55 143q0 180 -233 181h-50zM446 522h37q102 0 150 37q47 37 47 117q0 156 -160 155q-43 0 -58 -14t-16 -55v-240zM1010 276q0 -144 -136 -210t-360 -66h-465v66q96 8 119 36t22 129v471q0 84 -21 111
q-22 27 -101 31v61h577q303 0 303 -200q1 -156 -235 -203v-4q297 -33 297 -222z" />
    <glyph glyph-name="uni0433" unicode="&#x433;" horiz-adv-x="845" 
d="M582 823h-76q-37 0 -45 -9t-8 -50v-559q1 -82 25 -107t128 -32v-66h-549v66q90 8 112 32t21 107v500q0 81 -22 105t-115 30v65h760q0 -131 8 -301l-67 -4q-27 96 -55 160t-117 63z" />
    <glyph glyph-name="uni0434" unicode="&#x434;" horiz-adv-x="1032" 
d="M578 207v543q0 53 -14 63t-70 10h-70q-43 0 -55 -13t-13 -54q-4 -403 -69 -639q-4 -19 2 -27t33 -8h155q73 0 87 18t14 107zM981 905v-65q-96 -6 -119 -28t-22 -95v-504q0 -84 13 -107t58 -22h82l-43 -399h-80l-22 165q-12 92 -38 121t-95 29h-434q-55 0 -75 -27
t-44 -118l-45 -170h-72l-2 399h68q35 2 49 33q94 231 94 620q0 47 -16 67t-70 27l-64 9v65h877z" />
    <glyph glyph-name="uni0435" unicode="&#x435;" horiz-adv-x="894" 
d="M527 596q65 0 74 8t9 33q2 83 -33 147t-94 64t-105 -70t-56 -188q140 6 205 6zM61 430q1 203 149 351t316 149h2q138 0 236 -100t98 -230q-4 -66 -59 -74q-102 -16 -490 -32q6 -158 83 -244t199 -86t224 88l35 -49q-82 -125 -183 -176t-186 -52q-199 0 -311 126t-113 329
z" />
    </font>
</defs>
</svg>
